<?xml version="1.0" encoding="utf-8"?>
<COLLADA xmlns="http://www.collada.org/2005/11/COLLADASchema" version="1.4.1" xmlns:xsi="http://www.w3.org/2001/XMLSchema-instance">
  <asset>
    <contributor>
      <author>Blender User</author>
      <authoring_tool>Blender 4.1.1 commit date:2024-04-15, commit time:15:11, hash:e1743a0317bc</authoring_tool>
    </contributor>
    <created>2024-06-18T18:13:06</created>
    <modified>2024-06-18T18:13:06</modified>
    <unit name="meter" meter="1"/>
    <up_axis>Z_UP</up_axis>
  </asset>
  <library_lights>
    <light id="Spot-light" name="Spot">
      <technique_common>
        <spot>
          <color sid="color">10 10 10</color>
          <constant_attenuation>1</constant_attenuation>
          <linear_attenuation>0</linear_attenuation>
          <quadratic_attenuation>0</quadratic_attenuation>
          <falloff_angle sid="fall_off_angle">69.01815</falloff_angle>
          <falloff_exponent sid="fall_off_exponent">0.15</falloff_exponent>
        </spot>
      </technique_common>
      <extra>
        <technique profile="blender">
          <type sid="type" type="int">2</type>
          <flag sid="flag" type="int">0</flag>
          <mode sid="mode" type="int">2097153</mode>
          <red sid="red" type="float">1</red>
          <green sid="green" type="float">1</green>
          <blue sid="blue" type="float">1</blue>
          <shadow_r sid="blender_shadow_r" type="float">0</shadow_r>
          <shadow_g sid="blender_shadow_g" type="float">0</shadow_g>
          <shadow_b sid="blender_shadow_b" type="float">0</shadow_b>
          <energy sid="blender_energy" type="float">10</energy>
          <spotsize sid="spotsize" type="float">69.01815</spotsize>
          <spotblend sid="spotblend" type="float">0.15</spotblend>
          <clipsta sid="clipsta" type="float">0.04999995</clipsta>
          <clipend sid="clipend" type="float">40</clipend>
          <bias sid="bias" type="float">1</bias>
          <radius sid="radius" type="float">0</radius>
          <area_shape sid="area_shape" type="int">0</area_shape>
          <area_size sid="area_size" type="float">0.25</area_size>
          <area_sizey sid="area_sizey" type="float">0.25</area_sizey>
          <area_sizez sid="area_sizez" type="float">0.25</area_sizez>
        </technique>
      </extra>
    </light>
  </library_lights>
  <library_effects>
    <effect id="CottageTexture-effect">
      <profile_COMMON>
        <newparam sid="cottage_diffuse_png_001-surface">
          <surface type="2D">
            <init_from>cottage_diffuse_png_001</init_from>
          </surface>
        </newparam>
        <newparam sid="cottage_diffuse_png_001-sampler">
          <sampler2D>
            <source>cottage_diffuse_png_001-surface</source>
          </sampler2D>
        </newparam>
        <technique sid="common">
          <lambert>
            <emission>
              <color sid="emission">0 0 0 1</color>
            </emission>
            <diffuse>
              <texture texture="cottage_diffuse_png_001-sampler" texcoord="UVMap"/>
            </diffuse>
            <index_of_refraction>
              <float sid="ior">1.45</float>
            </index_of_refraction>
          </lambert>
        </technique>
      </profile_COMMON>
    </effect>
  </library_effects>
  <library_images/>
  <library_materials>
    <material id="CottageTexture-material" name="CottageTexture">
      <instance_effect url="#CottageTexture-effect"/>
    </material>
  </library_materials>
  <library_geometries>
    <geometry id="Cottage_Cube_002-mesh" name="Cottage_Cube.002">
      <mesh>
        <source id="Cottage_Cube_002-mesh-positions">
          <float_array id="Cottage_Cube_002-mesh-positions-array" count="1011">5.950066 8.192229 -8.604039 5.950066 9.349226 -8.604039 11.99335 9.349226 -9.03582 12.7596 9.349226 1.688736 12.98052 10.83443 4.780746 13.14757 9.349226 7.051434 12.37648 9.349226 -3.673542 12.66758 10.1498 0.400957 -17.77359 9.349226 -0.585771 -17.54883 10.1498 2.55986 -17.75013 10.1498 -0.25754 12.66643 12.7979 0.384937 12.72641 13.16109 1.224225 12.56536 14.63572 -1.029876 12.46535 12.7979 -2.429409 12.565 14.63572 -1.03495 -17.75105 12.7979 -0.270505 -17.65144 14.63572 1.123955 -17.6518 14.63572 1.118881 -17.39585 8.192229 4.701199 -17.5232 9.349226 2.918776 -17.5232 8.192229 2.918776 -17.77359 8.192229 -0.585771 -17.5232 0.67745 2.918775 -18.91878 0.064116 3.018486 -17.5232 0.064116 2.918775 -17.39585 0.064116 4.701198 -17.5232 1.31965 2.918775 -17.77359 0.064116 -0.585771 -17.77359 0.665788 -0.585771 -17.90107 0.064116 -2.370034 -17.65216 14.63572 1.113807 -17.81142 13.16109 -1.115142 -18.06269 10.83443 -4.631979 -18.22308 9.349226 -6.876914 12.15375 10.83443 -6.790884 12.46628 10.1498 -2.416443 12.56427 14.63572 -1.045098 12.56464 14.63572 -1.040024 -17.90107 8.192229 -2.370034 -18.143 8.192229 -5.756124 -17.06886 9.349226 9.210338 -17.15352 8.218717 8.092841 -17.23592 10.83443 6.939651 -17.54998 12.7979 2.543839 -17.65107 14.63572 1.129028 -17.15352 2.820832 8.092841 -17.06886 0.064116 9.210338 -18.143 2.820832 -5.756125 -18.22308 0.064116 -6.876914 -17.77359 1.31965 -0.585771 -17.90107 2.820832 -2.370034 -17.39585 2.820832 4.701198 5.950066 0.064116 -8.604039 5.950066 2.820832 -8.604039 11.99335 0.064116 -9.03582 12.7596 5.319118 1.688736 13.14757 0.064116 7.051433 12.7596 0.064116 1.688736 12.37648 5.321032 -3.673542 12.37648 0.064116 -3.673542 -17.32058 1.31965 2.904298 -17.32058 8.192229 2.904299 -17.57098 1.31965 -0.600248 -17.57098 8.192229 -0.600248 -18.31958 0.67745 2.975675 -19.16917 0.665788 -0.48606 -19.16917 0.064116 -0.48606 -18.91878 0.67745 3.018486 -18.56998 1.31965 -0.528871 -18.56998 0.665788 -0.528871 -18.31958 1.31965 2.975675 -12.1798 2.820832 -7.308695 -7.727202 8.192229 -7.626822 1.497471 2.820832 -8.285908 -7.727202 2.820832 -7.626823 -12.1798 0.064116 -7.308695 -7.727202 0.06411695 -7.626823 1.497471 0.06411695 -8.285908 -12.1798 9.349226 -7.308694 -12.1798 8.192229 -7.308694 -7.727202 9.349226 -7.626822 1.497471 8.192229 -8.285908 1.497471 9.349226 -8.285908 6.874008 7.581105 7.500432 10.24872 7.581105 7.025321 10.26535 7.581105 7.25813 6.233222 0.453864 7.546214 6.874008 0.94005 7.500432 -6.56813 0.06411695 8.460846 -6.568131 2.23666 8.460846 -11.02073 2.23666 8.778977 10.26535 0.94005 7.258129 -11.02073 0.064116 8.778977 6.874008 9.349226 7.500432 -11.02073 7.581105 8.778977 -11.02073 9.349226 8.778977 -6.568131 7.581105 8.460846 10.26535 9.349226 7.25813 6.935459 0.06411695 8.36051 6.874008 0.482587 7.500432 6.874008 0.06411695 7.500433 10.26535 0.064116 7.258129 10.26535 0.491578 7.258129 10.24872 0.94005 7.025321 6.857374 7.581105 7.267625 6.857374 0.94005 7.267625 6.900082 0.482587 7.865364 -6.568131 9.349226 8.460846 10.3268 0.06411695 8.118206 6.935458 0.482587 8.360508 10.29143 0.491578 7.623059 6.900082 0.940051 7.865362 13.33058 6.083645 -3.801146 14.31514 5.832798 -3.31583 13.39424 5.832798 -4.120181 12.50487 6.083645 -4.522348 12.47334 5.832798 -4.924531 12.95584 6.083645 2.460783 13.78609 5.832798 1.947564 13.68192 6.083645 1.639367 14.48651 6.083645 -1.144194 12.52202 7.798086 -1.082651 12.53304 7.798086 -1.01804 14.408 6.083645 0.81795 12.50618 7.798086 -0.925132 12.48195 7.798086 -0.897716 12.45225 7.798086 -1.129848 12.4669 7.798086 -1.130794 14.15628 6.083645 -3.079942 12.49446 7.798086 -1.106722 12.51696 6.083645 2.489125 12.4673 7.798086 -0.89677 12.53042 7.798086 -0.952549 14.59588 5.681017 1.031447 13.78609 5.681017 1.947564 12.9763 5.832798 2.863682 12.9763 5.681017 2.863682 11.98387 5.681017 -4.892922 12.47334 5.681017 -4.924531 13.39424 5.681017 -4.120181 14.31514 5.681017 -3.31583 12.48682 5.832798 2.895291 12.48682 5.681017 2.895291 14.68344 5.681017 -1.156911 14.59588 5.832798 1.031447 14.68344 5.832798 -1.156911 12.066 6.083645 -4.494008 11.98387 5.832798 -4.892922 13.09982 5.681017 1.743389 13.67927 5.681017 1.087865 12.3897 5.681017 -3.806816 13.39888 5.681017 -3.253884 14.25872 5.681017 0.432341 14.32137 5.681017 -1.133529 12.73994 5.681017 -3.829434 12.74959 5.681017 1.766007 14.05783 5.681017 -2.678334 13.75779 5.804492 1.236099 13.13759 5.132816 1.937723 14.37798 5.132816 0.534476 13.13759 5.804492 1.937723 12.76273 0.07308095 1.961931 13.13759 0.07308095 1.937723 14.37116 5.132816 -2.285629 14.45543 4.951208 -0.108712 14.3225 4.951208 -2.167073 13.45768 5.804492 -3.410983 14.16297 5.132816 -2.794957 12.7524 5.132816 -4.027009 14.37116 0.07308095 -2.285629 14.37116 5.804492 -2.285629 14.37798 0.07308095 0.534476 14.37798 5.804492 0.534476 14.44504 5.804492 -1.141514 14.51893 5.132816 0.002600967 14.15632 1.64794 0.427878 13.00565 5.002056 1.729629 14.15632 5.002056 0.427878 12.67044 1.64794 -3.805101 12.7524 0.07308095 -4.027009 14.3225 1.698788 -2.167073 12.67044 5.002056 -3.805101 14.37116 1.51718 -2.285629 14.45543 1.698788 -0.108712 14.51893 1.51718 0.002600967 14.51893 0.07308095 0.002600967 14.37798 1.51718 0.534476 13.00565 1.64794 1.729629 13.13759 1.51718 1.937723 14.16297 1.51718 -2.794957 14.16297 0.07308095 -2.794957 12.7524 5.804491 -4.027009 13.97898 1.64794 -2.662164 13.97898 5.002056 -2.662164 14.51893 5.804492 0.002600967 12.37753 5.804491 -4.0028 14.16297 5.804492 -2.794957 10.73933 7.406231 8.282027 10.75891 7.420061 8.556042 10.7565 7.322558 8.522254 6.83585 7.420061 8.836337 6.611906 7.322558 8.818377 6.833436 7.322558 8.802549 6.597157 7.503733 8.611939 6.493643 7.899086 7.163147 6.594743 7.406231 8.57815 10.74174 7.503733 8.315814 10.41912 7.996586 6.916639 10.52022 7.503733 8.331642 6.818685 7.503733 8.59611 6.496057 7.996586 7.196936 6.717586 7.996586 7.181107 6.816271 7.406231 8.562322 6.728862 7.437432 7.338925 6.715172 7.899086 7.147319 10.4167 7.899086 6.882852 10.5178 7.406231 8.297855 10.53497 7.322558 8.538082 10.53738 7.420061 8.571869 6.61432 7.420061 8.852165 10.63823 7.899086 6.867023 6.736633 7.090042 7.447694 6.507333 7.437432 7.354753 6.515104 7.090042 7.463522 10.43817 7.090042 7.183228 10.65969 7.090042 7.167398 10.65192 7.437432 7.05863 10.43039 7.437432 7.074459 -18.53105 8.134083 3.326152 -18.80507 8.147912 3.345729 -18.77128 8.050412 3.343316 -19.08536 8.147912 -0.577331 -19.0674 8.050412 -0.801274 -19.05157 8.050412 -0.579745 -18.86096 8.231585 -0.816024 -17.41217 8.626937 -0.919537 -18.82718 8.134083 -0.818438 -18.56484 8.231585 3.328567 -17.16566 8.724439 3.005938 -18.58067 8.231585 3.107037 -18.84513 8.231585 -0.594495 -17.44596 8.724439 -0.917123 -17.43013 8.724439 -0.695594 -18.81135 8.134083 -0.596909 -17.58795 8.165286 -0.684318 -17.39634 8.626937 -0.698008 -17.13188 8.626937 3.003524 -18.54688 8.134083 3.104622 -18.78711 8.050412 3.121786 -18.82089 8.147912 3.1242 -19.10119 8.147912 -0.79886 -17.11605 8.626937 3.225054 -17.69672 7.817894 -0.676547 -17.60378 8.165286 -0.905847 -17.71255 7.817894 -0.898076 -17.41642 7.817894 3.246514 -17.30766 8.165286 3.238742 -17.32348 8.165286 3.017213 -17.43225 7.817894 3.024984 -5.245152 12.03316 7.897085 -5.30175 9.703709 7.104922 -5.245152 9.703709 7.897085 -0.361134 9.703709 6.751925 -0.304536 12.03316 7.544086 -0.304536 9.703709 7.544086 -2.774844 14.23872 7.720585 -5.570631 12.16839 3.341619 -5.245152 12.16839 7.897085 -5.993761 11.6385 3.912879 -5.570631 12.03316 3.341619 -2.74828 14.10348 8.092384 -5.218587 12.16839 8.268882 -5.218587 12.03316 8.268882 -0.277972 12.16839 7.915884 -2.74828 14.23872 8.092384 -2.774844 14.10348 7.720585 -0.129967 11.6385 3.493922 0.1570529 11.77374 7.511107 0.1570529 11.6385 7.511107 -5.706741 11.6385 7.930063 -5.993761 11.77374 3.912879 -5.680177 11.77374 8.301862 -5.706741 11.77374 7.930063 0.1836169 11.6385 7.882905 -5.680177 11.6385 8.301862 -0.277972 12.03316 7.915884 0.1836169 11.77374 7.882905 -2.776458 14.10348 7.7207 -4.012419 13.06832 7.809008 -3.713624 12.81745 7.78766 -3.710227 11.07517 7.787416 -5.245152 9.703709 7.897085 -3.59828 9.703709 7.779418 -0.304536 9.703709 7.544086 -1.839461 11.07517 7.653755 -1.951408 9.703709 7.661753 -1.537269 13.06832 7.632164 -2.77323 14.10348 7.720469 -1.836064 12.81745 7.653512 -0.304536 12.03316 7.544086 -5.245152 12.03316 7.897085 -0.630015 12.16839 2.988622 -2.774844 14.23872 7.720585 -0.304536 12.16839 7.544086 -0.277972 12.16839 7.915884 0.1570529 11.77374 7.511107 -0.129967 11.77374 3.493922 -19.24734 8.780824 -8.006252 13.52006 14.73787 -1.079658 12.86126 8.780824 -10.30035 14.17886 8.780824 8.14103 -18.58854 14.73787 1.214438 -17.92974 8.780824 10.43513 13.52006 14.52574 -1.079658 -19.23048 8.631655 -7.770261 12.87812 8.631655 -10.06436 -18.58854 14.52574 1.214438 14.162 8.631655 7.905039 -17.9466 8.631655 10.19914 12.40502 13.16109 -3.274048 -17.49002 13.16109 3.383129 10.3268 0.491578 8.118206 10.29143 0.940051 7.623059 12.76273 5.804492 1.961931 12.7524 1.51718 -4.027009 12.37753 0.07308095 -4.0028 10.64065 7.996586 6.900812 -17.14984 8.724439 3.227468 -0.630015 12.03316 2.988622 -3.277872 14.23872 0.680117 -0.129967 11.77374 3.493922 -2.779686 14.10348 7.720932 -2.770002 14.10348 7.72024 -3.277872 14.23872 0.680117 0.1836169 11.77374 7.882905 -2.74828 14.23872 8.092384</float_array>
          <technique_common>
            <accessor source="#Cottage_Cube_002-mesh-positions-array" count="337" stride="3">
              <param name="X" type="float"/>
              <param name="Y" type="float"/>
              <param name="Z" type="float"/>
            </accessor>
          </technique_common>
        </source>
        <source id="Cottage_Cube_002-mesh-normals">
          <float_array id="Cottage_Cube_002-mesh-normals-array" count="1389">-0.07126647 0 -0.9974573 0.9973916 0.00186491 -0.07215762 0.9974575 1.41816e-5 -0.07126623 -0.9974573 1.68697e-5 0.07126635 0.9974567 -1.46597e-5 -0.07127618 0.9974566 -1.48033e-5 -0.07127618 0.9974573 -6.62091e-6 -0.07126629 -0.9974589 -2.91686e-4 0.07124358 -0.9974574 0 0.071267 -0.9974574 0 0.07126629 0.07126587 0 0.9974574 -0.9974574 0 0.071267 -0.9974575 0 0.07126492 -0.9974567 -2.22184e-5 0.07127636 -0.9974566 -1.87759e-5 0.07127636 -0.9974574 8.1446e-7 0.07126635 0.9974576 6.97734e-6 -0.07126247 0.9974576 9.60486e-7 -0.07126367 0.9974647 -3.93677e-4 -0.07116252 0.9974647 -3.9371e-4 -0.07116252 0.9974647 -3.93702e-4 -0.07116246 -0.9974575 0 0.07126498 -0.9974574 -9.71233e-7 0.07126653 -0.9974507 0.004276275 0.07123255 -0.9974577 1.62258e-5 0.07126158 -0.9974576 1.44419e-6 0.07126355 -0.9974595 -7.42917e-4 0.07123267 -0.9973802 -0.00130999 0.07232636 -0.9974573 6.12514e-7 0.07126682 -0.9974575 0 0.07126492 -0.9974573 0 0.071267 -0.07126647 0 -0.9974574 0.9973933 0 -0.0721578 -0.9971427 0 0.07554149 -0.9974575 0 0.07126498 0.9974574 0 -0.07126641 -0.07126587 1.7078e-7 -0.9974574 -0.9974573 -2.36565e-7 0.071267 -0.07126617 0 -0.9974575 -0.9974572 0 0.07126802 -0.9974574 1.02111e-6 0.07126605 -0.9974573 0 0.07126635 0 -1 3.34057e-7 0.07126724 0 0.9974573 0 1 0 0.07126611 0 0.9974575 -0.9974574 0 0.071267 -0.9974575 0 0.07126492 -0.9974573 0 0.07126635 -0.07126611 0 -0.9974575 -2.36547e-4 0.9999946 -0.003310739 -0.9974574 0 0.07126635 -0.07126665 0 -0.9974573 -0.07126611 0 -0.9974575 -0.07126635 1.82381e-7 -0.9974573 -0.07126653 0 -0.9974574 -0.07126629 0 -0.9974573 -0.07126653 0 -0.9974574 -0.07126653 0 -0.9974574 -0.07126599 0 -0.9974574 -0.07126629 0 -0.9974574 -0.07126665 0 -0.9974574 -0.07126665 0 -0.9974574 -0.07126617 1.59094e-7 -0.9974575 -0.07126682 0 -0.9974573 0.9974574 0 -0.07126617 0.9973933 0 -0.0721578 0 -1 -1.5022e-7 0.0712645 0 0.9974575 0.07126623 0 0.9974573 0.07114082 0 0.9974663 0.07153046 -1.47562e-7 0.9974384 0.0711407 0 0.9974663 0.07126605 0 0.9974575 0.07126545 0 0.9974574 0.07114088 0 0.9974663 0.07126647 0 0.9974573 0.07153004 0 0.9974385 0.07126677 0 0.9974573 -0.9974574 6.65986e-7 0.07126653 0.07126623 4.39172e-6 0.9974574 0.07153034 0 0.9974384 0.07126605 0 0.9974575 -0.9974576 0 0.07126337 0.9974573 0 -0.07126778 -0.9974573 0 0.07126694 0.07153058 0 0.9974384 0.07126629 0 0.9974574 0.07126635 0 0.9974574 0.07126677 0 0.9974574 0.07126533 2.21716e-6 0.9974575 0.07126617 4.86503e-6 0.9974575 0.9974573 0 -0.07126665 -0.002637684 0.9999966 1.88428e-4 0.07126653 4.23052e-6 0.9974573 0.9974574 0 -0.07126629 -1.97376e-7 1 -2.68334e-6 -0.9974573 0 0.07126653 -0.9974573 2.71953e-7 0.07126653 0.9974573 5.50441e-7 -0.07126629 0.4370776 0.7473635 -0.5004109 0.4370774 0.7473645 -0.5004094 0.4978104 0.7473651 0.4400346 0.6514775 0.7504838 -0.1111357 0.4147486 0.832814 0.3666123 0.4147472 0.8328147 0.366612 -0.02914148 0.8919568 -0.4511805 0.3641476 0.8328109 -0.4169204 0.3641432 0.8328225 -0.4169011 0.02914291 0.8919271 0.4512391 0.6603599 0.7504844 0.02642196 0.7492468 0 0.6622909 0.7492472 0 0.6622905 -0.06444293 0 -0.9979214 0.657839 0 -0.7531586 0.6578383 0 -0.7531594 0.0644437 0 0.9979214 0.9992006 0 0.0399791 0.9857589 0 -0.1681654 0.7869544 0.6162074 0.03148728 0.4978091 0.7473658 0.4400347 -0.03403204 0.8491923 -0.5269861 0.03403234 0.8491932 0.5269846 0.7763687 0.6162062 -0.1324447 0 -1 0 0 -1 1.26673e-7 0 -1 3.16206e-7 0 -1 -3.00262e-7 0 -1 -8.3925e-7 0 -1 -3.01683e-7 0.7492478 3.03244e-6 0.6622899 0.06444251 0 0.9979215 0.9533314 -0.2955825 -0.06156527 0.6578398 0 -0.753158 1 0 -4.77711e-5 1 0 4.77711e-5 -1 0 4.77711e-5 -1 0 -4.77711e-5 0.9979213 -4.95367e-6 -0.06444478 -0.433398 0 0.9012026 0.3623279 -0.8752953 0.320276 0.9380629 0 0.3464652 0.9251299 0 0.379651 0.3349275 -0.8606896 -0.383454 0.953331 0.2955836 -0.06156533 0.9979213 0 -0.06444573 0.9979213 0 -0.06444483 0.3623244 0.8752978 0.3202732 0.7492474 0 0.6622902 0.6578399 0 -0.7531578 0.33493 0.8606864 -0.3834592 -0.5852398 0 -0.8108603 0.8686122 0 -0.4954925 -1 4.76718e-5 0 -1 -4.79658e-5 0 0 0 1 0.8445442 0 -0.5354858 -0.06444585 0 -0.9979212 0.9666355 0 0.2561558 0.9256592 0 -0.3783584 0.9979213 0 -0.06444478 0.7492473 0 0.6622905 0.6578395 0 -0.7531582 0.9974571 1.35891e-5 -0.0712704 0.06731456 -0.3281704 0.9422171 -0.9974573 -1.23044e-5 0.07126635 0.02338761 0.9446153 0.3273454 0.02339035 0.9446158 0.3273437 0.02338802 0.9446159 0.3273437 0.9974575 -4.25571e-7 -0.07126617 -0.0233882 -0.9446154 -0.327345 0.06731522 -0.3281741 0.9422158 0.06731933 -0.3281733 0.9422158 -0.02338832 -0.9446157 -0.327344 -0.0233891 -0.9446148 -0.3273467 0.02338796 0.9446166 0.3273418 0.02339363 0.9446147 0.3273467 0.02338737 0.9446159 0.3273438 -0.02339124 -0.9446147 -0.3273466 -0.9974575 0 0.07126474 0.9974575 -6.15226e-6 -0.07126545 0.01940423 -0.9622235 0.2715683 -0.9974573 3.66645e-6 0.07126694 0.01940441 -0.9622229 0.2715706 0.9974575 8.51142e-7 -0.07126617 -0.9974575 -3.38441e-6 0.07126611 0.07126492 9.62611e-6 0.9974575 -0.9421954 -0.3282307 0.06732445 -0.07126736 3.07618e-6 -0.9974573 -0.327344 0.9446157 0.02338874 -0.3273442 0.9446157 0.02338886 -0.3273447 0.9446155 0.0233882 0.07126587 0 0.9974575 0.3273442 -0.9446156 -0.02338784 -0.9422222 -0.3281554 0.067317 -0.9422037 -0.3282085 0.06731778 0.3273443 -0.9446157 -0.02338802 0.3273376 -0.9446181 -0.02338469 -0.32734 0.9446172 0.0233882 -0.3273437 0.9446159 0.02339333 -0.3273431 0.9446161 0.02338904 0.3273413 -0.9446167 -0.02338922 -0.0712679 0 -0.9974573 0.0712704 -1.11993e-5 0.9974572 -0.2715699 -0.9622232 0.01940429 -0.07126641 1.41017e-7 -0.9974574 -0.2715688 -0.9622235 0.01940417 0.07126659 -3.72375e-6 0.9974573 -0.07126593 1.48068e-6 -0.9974575 -0.9974574 0 0.07126587 0.9974575 0 -0.07126575 -0.6397398 0.7672313 0.04570817 0.6472426 -0.7608802 -0.04624432 0.07127261 0 0.9974569 0.07127457 0 0.9974567 -0.6397394 -0.7672314 0.04571104 -0.6397396 0.7672316 0.04570621 0.6397395 -0.7672314 -0.04570883 0.9974573 0 -0.07126682 -0.9974574 0 0.07126682 -0.9974575 0 0.07126468 0.9974575 0 -0.07126587 0.07126599 0 0.9974575 -0.6472425 -0.7608805 0.04624015 0.07126218 0 0.9974577 -0.64724 0.7608823 0.0462445 -0.6472429 -0.7608799 0.04624408 -0.6472418 0.760881 0.04624372 0.6472421 -0.7608807 -0.04624462 0.07126706 1.36784e-6 0.9974574 0.07126832 4.21163e-7 0.9974572 0.07126665 -3.62759e-7 0.9974573 0.07126575 -2.36904e-7 0.9974574 0.07126539 3.83956e-7 0.9974575 0.07126641 1.35422e-6 0.9974574 0.07126694 2.75821e-7 0.9974573 0.0712673 -8.23572e-7 0.9974573 0.07126545 -8.22536e-7 0.9974575 0.6397398 0.7672314 -0.04570776 0.6472425 0.7608805 -0.04624015 0.6397398 0.767231 -0.04571264 0.6472419 0.7608807 -0.04624402 -0.03860354 0.8405846 -0.540303 0.03860354 0.8405846 0.5403032 0.03902137 -0.8367782 0.5461499 -0.03902131 -0.8367781 -0.5461501 0.0380088 -0.8459049 0.5319777 -0.0380088 -0.8459049 -0.5319777 -0.9974574 -2.22907e-5 0.07126605 0.9974574 0 -0.07126629 0.9974574 -1.11454e-5 -0.07126641 -0.9974573 0 0.07126635 0.9974572 8.67141e-6 -0.0712701 0.9974573 2.02436e-5 -0.07126635 -0.9974574 1.55963e-5 0.07126629 0.9974572 4.5323e-7 -0.07126909 0.9974618 -1.38784e-4 -0.07120448 0.9974618 -1.3883e-4 -0.07120448 0.9974618 -1.38827e-4 -0.07120448 0.9974626 2.4871e-4 -0.07119202 0.9974626 2.48639e-4 -0.07119208 0.9974627 2.48633e-4 -0.07119202 -0.9974574 -7.35658e-6 0.07126605 -0.9974574 0 0.07126641 0.07126587 0 0.9974575 -0.9974591 1.30699e-4 0.07124269 -0.9974572 1.98004e-6 0.07126885 -0.9974571 1.22519e-5 0.07127076 0.9974574 -4.77771e-7 -0.07126641 0.9974581 -1.34951e-5 -0.07125675 0.9974581 -1.48123e-5 -0.07125645 -0.9974573 -2.09099e-6 0.07126635 -0.9974021 0.001176536 0.07202625 -0.9974007 -0.002066791 0.07202613 -0.9974581 -1.46597e-5 0.07125651 -0.9974581 -1.48033e-5 0.07125651 -0.9974573 0 0.07126647 0.9973933 0 -0.0721578 -0.9971426 0 0.07554173 -0.9974575 0 0.07126492 0.9974574 0 -0.07126635 -0.0712713 0 -0.997457 -0.9974574 3.97426e-7 0.07126694 -0.9974573 0 0.07126784 -0.9974574 1.83281e-6 0.07126635 -0.9974573 0 0.07126635 0 -1 -6.68113e-7 0.07126861 0 0.9974572 0.07126659 0 0.9974573 -0.07126593 0 -0.9974574 -2.36547e-4 0.9999946 -0.003310739 -0.9974574 0 0.07126635 0 1 0 -0.07126653 0 -0.9974573 -0.07126635 1.94594e-7 -0.9974573 -0.07126653 0 -0.9974574 -0.07126569 0 -0.9974574 -0.07126623 0 -0.9974575 -0.07126659 0 -0.9974573 -0.07126593 0 -0.9974575 -0.07126635 0 -0.9974574 -0.07126587 1.93283e-7 -0.9974574 -0.07126647 0 -0.9974574 0.9974575 0 -0.07126617 0.0711407 0 0.9974663 0.07152986 0 0.9974386 0.07126688 0 0.9974573 0.07126551 0 0.9974575 0.07126659 0 0.9974574 0.07126647 0 0.9974573 -0.9974574 -2.64297e-6 0.07126545 -0.9974576 0 0.07126367 0 1 -2.44109e-7 0.9974572 0 -0.07126814 -0.9974573 0 0.07126748 0.07126635 0 0.9974573 0.07126641 0 0.9974574 0.07126599 0 0.9974574 0.9974573 0 -0.07126659 -0.002637684 0.9999965 1.88473e-4 0.07126587 0 0.9974575 0.9974574 0 -0.07126623 -1.97378e-7 1 -2.71329e-6 -0.9974574 -2.24162e-7 0.07126647 -0.9974573 0 0.07126653 0.9974573 0 -0.07126635 0.4370791 0.7473629 -0.5004104 0.4370766 0.7473658 -0.5004083 0.4978092 0.7473658 0.4400346 0.6514763 0.7504845 -0.1111386 0.414757 0.8328058 0.3666216 0.4147445 0.8328109 0.3666239 -0.02913612 0.8919441 -0.451206 0.3641483 0.8328143 -0.416913 0.3641484 0.8328143 -0.4169129 0.02913868 0.8919433 0.4512073 0.6603577 0.7504864 0.02641946 0.7492469 0 0.6622908 0.7492474 0 0.6622903 -0.06444448 0 -0.9979214 0.6578412 0 -0.7531567 0.6578408 0 -0.753157 0.06444448 0 0.9979214 0.9992006 0 0.03997927 0.9857586 0 -0.1681668 0.7869499 0.616213 0.03148674 0.4978109 0.7473648 0.4400343 -0.03402829 0.8491924 -0.5269861 0.03403174 0.8491941 0.5269832 0.7763649 0.6162111 -0.1324439 0 -1 3.00261e-7 0 -1 4.37911e-7 0.06444334 0 0.9979215 0.9533309 -0.2955842 -0.0615651 0.6578393 0 -0.7531584 0.9979214 0 -0.06444412 -0.4333978 0 0.9012028 0.3623237 -0.8752986 0.3202717 0.9380631 0 0.3464646 0.9251293 0 0.3796522 0.3349287 -0.8606855 -0.3834621 0.9533315 0.295582 -0.06156516 0.9979214 0 -0.06444483 0.3623287 0.8752947 0.3202768 0.7492474 0 0.6622903 0.3349277 0.8606878 -0.3834579 -0.585241 0 -0.8108594 0.8686123 0 -0.4954923 0.8445441 0 -0.5354861 0.9666356 0 0.2561558 0.9256592 0 -0.3783586 0.9979214 0 -0.06444478 0.7492473 0 0.6622903 0.6578397 0 -0.753158 0.9974572 -1.81191e-5 -0.07127034 0.06731504 -0.3281733 0.942216 -0.9974573 -2.69165e-6 0.07126665 0.023386 0.9446161 0.3273431 0.02339023 0.9446164 0.3273419 0.02338814 0.944616 0.3273436 0.9974574 5.64069e-7 -0.07126623 -0.02338808 -0.9446156 -0.3273448 0.06732022 -0.328172 0.9422161 0.06731969 -0.3281699 0.9422169 -0.02338814 -0.9446147 -0.327347 -0.02338713 -0.9446154 -0.3273452 0.02338796 0.9446164 0.3273422 0.02338695 0.944617 0.3273407 0.02338677 0.9446181 0.3273376 -0.02338713 -0.9446141 -0.327349 -0.9974576 1.13245e-6 0.07126325 0.9974575 1.23047e-5 -0.07126504 0.01940238 -0.9622234 0.2715693 -0.9974573 8.51142e-7 0.07126706 0.01940429 -0.9622232 0.2715693 0.9974575 -5.64069e-7 -0.07126611 -0.9974573 -3.83015e-6 0.07126641 0.07126122 -1.13242e-5 0.9974578 -0.9422309 -0.3281283 0.06732571 -0.0712651 -3.98931e-6 -0.9974575 -0.3273456 0.9446153 0.02338755 -0.3273442 0.9446157 0.02339017 -0.327345 0.9446154 0.0233879 0.07126623 -8.46101e-7 0.9974575 0.3273445 -0.9446157 -0.02338838 -0.9422184 -0.328166 0.06731706 -0.9422235 -0.3281509 0.06731998 0.327344 -0.9446158 -0.02338778 0.3273438 -0.9446158 -0.02338874 -0.3273474 0.9446146 0.02338826 -0.3273401 0.9446172 0.02338784 -0.3273414 0.9446167 0.02338469 0.3273419 -0.9446165 -0.02338927 -0.07126545 -1.13243e-6 -0.9974574 0.07126563 1.53805e-6 0.9974574 -0.2715691 -0.9622235 0.01939857 -0.07126587 -8.51143e-7 -0.9974575 -0.27157 -0.9622232 0.01939851 0.07126706 1.97424e-6 0.9974574 -0.07126533 1.27671e-6 -0.9974575 -0.9974573 0 0.07126629 0.9974573 1.34462e-7 -0.07126635 -0.6397398 0.7672312 0.04570823 0.6472427 -0.76088 -0.04624408 0.07126325 0 0.9974576 0.07126057 0 0.9974578 -0.6397382 -0.7672328 0.04570484 -0.6397395 0.7672314 0.04571127 0.6397396 -0.7672317 -0.04570472 0.9974574 0 -0.07126593 -0.9974573 0 0.07126682 0.9974575 0 -0.07126468 0.07126975 0 0.9974571 -0.6472423 -0.7608802 0.04624724 -0.6472436 0.7608793 0.04624241 -0.6472428 -0.7608799 0.04624396 -0.6472418 0.7608808 0.04624432 0.6472427 -0.7608799 -0.04624593 0.07173252 -5.87097e-4 0.9974238 0.071267 0 0.9974574 0.07126778 0 0.9974573 0.07126498 2.15793e-7 0.9974575 0.07087093 -6.49086e-4 0.9974853 0.07071858 -1.93703e-6 0.9974963 0.07071852 -1.89937e-6 0.9974963 0.07071852 -1.9079e-6 0.9974963 0.07126539 -1.44172e-6 0.9974575 0.07126343 9.61149e-7 0.9974576 0.07126635 2.72618e-7 0.9974573 0.6397398 0.7672314 -0.045708 0.6472423 0.7608802 -0.04624748 0.6397377 0.7672331 -0.04570484 0.6472419 0.7608808 -0.04624432 -0.03860354 0.8405846 -0.5403031 0.03860354 0.8405845 0.5403031 0.03902131 -0.8367782 0.5461499 -0.03902131 -0.8367781 -0.5461499 0.03800886 -0.8459033 0.5319802 -0.03800886 -0.8459032 -0.5319803 -0.9974573 0 0.07126653 0.9974574 0 -0.07126611 0.9974574 0 -0.07126635 -0.9974574 0 0.07126605</float_array>
          <technique_common>
            <accessor source="#Cottage_Cube_002-mesh-normals-array" count="463" stride="3">
              <param name="X" type="float"/>
              <param name="Y" type="float"/>
              <param name="Z" type="float"/>
            </accessor>
          </technique_common>
        </source>
        <source id="Cottage_Cube_002-mesh-map-0">
          <float_array id="Cottage_Cube_002-mesh-map-0-array" count="2868">0.102892 0.659234 0.102892 0.677529 0.01233595 0.677529 0.392168 0.873631 0.340024 0.902668 0.301725 0.873631 0.482598 0.873631 0.413885 0.889283 0.392168 0.873631 0.120339 0.874156 0.173515 0.889846 0.125887 0.889846 0.340024 0.902668 0.414155 0.941055 0.400001 0.948156 0.414155 0.941055 0.438015 0.976985 0.400001 0.948156 0.461616 0.941055 0.4381 0.976985 0.414155 0.941055 0.125668 0.941743 0.149241 0.97776 0.149155 0.97776 0.2097139 0.851482 0.1795819 0.874156 0.1795819 0.851482 0.1795819 0.874156 0.120339 0.851482 0.1795819 0.851482 0.153291 0.353313 0.06447196 0.296428 0.153291 0.296428 0.2097139 0.692189 0.1795819 0.716795 0.1795819 0.704209 0.120339 0.692189 0.120339 0.70398 0.09017598 0.692189 0.125668 0.941743 0.14907 0.97776 0.11139 0.94886 0.05193895 0.903263 0.125668 0.941743 0.11139 0.94886 0.120339 0.874156 0.05193895 0.903263 0.01398897 0.874156 0.482598 0.873631 0.535169 0.902668 0.461398 0.889283 0.535169 0.902668 0.461616 0.941055 0.461398 0.889283 0.461616 0.941055 0.438271 0.976985 0.438186 0.976985 0.120339 0.851482 0.120339 0.874156 0.09017598 0.851482 0.09017598 0.851482 0.01398897 0.874156 0.03293496 0.851482 0.285945 0.874156 0.2097139 0.851482 0.267048 0.852001 0.1795819 0.874156 0.247554 0.903263 0.173515 0.889846 0.247554 0.903263 0.1732439 0.941743 0.173515 0.889846 0.1732439 0.941743 0.149327 0.97776 0.149241 0.97776 0.267048 0.746215 0.2097139 0.692189 0.285945 0.692189 0.09017598 0.692189 0.03293496 0.746215 0.01398897 0.692189 0.120339 0.716795 0.09017598 0.746215 0.09017598 0.692189 0.2097139 0.692189 0.2097139 0.746215 0.1795819 0.716795 0.102892 0.530709 0.102892 0.574299 0.01233595 0.530709 0.392168 0.79484 0.301725 0.692101 0.392168 0.692101 0.285945 0.874156 0.267048 0.746215 0.285945 0.692189 0.120339 0.851482 0.09017598 0.746215 0.120339 0.716795 0.573027 0.692101 0.482598 0.794877 0.482598 0.692101 0.185903 0.847161 0.182654 0.717829 0.185903 0.717829 0.2097139 0.746215 0.1795819 0.851482 0.1795819 0.716795 0.102892 0.574299 0.01233595 0.677529 0.01233595 0.530709 0.03293496 0.746215 0.01398897 0.874156 0.01398897 0.692189 0.125887 0.889846 0.1732439 0.941743 0.125668 0.941743 0.1795819 0.851482 0.120339 0.716795 0.1795819 0.716795 0.421769 0.493505 0.369634 0.496694 0.369634 0.493505 0.117817 0.719001 0.114568 0.848334 0.117817 0.848334 0.285033 0.249236 0.288624 0.353779 0.285033 0.353779 0.06160098 0.353599 0.01091694 0.293105 0.06160098 0.293105 0.1795819 0.704209 0.1795819 0.692189 0.2097139 0.692189 0.09017598 0.692189 0.120339 0.70398 0.120339 0.716795 0.246184 0.35378 0.203947 0.249236 0.246184 0.249236 0.06431496 0.353402 0.153134 0.296386 0.06431496 0.296386 0.270918 0.353781 0.246184 0.249236 0.270918 0.249236 0.20231 0.35378 0.1572279 0.249236 0.203128 0.249236 0.285033 0.353779 0.270918 0.249236 0.285033 0.249236 0.01091694 0.292972 0.06160098 0.353616 0.01091694 0.353616 0.465114 0.677529 0.374559 0.574299 0.465114 0.530709 0.307839 0.659234 0.169611 0.574299 0.307839 0.574299 0.465114 0.530709 0.374559 0.574299 0.374559 0.530709 0.374559 0.574299 0.307839 0.530709 0.374559 0.530709 0.307839 0.574299 0.169611 0.530709 0.307839 0.530709 0.169611 0.574299 0.102892 0.530709 0.169611 0.530709 0.465114 0.677529 0.374559 0.677529 0.374559 0.659234 0.374559 0.677529 0.307839 0.659234 0.374559 0.659234 0.307839 0.677529 0.169611 0.659234 0.307839 0.659234 0.169611 0.677529 0.102892 0.659234 0.169611 0.659234 0.307839 0.574299 0.374559 0.659234 0.307839 0.659234 0.102892 0.574299 0.169611 0.659234 0.102892 0.659234 0.482598 0.794877 0.392168 0.873631 0.392168 0.79484 0.301725 0.873631 0.392168 0.79484 0.392168 0.873631 0.482598 0.794877 0.573027 0.873631 0.482598 0.873631 0.359676 0.510327 0.428152 0.505073 0.428152 0.510327 0.360946 0.378542 0.370548 0.38623 0.370548 0.491242 0.169124 0.37238 0.360946 0.378542 0.169124 0.406733 0.1024039 0.406733 0.01177698 0.5192 0.01177698 0.37238 0.464555 0.37238 0.421366 0.491242 0.421366 0.38623 0.01177698 0.37238 0.1024039 0.37238 0.1024039 0.406733 0.169124 0.37238 0.1024039 0.406733 0.1024039 0.37238 0.421366 0.491242 0.370548 0.5192 0.370548 0.491242 0.01177698 0.5192 0.1024039 0.491242 0.1024039 0.5192 0.169124 0.491242 0.1024039 0.5192 0.1024039 0.491242 0.421366 0.491242 0.464555 0.5192 0.421366 0.5192 0.169124 0.406733 0.1024039 0.491242 0.1024039 0.406733 0.01852899 0.242105 0.09909099 0.2003509 0.09908998 0.242105 0.169124 0.37238 0.370548 0.37238 0.360946 0.378542 0.421366 0.37238 0.464555 0.37238 0.421366 0.379139 0.421366 0.38623 0.370548 0.491242 0.370548 0.38623 0.367481 0.489662 0.36428 0.386348 0.36428 0.489662 0.263413 0.2434639 0.273417 0.147144 0.273417 0.2434639 0.427765 0.386887 0.424564 0.4902 0.424564 0.386887 0.104219 0.242756 0.138401 0.198656 0.138401 0.242756 0.464555 0.37238 0.421366 0.38623 0.421366 0.379139 0.370548 0.491242 0.169124 0.5192 0.169124 0.491242 0.169124 0.406733 0.370548 0.491242 0.169124 0.491242 0.370548 0.378997 0.370548 0.38623 0.360946 0.378542 0.370548 0.37238 0.370548 0.378997 0.360946 0.378542 0.226455 0.243465 0.186192 0.147144 0.226455 0.147144 0.09946298 0.242089 0.01890099 0.200274 0.09946298 0.200274 0.263413 0.147144 0.226455 0.243468 0.226455 0.147144 0.1421779 0.147144 0.1853269 0.243465 0.141313 0.243465 0.138195 0.242703 0.104013 0.198833 0.138195 0.198833 0.289098 0.147144 0.273417 0.2434639 0.273417 0.147144 0.09017598 0.851482 0.03293496 0.746215 0.09017598 0.746215 0.267048 0.746215 0.2097139 0.851482 0.2097139 0.746215 0.414155 0.941055 0.461398 0.889283 0.461616 0.941055 0.909978 0.930907 0.88575 0.888833 0.923878 0.927188 0.944165 0.965297 0.923878 0.927188 0.962007 0.965542 0.63465 0.965297 0.654936 0.927188 0.668837 0.930907 0.789407 0.887459 0.79229 0.974345 0.789407 0.974043 0.703024 0.896517 0.785383 0.975493 0.668837 0.930907 0.668837 0.930907 0.784242 0.976641 0.63465 0.965297 0.944165 0.965297 0.794573 0.97729 0.794573 0.976641 0.875791 0.896517 0.793432 0.975493 0.79229 0.974345 0.909978 0.930907 0.794573 0.976641 0.793432 0.975493 0.63465 0.984749 0.784242 0.976641 0.784242 0.97729 0.789407 0.887459 0.786524 0.974345 0.703024 0.896517 0.8589 0.874405 0.913137 0.869425 0.913137 0.874405 0.913137 0.874405 0.967374 0.869425 0.967374 0.874404 0.584586 0.874405 0.611155 0.869425 0.611155 0.874405 0.665394 0.874405 0.719634 0.869425 0.719634 0.874405 0.611155 0.874405 0.665395 0.869425 0.665394 0.874405 0.967374 0.874404 0.993942 0.869425 0.993942 0.874404 0.789267 0.874405 0.8589 0.869425 0.8589 0.874405 0.719634 0.874405 0.789267 0.869425 0.789267 0.874405 0.703024 0.896517 0.789407 0.87873 0.789407 0.887459 0.668837 0.930907 0.693065 0.888833 0.703024 0.896517 0.944165 0.984749 0.962007 0.965542 0.962007 0.987237 0.63465 0.984749 0.616808 0.965542 0.63465 0.965297 0.875791 0.896517 0.789407 0.87873 0.88575 0.888833 0.940904 0.298655 0.914716 0.308322 0.938907 0.332372 0.907082 0.569332 0.901021 0.526053 0.887958 0.569331 0.974704 0.502116 0.938899 0.502006 0.940893 0.535724 0.983613 0.417191 0.963098 0.356423 0.969467 0.417191 0.940893 0.535724 0.914705 0.526054 0.907082 0.569332 0.907097 0.265043 0.901032 0.308321 0.914716 0.308322 0.974712 0.332266 0.938907 0.332372 0.963098 0.356423 0.983613 0.417191 0.963092 0.477958 0.974704 0.502116 0.662645 0.860217 0.616796 0.827195 0.708494 0.827195 0.616796 0.860216 0.602572 0.578439 0.616796 0.578439 0.848312 0.826765 0.741747 0.817878 0.842677 0.817878 0.920966 0.85959 0.875145 0.826718 0.966788 0.826726 0.580579 0.571495 0.580579 0.571495 0.580579 0.571495 0.580579 0.571495 0.580579 0.571495 0.580579 0.571495 0.792212 0.859632 0.736111 0.826765 0.848312 0.826765 0.708494 0.827195 0.702283 0.655865 0.708494 0.57844 0.708494 0.827195 0.622251 0.820766 0.702283 0.820766 0.966788 0.826726 0.960953 0.656121 0.966788 0.579133 0.848312 0.826765 0.842677 0.65873 0.848312 0.57918 0.875145 0.826718 0.960952 0.820251 0.966788 0.826726 0.848312 0.649843 0.741747 0.65873 0.736111 0.649843 0.848312 0.859632 0.792212 0.859632 0.848312 0.826765 0.848312 0.57918 0.736111 0.649843 0.736111 0.57918 0.708494 0.649437 0.622252 0.655865 0.616796 0.649437 0.616796 0.578439 0.708494 0.649437 0.616796 0.649437 0.708494 0.860217 0.662645 0.860217 0.708494 0.827195 0.966788 0.579133 0.875145 0.64979 0.875145 0.579125 0.966788 0.859594 0.920966 0.85959 0.966788 0.826726 0.875145 0.64979 0.960953 0.656121 0.879941 0.656113 0.875145 0.826718 0.879941 0.656113 0.879941 0.820244 0.736111 0.826765 0.741747 0.65873 0.741747 0.817878 0.580579 0.571495 0.580579 0.571495 0.580579 0.571495 0.580579 0.571495 0.580579 0.571495 0.580579 0.571495 0.616796 0.827195 0.622252 0.655865 0.622251 0.820766 0.966788 0.579133 0.979985 0.859504 0.966788 0.859594 0.710583 0.57918 0.736111 0.859632 0.710583 0.859632 0.848312 0.57918 0.87384 0.859632 0.848312 0.859632 0.580579 0.571495 0.580579 0.571495 0.580579 0.571495 0.842677 0.817878 0.741747 0.65873 0.842677 0.65873 0.702283 0.820766 0.622252 0.655865 0.702283 0.655865 0.960952 0.820251 0.879941 0.656113 0.960953 0.656121 0.346874 0.160217 0.337766 0.182942 0.346953 0.18291 0.05347096 0.01575595 0.03964197 0.009373962 0.05347096 0.009373962 0.337623 0.160082 0.346347 0.02638095 0.34681 0.160051 0.297277 0.03838199 0.283549 0.126067 0.283549 0.03838199 0.05417197 0.03838199 0.04044395 0.126067 0.04044395 0.03838199 0.283549 0.03838199 0.05417197 0.126067 0.05417197 0.03838199 0.340203 0.343043 0.378097 0.224459 0.340258 0.190661 0.05459696 0.03839296 0.283975 0.126079 0.283975 0.03839296 0.298358 0.01575595 0.284529 0.009373962 0.298358 0.009373962 0.284529 0.01575595 0.05347096 0.009373962 0.284529 0.009373962 0.05459696 0.02350699 0.283975 0.03839296 0.283975 0.02350699 0.297702 0.02350699 0.283975 0.03839296 0.297702 0.03839296 0.283549 0.02349597 0.05417197 0.03838199 0.05417197 0.02349495 0.04044395 0.02349495 0.05417197 0.03838199 0.04044395 0.03838199 0.283549 0.02349597 0.297277 0.03838199 0.283549 0.03838199 0.04086995 0.02350699 0.05459696 0.03839296 0.05459696 0.02350699 0.337701 0.182776 0.34681 0.160051 0.346888 0.182744 0.346412 0.02654796 0.337687 0.1602489 0.346874 0.160217 0.007719993 0.125788 0.02706998 0.026362 0.02748799 0.125705 0.34681 0.160051 0.379653 0.055902 0.405742 0.07512795 0.324723 0.125554 0.304537 0.02629399 0.324305 0.02621096 0.346874 0.160217 0.379717 0.05606895 0.346412 0.02654796 0.340203 0.343043 0.378097 0.224459 0.407755 0.246489 0.346874 0.160217 0.337766 0.182942 0.346953 0.18291 0.05347096 0.01575595 0.03964197 0.009373962 0.05347096 0.009373962 0.337623 0.160082 0.346347 0.02638095 0.34681 0.160051 0.297277 0.03838199 0.283549 0.126067 0.283549 0.03838199 0.05417197 0.03838199 0.04044395 0.126067 0.04044395 0.03838199 0.283549 0.03838199 0.05417197 0.126067 0.05417197 0.03838199 0.340203 0.343043 0.378097 0.224459 0.340258 0.190661 0.05459696 0.03839296 0.283975 0.126079 0.283975 0.03839296 0.298358 0.01575595 0.284529 0.009373962 0.298358 0.009373962 0.284529 0.01575595 0.05347096 0.009373962 0.284529 0.009373962 0.05459696 0.02350699 0.283975 0.03839296 0.283975 0.02350699 0.283975 0.02350699 0.297702 0.03839296 0.297702 0.02350699 0.283549 0.02349597 0.05417197 0.03838199 0.05417197 0.02349495 0.05417197 0.02349495 0.04044395 0.03838199 0.04044395 0.02349495 0.297277 0.02349597 0.283549 0.03838199 0.283549 0.02349597 0.04086995 0.02350699 0.05459696 0.03839296 0.05459696 0.02350699 0.337701 0.182776 0.34681 0.160051 0.346888 0.182744 0.346412 0.02654796 0.337687 0.1602489 0.346874 0.160217 0.007719993 0.125788 0.02706998 0.026362 0.02748799 0.125705 0.34681 0.160051 0.379653 0.055902 0.405742 0.07512795 0.304955 0.1256369 0.324305 0.02621096 0.324723 0.125554 0.346874 0.160217 0.379717 0.05606895 0.346412 0.02654796 0.340203 0.343043 0.378097 0.224459 0.407755 0.246489 0.982001 0.010149 0.929194 0.03617697 0.929195 0.01014596 0.928975 0.036017 0.981782 0.009988963 0.928976 0.009985983 0.886877 0.109857 0.761971 0.02157896 0.886859 0.02157896 0.934621 0.2341279 0.787185 0.255032 0.767429 0.2341279 0.541354 0.254807 0.428587 0.166513 0.428587 0.160342 0.541354 0.254807 0.654121 0.166512 0.541354 0.260978 0.934284 0.233866 0.94793 0.123048 0.934284 0.123048 0.886859 0.02157896 0.897072 0.109857 0.886877 0.109857 0.934621 0.12331 0.948267 0.2341279 0.934621 0.2341279 0.986226 0.009409964 0.989774 0.162544 0.986217 0.162544 0.989757 0.162796 0.9862 0.009661972 0.989756 0.009661972 0.989757 0.162796 0.9862 0.176968 0.9862 0.162796 0.989774 0.162544 0.986217 0.176716 0.986217 0.162544 0.428587 0.160342 0.407516 0.148505 0.407516 0.142334 0.934284 0.233866 0.94793 0.25477 0.94793 0.233866 0.654121 0.160342 0.675193 0.148505 0.654121 0.166512 0.886859 0.02157896 0.896972 0.004985988 0.897052 0.02157896 0.934284 0.233866 0.786847 0.25477 0.934284 0.25477 0.886859 0.02157896 0.776727 0.004985988 0.886786 0.004985988 0.948267 0.2341279 0.934621 0.255032 0.934621 0.2341279 0.54308 0.241548 0.4779 0.1870959 0.493658 0.1738989 0.493837 0.08225196 0.412891 0.01010996 0.499741 0.01010996 0.67344 0.01010996 0.592494 0.08225196 0.58659 0.01010996 0.592494 0.08225196 0.499741 0.01010996 0.58659 0.01010996 0.608431 0.1870959 0.543251 0.241548 0.592673 0.1738989 0.543251 0.241548 0.493658 0.1738989 0.592673 0.1738989 0.67344 0.1326439 0.592673 0.1738989 0.592494 0.08225196 0.493658 0.1738989 0.412891 0.1326439 0.493837 0.08225196 0.592494 0.08225196 0.493658 0.1738989 0.493837 0.08225196 0.763273 0.202785 0.88746 0.114908 0.886359 0.2026129 0.896398 0.202599 0.886078 0.218809 0.886359 0.2026129 0.88746 0.114908 0.896398 0.202599 0.886359 0.2026129 0.886359 0.2026129 0.777932 0.218969 0.763273 0.202785 0.489561 0.417808 0.81403 0.296382 0.81403 0.417808 0.813676 0.433914 0.489206 0.554734 0.489206 0.433914 0.813975 0.417631 0.489505 0.296733 0.813975 0.296733 0.489505 0.43407 0.813975 0.554968 0.489505 0.554968 0.489684 0.290216 0.815161 0.268549 0.815161 0.290216 0.813981 0.268314 0.489512 0.290408 0.489512 0.268314 0.823012 0.312654 0.888887 0.418653 0.821302 0.315367 0.832137 0.303348 0.903056 0.417464 0.905675 0.417464 0.832137 0.53158 0.903056 0.417464 0.830296 0.528659 0.823012 0.524651 0.888887 0.418653 0.891319 0.418653 0.392168 0.873631 0.413885 0.889283 0.340024 0.902668 0.482598 0.873631 0.461398 0.889283 0.413885 0.889283 0.120339 0.874156 0.1795819 0.874156 0.173515 0.889846 0.340024 0.902668 0.413885 0.889283 0.414155 0.941055 0.414155 0.941055 0.4381 0.976985 0.438015 0.976985 0.461616 0.941055 0.438186 0.976985 0.4381 0.976985 0.125668 0.941743 0.1732439 0.941743 0.149241 0.97776 0.1795819 0.874156 0.120339 0.874156 0.120339 0.851482 0.153291 0.353313 0.06447196 0.353313 0.06447196 0.296428 0.125668 0.941743 0.149155 0.97776 0.14907 0.97776 0.05193895 0.903263 0.125887 0.889846 0.125668 0.941743 0.120339 0.874156 0.125887 0.889846 0.05193895 0.903263 0.482598 0.873631 0.573027 0.873631 0.535169 0.902668 0.535169 0.902668 0.475861 0.948156 0.461616 0.941055 0.461616 0.941055 0.475861 0.948156 0.438271 0.976985 0.09017598 0.851482 0.120339 0.874156 0.01398897 0.874156 0.285945 0.874156 0.1795819 0.874156 0.2097139 0.851482 0.1795819 0.874156 0.285945 0.874156 0.247554 0.903263 0.247554 0.903263 0.187432 0.94886 0.1732439 0.941743 0.1732439 0.941743 0.187432 0.94886 0.149327 0.97776 0.267048 0.746215 0.2097139 0.746215 0.2097139 0.692189 0.09017598 0.692189 0.09017598 0.746215 0.03293496 0.746215 0.392168 0.79484 0.301725 0.873631 0.301725 0.692101 0.285945 0.874156 0.267048 0.852001 0.267048 0.746215 0.120339 0.851482 0.09017598 0.851482 0.09017598 0.746215 0.573027 0.692101 0.573027 0.873631 0.482598 0.794877 0.185903 0.847161 0.182654 0.847161 0.182654 0.717829 0.2097139 0.746215 0.2097139 0.851482 0.1795819 0.851482 0.102892 0.574299 0.102892 0.659234 0.01233595 0.677529 0.03293496 0.746215 0.03293496 0.851482 0.01398897 0.874156 0.125887 0.889846 0.173515 0.889846 0.1732439 0.941743 0.1795819 0.851482 0.120339 0.851482 0.120339 0.716795 0.421769 0.493505 0.421769 0.496694 0.369634 0.496694 0.117817 0.719001 0.114568 0.719001 0.114568 0.848334 0.285033 0.249236 0.288624 0.249236 0.288624 0.353779 0.06160098 0.353599 0.01091694 0.353599 0.01091694 0.293105 0.246184 0.35378 0.203128 0.35378 0.203947 0.249236 0.06431496 0.353402 0.153134 0.353402 0.153134 0.296386 0.270918 0.353781 0.246184 0.353781 0.246184 0.249236 0.20231 0.35378 0.1572279 0.35378 0.1572279 0.249236 0.285033 0.353779 0.270918 0.353779 0.270918 0.249236 0.01091694 0.292972 0.06160098 0.292972 0.06160098 0.353616 0.465114 0.677529 0.374559 0.659234 0.374559 0.574299 0.307839 0.659234 0.169611 0.659234 0.169611 0.574299 0.374559 0.574299 0.307839 0.574299 0.307839 0.530709 0.307839 0.574299 0.169611 0.574299 0.169611 0.530709 0.169611 0.574299 0.102892 0.574299 0.102892 0.530709 0.374559 0.677529 0.307839 0.677529 0.307839 0.659234 0.307839 0.677529 0.169611 0.677529 0.169611 0.659234 0.169611 0.677529 0.102892 0.677529 0.102892 0.659234 0.307839 0.574299 0.374559 0.574299 0.374559 0.659234 0.102892 0.574299 0.169611 0.574299 0.169611 0.659234 0.482598 0.794877 0.482598 0.873631 0.392168 0.873631 0.359676 0.510327 0.359676 0.505073 0.428152 0.505073 0.1024039 0.406733 0.1024039 0.491242 0.01177698 0.5192 0.464555 0.37238 0.464555 0.5192 0.421366 0.491242 0.169124 0.37238 0.169124 0.406733 0.1024039 0.406733 0.421366 0.491242 0.421366 0.5192 0.370548 0.5192 0.169124 0.491242 0.169124 0.5192 0.1024039 0.5192 0.169124 0.406733 0.169124 0.491242 0.1024039 0.491242 0.01852899 0.242105 0.01852899 0.2003509 0.09909099 0.2003509 0.421366 0.38623 0.421366 0.491242 0.370548 0.491242 0.367481 0.489662 0.367481 0.386348 0.36428 0.386348 0.263413 0.2434639 0.263413 0.147144 0.273417 0.147144 0.427765 0.386887 0.427765 0.4902 0.424564 0.4902 0.104219 0.242756 0.104219 0.198656 0.138401 0.198656 0.370548 0.491242 0.370548 0.5192 0.169124 0.5192 0.169124 0.406733 0.360946 0.378542 0.370548 0.491242 0.226455 0.243465 0.1853269 0.243465 0.186192 0.147144 0.09946298 0.242089 0.01890099 0.242089 0.01890099 0.200274 0.263413 0.147144 0.263413 0.243468 0.226455 0.243468 0.1421779 0.147144 0.1853269 0.147144 0.1853269 0.243465 0.138195 0.242703 0.104013 0.242703 0.104013 0.198833 0.289098 0.147144 0.289098 0.2434639 0.273417 0.2434639 0.09017598 0.851482 0.03293496 0.851482 0.03293496 0.746215 0.267048 0.746215 0.267048 0.852001 0.2097139 0.851482 0.414155 0.941055 0.413885 0.889283 0.461398 0.889283 0.909978 0.930907 0.875791 0.896517 0.88575 0.888833 0.944165 0.965297 0.909978 0.930907 0.923878 0.927188 0.63465 0.965297 0.616808 0.965542 0.654936 0.927188 0.789407 0.887459 0.875791 0.896517 0.79229 0.974345 0.703024 0.896517 0.786524 0.974345 0.785383 0.975493 0.668837 0.930907 0.785383 0.975493 0.784242 0.976641 0.944165 0.965297 0.944165 0.984749 0.794573 0.97729 0.875791 0.896517 0.909978 0.930907 0.793432 0.975493 0.909978 0.930907 0.944165 0.965297 0.794573 0.976641 0.63465 0.984749 0.63465 0.965297 0.784242 0.976641 0.789407 0.887459 0.789407 0.974043 0.786524 0.974345 0.8589 0.874405 0.8589 0.869425 0.913137 0.869425 0.913137 0.874405 0.913137 0.869425 0.967374 0.869425 0.584586 0.874405 0.584586 0.869425 0.611155 0.869425 0.665394 0.874405 0.665395 0.869425 0.719634 0.869425 0.611155 0.874405 0.611155 0.869425 0.665395 0.869425 0.967374 0.874404 0.967374 0.869425 0.993942 0.869425 0.789267 0.874405 0.789267 0.869425 0.8589 0.869425 0.719634 0.874405 0.719634 0.869425 0.789267 0.869425 0.703024 0.896517 0.693065 0.888833 0.789407 0.87873 0.668837 0.930907 0.654936 0.927188 0.693065 0.888833 0.944165 0.984749 0.944165 0.965297 0.962007 0.965542 0.63465 0.984749 0.616808 0.987237 0.616808 0.965542 0.875791 0.896517 0.789407 0.887459 0.789407 0.87873 0.940904 0.298655 0.907097 0.265043 0.914716 0.308322 0.907082 0.569332 0.914705 0.526054 0.901021 0.526053 0.974704 0.502116 0.963092 0.477958 0.938899 0.502006 0.983613 0.417191 0.974712 0.332266 0.963098 0.356423 0.940893 0.535724 0.938899 0.502006 0.914705 0.526054 0.907097 0.265043 0.887973 0.265043 0.901032 0.308321 0.974712 0.332266 0.940904 0.298655 0.938907 0.332372 0.983613 0.417191 0.969467 0.417191 0.963092 0.477958 0.662645 0.860217 0.616796 0.860216 0.616796 0.827195 0.616796 0.860216 0.602571 0.860216 0.602572 0.578439 0.848312 0.826765 0.736111 0.826765 0.741747 0.817878 0.920966 0.85959 0.875145 0.859586 0.875145 0.826718 0.792212 0.859632 0.736111 0.859632 0.736111 0.826765 0.708494 0.827195 0.702283 0.820766 0.702283 0.655865 0.708494 0.827195 0.616796 0.827195 0.622251 0.820766 0.966788 0.826726 0.960952 0.820251 0.960953 0.656121 0.848312 0.826765 0.842677 0.817878 0.842677 0.65873 0.875145 0.826718 0.879941 0.820244 0.960952 0.820251 0.848312 0.649843 0.842677 0.65873 0.741747 0.65873 0.848312 0.57918 0.848312 0.649843 0.736111 0.649843 0.708494 0.649437 0.702283 0.655865 0.622252 0.655865 0.616796 0.578439 0.708494 0.57844 0.708494 0.649437 0.966788 0.579133 0.966788 0.649798 0.875145 0.64979 0.875145 0.64979 0.966788 0.649798 0.960953 0.656121 0.875145 0.826718 0.875145 0.579125 0.879941 0.656113 0.736111 0.826765 0.736111 0.57918 0.741747 0.65873 0.616796 0.827195 0.616796 0.578439 0.622252 0.655865 0.966788 0.579133 0.979985 0.579043 0.979985 0.859504 0.710583 0.57918 0.736111 0.57918 0.736111 0.859632 0.848312 0.57918 0.87384 0.57918 0.87384 0.859632 0.842677 0.817878 0.741747 0.817878 0.741747 0.65873 0.702283 0.820766 0.622251 0.820766 0.622252 0.655865 0.960952 0.820251 0.879941 0.820244 0.879941 0.656113 0.346874 0.160217 0.337687 0.1602489 0.337766 0.182942 0.05347096 0.01575595 0.03964197 0.01575595 0.03964197 0.009373962 0.337623 0.160082 0.33716 0.02641296 0.346347 0.02638095 0.297277 0.03838199 0.297277 0.126067 0.283549 0.126067 0.05417197 0.03838199 0.05417197 0.126067 0.04044395 0.126067 0.283549 0.03838199 0.283549 0.126067 0.05417197 0.126067 0.340203 0.343043 0.407755 0.246489 0.378097 0.224459 0.05459696 0.03839296 0.05459696 0.126079 0.283975 0.126079 0.298358 0.01575595 0.284529 0.01575595 0.284529 0.009373962 0.284529 0.01575595 0.05347096 0.01575595 0.05347096 0.009373962 0.05459696 0.02350699 0.05459696 0.03839296 0.283975 0.03839296 0.297702 0.02350699 0.283975 0.02350699 0.283975 0.03839296 0.283549 0.02349597 0.283549 0.03838199 0.05417197 0.03838199 0.04044395 0.02349495 0.05417197 0.02349495 0.05417197 0.03838199 0.283549 0.02349597 0.297277 0.02349597 0.297277 0.03838199 0.04086995 0.02350699 0.04086995 0.03839296 0.05459696 0.03839296 0.337701 0.182776 0.337623 0.160082 0.34681 0.160051 0.346412 0.02654796 0.337224 0.02657997 0.337687 0.1602489 0.007719993 0.125788 0.007301986 0.02644497 0.02706998 0.026362 0.34681 0.160051 0.346347 0.02638095 0.379653 0.055902 0.324723 0.125554 0.304955 0.1256369 0.304537 0.02629399 0.346874 0.160217 0.405807 0.07529395 0.379717 0.05606895 0.340203 0.343043 0.340258 0.190661 0.378097 0.224459 0.346874 0.160217 0.337687 0.1602489 0.337766 0.182942 0.05347096 0.01575595 0.03964197 0.01575595 0.03964197 0.009373962 0.337623 0.160082 0.33716 0.02641296 0.346347 0.02638095 0.297277 0.03838199 0.297277 0.126067 0.283549 0.126067 0.05417197 0.03838199 0.05417197 0.126067 0.04044395 0.126067 0.283549 0.03838199 0.283549 0.126067 0.05417197 0.126067 0.340203 0.343043 0.407755 0.246489 0.378097 0.224459 0.05459696 0.03839296 0.05459696 0.126079 0.283975 0.126079 0.298358 0.01575595 0.284529 0.01575595 0.284529 0.009373962 0.284529 0.01575595 0.05347096 0.01575595 0.05347096 0.009373962 0.05459696 0.02350699 0.05459696 0.03839296 0.283975 0.03839296 0.283975 0.02350699 0.283975 0.03839296 0.297702 0.03839296 0.283549 0.02349597 0.283549 0.03838199 0.05417197 0.03838199 0.05417197 0.02349495 0.05417197 0.03838199 0.04044395 0.03838199 0.297277 0.02349597 0.297277 0.03838199 0.283549 0.03838199 0.04086995 0.02350699 0.04086995 0.03839296 0.05459696 0.03839296 0.337701 0.182776 0.337623 0.160082 0.34681 0.160051 0.346412 0.02654796 0.337224 0.02657997 0.337687 0.1602489 0.007719993 0.125788 0.007301986 0.02644497 0.02706998 0.026362 0.34681 0.160051 0.346347 0.02638095 0.379653 0.055902 0.304955 0.1256369 0.304537 0.02629399 0.324305 0.02621096 0.346874 0.160217 0.405807 0.07529395 0.379717 0.05606895 0.340203 0.343043 0.340258 0.190661 0.378097 0.224459 0.982001 0.010149 0.981993 0.1598449 0.929194 0.03617697 0.928975 0.036017 0.981774 0.159684 0.981782 0.009988963 0.886877 0.109857 0.693831 0.109857 0.761971 0.02157896 0.934621 0.2341279 0.934621 0.255032 0.787185 0.255032 0.541354 0.254807 0.541354 0.260978 0.428587 0.166513 0.541354 0.254807 0.654121 0.160342 0.654121 0.166512 0.934284 0.233866 0.94793 0.233866 0.94793 0.123048 0.886859 0.02157896 0.897052 0.02157896 0.897072 0.109857 0.934621 0.12331 0.948267 0.12331 0.948267 0.2341279 0.986226 0.009409964 0.989782 0.009409964 0.989774 0.162544 0.989757 0.162796 0.9862 0.162796 0.9862 0.009661972 0.989757 0.162796 0.989757 0.176968 0.9862 0.176968 0.989774 0.162544 0.989773 0.176717 0.986217 0.176716 0.428587 0.160342 0.428587 0.166513 0.407516 0.148505 0.934284 0.233866 0.934284 0.25477 0.94793 0.25477 0.654121 0.160342 0.675193 0.142334 0.675193 0.148505 0.886859 0.02157896 0.886786 0.004985988 0.896972 0.004985988 0.934284 0.233866 0.767092 0.233866 0.786847 0.25477 0.886859 0.02157896 0.761971 0.02157896 0.776727 0.004985988 0.948267 0.2341279 0.948267 0.255032 0.934621 0.255032 0.54308 0.241548 0.54291 0.241548 0.4779 0.1870959 0.493837 0.08225196 0.412891 0.1326439 0.412891 0.01010996 0.67344 0.01010996 0.67344 0.1326439 0.592494 0.08225196 0.592494 0.08225196 0.493837 0.08225196 0.499741 0.01010996 0.608431 0.1870959 0.543421 0.241548 0.543251 0.241548 0.543251 0.241548 0.54308 0.241548 0.493658 0.1738989 0.67344 0.1326439 0.608431 0.1870959 0.592673 0.1738989 0.493658 0.1738989 0.4779 0.1870959 0.412891 0.1326439 0.592494 0.08225196 0.592673 0.1738989 0.493658 0.1738989 0.763273 0.202785 0.694431 0.115093 0.88746 0.114908 0.896398 0.202599 0.896082 0.218795 0.886078 0.218809 0.88746 0.114908 0.897643 0.114899 0.896398 0.202599 0.886359 0.2026129 0.886078 0.218809 0.777932 0.218969 0.489561 0.417808 0.489561 0.296382 0.81403 0.296382 0.813676 0.433914 0.813676 0.554734 0.489206 0.554734 0.813975 0.417631 0.489505 0.417631 0.489505 0.296733 0.489505 0.43407 0.813975 0.43407 0.813975 0.554968 0.489684 0.290216 0.489684 0.268549 0.815161 0.268549 0.813981 0.268314 0.813981 0.290407 0.489512 0.290408 0.823012 0.312654 0.891319 0.418653 0.888887 0.418653 0.832137 0.303348 0.830296 0.306269 0.903056 0.417464 0.832137 0.53158 0.905675 0.417464 0.903056 0.417464 0.823012 0.524651 0.821302 0.521938 0.888887 0.418653</float_array>
          <technique_common>
            <accessor source="#Cottage_Cube_002-mesh-map-0-array" count="1434" stride="2">
              <param name="S" type="float"/>
              <param name="T" type="float"/>
            </accessor>
          </technique_common>
        </source>
        <vertices id="Cottage_Cube_002-mesh-vertices">
          <input semantic="POSITION" source="#Cottage_Cube_002-mesh-positions"/>
        </vertices>
        <triangles material="CottageTexture-material" count="478">
          <input semantic="VERTEX" source="#Cottage_Cube_002-mesh-vertices" offset="0"/>
          <input semantic="NORMAL" source="#Cottage_Cube_002-mesh-normals" offset="1"/>
          <input semantic="TEXCOORD" source="#Cottage_Cube_002-mesh-map-0" offset="2" set="0"/>
          <p>0 0 0 1 0 1 2 0 2 3 1 3 4 1 4 5 1 5 6 2 6 7 2 7 3 2 8 8 3 9 9 3 10 10 3 11 4 4 12 11 4 13 12 4 14 11 5 15 13 5 16 12 5 17 14 6 18 15 6 19 11 6 20 16 7 21 17 7 22 18 7 23 19 8 24 20 8 25 21 8 26 20 9 27 22 9 28 21 9 29 23 10 30 24 10 31 25 10 32 26 11 33 27 11 34 23 11 35 28 12 36 29 12 37 30 12 38 16 13 39 31 13 40 32 13 41 33 14 42 16 14 43 32 14 44 8 15 45 33 15 46 34 15 47 6 16 48 35 16 49 36 16 50 35 17 51 14 17 52 36 17 53 14 18 54 37 19 55 38 20 56 22 21 57 8 21 58 39 21 59 39 22 60 34 22 61 40 22 62 41 23 63 19 23 64 42 23 65 20 24 66 43 24 67 9 24 68 43 25 69 44 25 70 9 25 71 44 26 72 45 26 73 17 26 74 46 27 75 26 27 76 47 27 77 30 28 78 48 28 79 49 28 80 50 29 81 51 29 82 30 29 83 26 30 84 52 30 85 27 30 86 53 31 87 54 31 88 55 31 89 56 32 90 57 32 91 58 32 92 41 33 93 46 33 94 47 33 95 22 34 96 51 34 97 50 34 98 55 35 99 59 35 100 60 35 101 21 36 102 61 36 103 27 36 104 52 37 105 21 37 106 27 37 107 54 38 108 2 38 109 55 38 110 48 39 111 34 39 112 49 39 113 10 40 114 44 40 115 16 40 116 62 41 117 63 41 118 61 41 119 22 42 120 62 42 121 21 42 122 50 43 123 64 43 124 22 43 125 27 44 126 63 44 127 50 44 128 27 45 129 65 45 130 23 45 131 23 46 132 25 46 133 26 46 134 30 47 135 29 47 136 50 47 137 24 48 138 66 48 139 67 48 140 28 49 141 66 49 142 29 49 143 29 50 144 68 50 145 23 50 146 65 51 147 69 51 148 70 51 149 50 44 150 71 44 151 27 44 152 29 52 153 69 52 154 50 52 155 34 53 156 72 53 157 49 53 158 73 54 159 74 54 160 75 54 161 49 55 162 72 55 163 76 55 164 72 56 165 77 56 166 76 56 167 75 57 168 78 57 169 77 57 170 74 58 171 53 58 172 78 58 173 34 59 174 79 59 175 80 59 176 79 60 177 73 60 178 80 60 179 81 61 180 82 61 181 73 61 182 83 62 183 0 62 184 82 62 185 75 63 186 80 63 187 73 63 188 54 64 189 82 64 190 0 64 191 59 65 192 3 65 193 56 65 194 5 66 195 56 66 196 3 66 197 59 35 198 2 35 199 6 35 200 84 67 201 85 67 202 86 67 203 87 68 204 88 68 205 84 68 206 89 69 207 87 69 208 90 69 209 91 70 210 41 70 211 47 70 212 57 71 213 86 71 214 92 71 215 47 72 216 93 72 217 91 72 218 89 73 219 91 73 220 93 73 221 86 74 222 94 74 223 84 74 224 41 75 225 95 75 226 96 75 227 97 76 228 96 76 229 95 76 230 86 77 231 5 77 232 98 77 233 90 78 234 95 78 235 91 78 236 99 79 237 100 79 238 101 79 239 89 80 240 101 80 241 87 80 242 102 81 243 57 81 244 103 81 245 104 82 246 105 82 247 106 82 248 85 83 249 92 83 250 86 83 251 104 44 252 88 44 253 92 44 254 106 84 255 84 84 256 88 84 257 107 85 258 88 85 259 100 85 260 57 86 261 92 86 262 103 86 263 84 87 264 108 87 265 97 87 266 90 88 267 84 88 268 97 88 269 100 89 270 88 89 271 87 89 272 101 90 273 100 90 274 87 90 275 109 91 276 110 91 277 99 91 278 103 92 279 109 92 280 102 92 281 110 93 282 103 93 283 100 93 284 111 94 285 112 94 286 107 94 287 92 95 288 111 95 289 103 95 290 112 96 291 92 96 292 88 96 293 39 97 294 48 97 295 51 97 296 46 98 297 19 98 298 52 98 299 11 99 300 36 99 301 14 99 302 113 100 303 114 100 304 115 100 305 116 101 306 115 101 307 117 101 308 118 102 309 119 102 310 120 102 311 121 103 312 122 103 313 123 103 314 124 104 315 125 104 316 120 104 317 120 105 318 126 105 319 118 105 320 116 106 321 127 106 322 128 106 323 129 107 324 130 107 325 122 107 326 113 108 327 128 108 328 130 108 329 131 109 330 126 109 331 132 109 332 121 110 333 133 110 334 124 110 335 134 111 336 119 111 337 135 111 338 135 112 339 136 112 340 137 112 341 138 113 342 117 113 343 139 113 344 140 114 345 114 114 346 141 114 347 139 115 348 115 115 349 140 115 350 137 116 351 142 116 352 143 116 353 144 117 354 145 117 355 134 117 356 141 118 357 146 118 358 144 118 359 124 119 360 146 119 361 121 119 362 120 120 363 145 120 364 124 120 365 147 121 366 117 121 367 148 121 368 131 122 369 136 122 370 118 122 371 129 123 372 146 123 373 114 123 374 135 124 375 149 124 376 150 124 377 139 124 378 151 124 379 138 124 380 141 125 381 152 125 382 140 125 383 144 126 384 153 126 385 154 126 386 140 127 387 155 127 388 139 127 389 137 124 390 156 124 391 149 124 392 134 128 393 150 128 394 153 128 395 144 129 396 157 129 397 141 129 398 158 130 399 159 130 400 160 130 401 161 131 402 162 131 403 163 131 404 164 132 405 165 132 406 166 132 407 167 133 408 168 133 409 169 133 410 170 134 411 171 135 412 164 135 413 172 136 414 173 137 415 160 137 416 174 138 417 175 138 418 164 138 419 160 139 420 176 139 421 172 139 422 160 140 423 177 140 424 178 140 425 169 141 426 179 141 427 180 141 428 164 142 429 181 142 430 170 142 431 168 143 432 182 143 433 169 143 434 183 144 435 184 144 436 185 144 437 171 145 438 174 145 439 164 145 440 170 146 441 185 146 442 186 146 443 187 147 444 188 147 445 189 147 446 163 148 447 187 148 448 189 148 449 173 111 450 158 111 451 160 111 452 180 133 453 190 133 454 191 133 455 192 149 456 167 149 457 169 149 458 190 150 459 179 150 460 193 150 461 168 151 462 193 151 463 194 151 464 175 152 465 184 152 466 165 152 467 161 153 468 163 154 469 159 154 470 195 155 471 186 155 472 175 155 473 159 156 474 188 156 475 177 156 476 180 157 477 196 157 478 192 157 479 172 158 480 195 158 481 173 158 482 170 159 483 197 159 484 171 159 485 197 155 486 191 155 487 168 155 488 166 160 489 184 160 490 181 160 491 178 161 492 188 161 493 176 161 494 182 162 495 193 162 496 179 162 497 198 163 498 199 163 499 200 163 500 201 164 501 202 164 502 203 164 503 204 165 504 205 165 505 206 165 506 207 166 507 208 166 508 209 166 509 210 167 510 211 167 511 204 167 512 209 168 513 212 168 514 210 168 515 213 169 516 214 169 517 215 169 518 213 170 519 216 170 520 217 170 521 199 171 522 218 171 523 200 171 524 219 172 525 203 172 526 218 172 527 203 173 528 217 173 529 218 173 530 200 174 531 217 174 532 198 174 533 219 175 534 210 175 535 201 175 536 220 176 537 210 176 538 204 176 539 219 177 540 207 177 541 209 177 542 202 178 543 213 178 544 203 178 545 220 179 546 206 179 547 202 179 548 221 180 549 207 180 550 198 180 551 206 181 552 222 181 553 213 181 554 206 182 555 223 182 556 224 182 557 198 183 558 225 183 559 226 183 560 198 184 561 227 184 562 221 184 563 217 185 564 228 185 565 225 185 566 229 186 567 230 186 568 231 186 569 232 187 570 233 187 571 234 187 572 235 188 573 236 188 574 237 188 575 238 189 576 239 189 577 240 189 578 241 190 579 242 190 580 235 190 581 240 191 582 243 191 583 241 191 584 244 192 585 245 192 586 246 192 587 244 193 588 247 193 589 248 193 590 230 194 591 249 194 592 231 194 593 250 195 594 234 195 595 249 195 596 234 196 597 248 196 598 249 196 599 249 197 600 229 197 601 231 197 602 250 198 603 241 198 604 232 198 605 232 199 606 235 199 607 251 199 608 230 200 609 240 200 610 250 200 611 233 201 612 244 201 613 234 201 614 251 202 615 237 202 616 233 202 617 252 203 618 238 203 619 229 203 620 237 204 621 253 204 622 244 204 623 237 205 624 254 205 625 255 205 626 248 206 627 256 206 628 229 206 629 229 207 630 257 207 631 252 207 632 248 208 633 258 208 634 259 208 635 260 209 636 261 209 637 262 209 638 263 210 639 264 210 640 265 210 641 266 211 642 267 211 643 268 211 644 260 212 645 269 212 646 270 212 647 271 213 648 272 213 649 273 213 650 271 214 651 274 214 652 275 214 653 264 215 654 271 215 655 276 215 656 268 216 657 275 216 658 266 216 659 276 217 660 273 217 661 260 217 662 277 218 663 278 218 664 279 218 665 280 219 666 281 219 667 269 219 668 280 220 669 282 220 670 283 220 671 278 221 672 284 221 673 279 221 674 273 222 675 282 222 676 285 222 677 264 223 678 284 223 679 286 223 680 286 224 681 287 224 682 274 224 683 268 225 684 282 225 685 272 225 686 264 226 687 277 226 688 279 226 689 268 227 690 281 227 691 283 227 692 273 228 693 280 228 694 260 228 695 288 229 696 289 229 697 290 229 698 291 230 699 292 230 700 293 230 701 294 231 702 295 231 703 296 231 704 295 232 705 293 232 706 296 232 707 297 233 708 298 233 709 299 233 710 298 234 711 290 234 712 299 234 713 300 235 714 299 235 715 295 235 716 290 236 717 301 236 718 291 236 719 295 237 720 290 237 721 291 237 722 302 238 723 303 238 724 304 238 725 305 239 726 306 239 727 304 239 728 303 240 729 305 240 730 304 240 731 304 241 732 307 241 733 302 241 734 308 242 735 309 242 736 310 242 737 311 243 738 312 243 739 313 243 740 314 244 741 315 244 742 316 244 743 317 245 744 318 245 745 319 245 746 313 246 747 318 246 748 311 246 749 310 247 750 315 247 751 308 247 752 313 248 753 317 248 754 319 248 755 311 249 756 314 249 757 309 249 758 310 250 759 314 250 760 316 250 761 308 251 762 317 251 763 312 251 764 3 252 765 7 252 766 4 252 767 6 253 768 36 253 769 7 253 770 8 254 771 20 254 772 9 254 773 4 255 774 7 255 775 11 255 776 11 256 777 15 257 778 13 258 779 14 259 780 38 260 781 15 261 782 16 262 783 44 262 784 17 262 785 20 263 786 8 263 787 22 263 788 23 264 789 68 264 790 24 264 791 16 265 792 18 265 793 31 265 794 33 266 795 10 266 796 16 266 797 8 267 798 10 267 799 33 267 800 6 268 801 2 268 802 35 268 803 35 269 804 320 269 805 14 269 806 14 270 807 320 270 808 37 270 809 39 271 810 8 271 811 34 271 812 41 272 813 20 272 814 19 272 815 20 273 816 41 273 817 43 273 818 43 274 819 321 274 820 44 274 821 44 275 822 321 275 823 45 275 824 46 97 825 52 97 826 26 97 827 30 276 828 51 276 829 48 276 830 56 277 831 5 277 832 57 277 833 41 278 834 42 278 835 46 278 836 22 279 837 39 279 838 51 279 839 55 280 840 2 280 841 59 280 842 21 281 843 62 281 844 61 281 845 52 282 846 19 282 847 21 282 848 54 31 849 0 31 850 2 31 851 48 283 852 40 283 853 34 283 854 10 284 855 9 284 856 44 284 857 62 285 858 64 285 859 63 285 860 22 286 861 64 286 862 62 286 863 50 287 864 63 287 865 64 287 866 27 44 867 61 44 868 63 44 869 27 288 870 71 288 871 65 288 872 24 48 873 68 48 874 66 48 875 28 289 876 67 289 877 66 289 878 29 290 879 66 290 880 68 290 881 65 291 882 71 291 883 69 291 884 50 292 885 69 292 886 71 292 887 29 293 888 70 293 889 69 293 890 34 294 891 80 294 892 72 294 893 73 295 894 82 295 895 74 295 896 72 296 897 75 296 898 77 296 899 75 297 900 74 297 901 78 297 902 74 298 903 54 298 904 53 298 905 79 299 906 81 299 907 73 299 908 81 300 909 83 300 910 82 300 911 83 62 912 1 62 913 0 62 914 75 301 915 72 301 916 80 301 917 54 302 918 74 302 919 82 302 920 59 303 921 6 303 922 3 303 923 84 124 924 105 124 925 85 124 926 91 304 927 95 304 928 41 304 929 57 305 930 5 305 931 86 305 932 89 306 933 90 306 934 91 306 935 86 307 936 98 307 937 94 307 938 97 308 939 108 308 940 96 308 941 90 309 942 97 309 943 95 309 944 99 310 945 110 310 946 100 310 947 104 82 948 85 82 949 105 82 950 85 311 951 104 311 952 92 311 953 104 312 954 106 312 955 88 312 956 106 313 957 105 313 958 84 313 959 107 314 960 112 314 961 88 314 962 84 315 963 94 315 964 108 315 965 90 316 966 87 316 967 84 316 968 109 317 969 322 317 970 110 317 971 103 318 972 322 318 973 109 318 974 110 319 975 322 319 976 103 319 977 111 320 978 323 320 979 112 320 980 92 321 981 323 321 982 111 321 983 112 322 984 323 322 985 92 322 986 39 323 987 40 323 988 48 323 989 46 324 990 42 324 991 19 324 992 11 325 993 7 325 994 36 325 995 113 326 996 129 326 997 114 326 998 116 327 999 113 327 1000 115 327 1001 118 328 1002 136 328 1003 119 328 1004 121 329 1005 129 329 1006 122 329 1007 124 330 1008 133 330 1009 125 330 1010 120 331 1011 125 331 1012 126 331 1013 116 332 1014 147 332 1015 127 332 1016 129 333 1017 113 333 1018 130 333 1019 113 334 1020 116 334 1021 128 334 1022 131 335 1023 118 335 1024 126 335 1025 121 336 1026 123 336 1027 133 336 1028 134 337 1029 145 337 1030 119 337 1031 135 338 1032 119 338 1033 136 338 1034 138 339 1035 148 339 1036 117 339 1037 140 340 1038 115 340 1039 114 340 1040 139 341 1041 117 341 1042 115 341 1043 137 342 1044 136 342 1045 142 342 1046 144 343 1047 146 343 1048 145 343 1049 141 344 1050 114 344 1051 146 344 1052 124 345 1053 145 345 1054 146 345 1055 120 346 1056 119 346 1057 145 346 1058 147 347 1059 116 347 1060 117 347 1061 131 348 1062 142 348 1063 136 348 1064 129 349 1065 121 349 1066 146 349 1067 135 350 1068 137 350 1069 149 350 1070 139 124 1071 155 124 1072 151 124 1073 141 124 1074 157 124 1075 152 124 1076 144 124 1077 134 124 1078 153 124 1079 140 124 1080 152 124 1081 155 124 1082 137 351 1083 143 351 1084 156 351 1085 134 124 1086 135 124 1087 150 124 1088 144 124 1089 154 124 1090 157 124 1091 158 161 1092 161 161 1093 159 161 1094 161 352 1095 324 352 1096 162 352 1097 164 353 1098 175 353 1099 165 353 1100 167 354 1101 197 354 1102 168 354 1103 174 355 1104 195 355 1105 175 355 1106 160 356 1107 178 356 1108 176 356 1109 160 357 1110 159 357 1111 177 357 1112 169 358 1113 182 358 1114 179 358 1115 164 359 1116 166 359 1117 181 359 1118 168 360 1119 194 360 1120 182 360 1121 183 361 1122 181 361 1123 184 361 1124 170 362 1125 183 362 1126 185 362 1127 187 363 1128 176 363 1129 188 363 1130 163 364 1131 172 364 1132 187 364 1133 180 133 1134 325 133 1135 190 133 1136 190 365 1137 325 365 1138 179 365 1139 168 366 1140 191 366 1141 193 366 1142 175 367 1143 186 367 1144 184 367 1145 159 368 1146 163 368 1147 188 368 1148 180 157 1149 326 157 1150 196 157 1151 172 369 1152 186 369 1153 195 369 1154 170 370 1155 191 370 1156 197 370 1157 166 371 1158 165 371 1159 184 371 1160 178 372 1161 177 372 1162 188 372 1163 182 373 1164 194 373 1165 193 373 1166 198 374 1167 207 374 1168 199 374 1169 201 375 1170 220 375 1171 202 375 1172 204 376 1173 211 376 1174 205 376 1175 207 377 1176 327 377 1177 208 377 1178 210 378 1179 212 378 1180 211 378 1181 209 379 1182 208 379 1183 212 379 1184 213 380 1185 222 380 1186 214 380 1187 213 381 1188 215 381 1189 216 381 1190 199 382 1191 219 382 1192 218 382 1193 219 383 1194 201 383 1195 203 383 1196 203 384 1197 213 384 1198 217 384 1199 200 385 1200 218 385 1201 217 385 1202 219 386 1203 209 386 1204 210 386 1205 220 387 1206 201 387 1207 210 387 1208 219 388 1209 199 388 1210 207 388 1211 202 389 1212 206 389 1213 213 389 1214 220 390 1215 204 390 1216 206 390 1217 221 391 1218 327 391 1219 207 391 1220 206 392 1221 224 392 1222 222 392 1223 206 393 1224 205 393 1225 223 393 1226 198 394 1227 217 394 1228 225 394 1229 198 395 1230 226 395 1231 227 395 1232 217 396 1233 216 396 1234 228 396 1235 229 397 1236 238 397 1237 230 397 1238 232 398 1239 251 398 1240 233 398 1241 235 399 1242 242 399 1243 236 399 1244 238 400 1245 328 400 1246 239 400 1247 241 401 1248 243 401 1249 242 401 1250 240 402 1251 239 402 1252 243 402 1253 244 403 1254 253 403 1255 245 403 1256 244 404 1257 246 404 1258 247 404 1259 230 405 1260 250 405 1261 249 405 1262 250 406 1263 232 406 1264 234 406 1265 234 407 1266 244 407 1267 248 407 1268 249 408 1269 248 408 1270 229 408 1271 250 409 1272 240 409 1273 241 409 1274 232 410 1275 241 410 1276 235 410 1277 230 411 1278 238 411 1279 240 411 1280 233 412 1281 237 412 1282 244 412 1283 251 413 1284 235 413 1285 237 413 1286 252 414 1287 328 414 1288 238 414 1289 237 415 1290 255 415 1291 253 415 1292 237 416 1293 236 416 1294 254 416 1295 248 417 1296 259 417 1297 256 417 1298 229 418 1299 256 418 1300 257 418 1301 248 419 1302 247 419 1303 258 419 1304 260 420 1305 270 420 1306 261 420 1307 263 421 1308 329 421 1309 264 421 1310 266 422 1311 330 422 1312 267 422 1313 260 423 1314 280 423 1315 269 423 1316 271 424 1317 275 424 1318 272 424 1319 271 425 1320 286 425 1321 274 425 1322 264 426 1323 286 426 1324 271 426 1325 268 427 1326 272 427 1327 275 427 1328 276 428 1329 271 428 1330 273 428 1331 277 429 1332 331 429 1333 278 429 1334 280 430 1335 283 430 1336 281 430 1337 280 220 1338 285 220 1339 282 220 1340 278 431 1341 287 431 1342 284 431 1343 273 432 1344 272 432 1345 282 432 1346 264 433 1347 279 433 1348 284 433 1349 286 224 1350 284 224 1351 287 224 1352 268 434 1353 283 434 1354 282 434 1355 264 435 1356 329 435 1357 277 435 1358 268 436 1359 267 436 1360 281 436 1361 273 437 1362 285 437 1363 280 437 1364 288 438 1365 332 438 1366 289 438 1367 291 439 1368 301 439 1369 292 439 1370 294 440 1371 300 440 1372 295 440 1373 295 441 1374 291 441 1375 293 441 1376 297 442 1377 333 442 1378 298 442 1379 298 443 1380 288 444 1381 290 445 1382 300 446 1383 297 446 1384 299 446 1385 290 447 1386 289 447 1387 301 447 1388 295 448 1389 299 448 1390 290 448 1391 302 449 1392 334 449 1393 303 449 1394 305 450 1395 335 450 1396 306 450 1397 303 451 1398 336 451 1399 305 451 1400 304 452 1401 306 452 1402 307 452 1403 308 453 1404 312 453 1405 309 453 1406 311 454 1407 309 454 1408 312 454 1409 314 455 1410 317 455 1411 315 455 1412 317 456 1413 314 456 1414 318 456 1415 313 457 1416 319 457 1417 318 457 1418 310 458 1419 316 458 1420 315 458 1421 313 459 1422 312 459 1423 317 459 1424 311 460 1425 318 460 1426 314 460 1427 310 461 1428 309 461 1429 314 461 1430 308 462 1431 315 462 1432 317 462 1433</p>
        </triangles>
      </mesh>
    </geometry>
  </library_geometries>
  <library_visual_scenes>
    <visual_scene id="Scene" name="Scene">
      <node id="Spot" name="Spot" type="NODE">
        <matrix sid="transform">0.2280378 -0.6116594 0.7575431 21.37819 0.3385364 0.7793078 0.5273257 0 -0.912903 0.1362057 0.3847806 10.00672 0 0 0 1</matrix>
        <instance_light url="#Spot-light"/>
      </node>
      <node id="Cottage_Cube_002" name="Cottage_Cube.002" type="NODE">
        <matrix sid="transform">1 0 0 0 0 7.54979e-8 -1 0 0 1 7.54979e-8 0 0 0 0 1</matrix>
        <instance_geometry url="#Cottage_Cube_002-mesh" name="Cottage_Cube.002">
          <bind_material>
            <technique_common>
              <instance_material symbol="CottageTexture-material" target="#CottageTexture-material">
                <bind_vertex_input semantic="UVMap" input_semantic="TEXCOORD" input_set="0"/>
              </instance_material>
            </technique_common>
          </bind_material>
        </instance_geometry>
      </node>
    </visual_scene>
  </library_visual_scenes>
  <scene>
    <instance_visual_scene url="#Scene"/>
  </scene>
</COLLADA>