# Blender 4.1.1
# www.blender.org
mtllib cottage_w_lights.mtl
o Cottage_Cube.002
v 2.975033 4.096114 -4.302020
v 2.975033 4.674613 -4.302020
v 5.996675 4.674613 -4.517910
v 6.379800 4.674613 0.844368
v 6.490260 5.417215 2.390373
v 6.573785 4.674613 3.525717
v 6.188240 4.674613 -1.836771
v 6.333790 5.074900 0.200478
v -8.886795 4.674613 -0.292886
v -8.774415 5.074900 1.279930
v -8.875065 5.074900 -0.128770
v 6.333215 6.398950 0.192468
v 6.363205 6.580545 0.612112
v 6.282680 7.317860 -0.514939
v 6.232675 6.398950 -1.214705
v 6.282500 7.317860 -0.517476
v -8.875525 6.398950 -0.135253
v -8.825720 7.317860 0.561977
v -8.825900 7.317860 0.559440
v -8.697925 4.096115 2.350599
v -8.761600 4.674613 1.459388
v -8.761600 4.096115 1.459388
v -8.886795 4.096115 -0.292886
v -8.761600 0.338725 1.459388
v -9.459390 0.032058 1.509243
v -8.761600 0.032058 1.459388
v -8.697925 0.032058 2.350599
v -8.761600 0.659825 1.459388
v -8.886795 0.032058 -0.292886
v -8.886795 0.332894 -0.292886
v -8.950535 0.032058 -1.185017
v -8.826079 7.317860 0.556903
v -8.905710 6.580545 -0.557571
v -9.031344 5.417215 -2.315990
v -9.111540 4.674613 -3.438457
v 6.076875 5.417214 -3.395442
v 6.233140 5.074900 -1.208222
v 6.282135 7.317860 -0.522550
v 6.282320 7.317860 -0.520013
v -8.950535 4.096115 -1.185017
v -9.071501 4.096115 -2.878062
v -8.534430 4.674613 4.605168
v -8.576759 4.109359 4.046420
v -8.617960 5.417215 3.469825
v -8.774990 6.398950 1.271919
v -8.825535 7.317860 0.564513
v -8.576759 1.410416 4.046421
v -8.534430 0.032058 4.605169
v -9.071501 1.410416 -2.878062
v -9.111540 0.032058 -3.438457
v -8.886795 0.659825 -0.292886
v -8.950535 1.410416 -1.185017
v -8.697925 1.410416 2.350599
v 2.975033 0.032058 -4.302020
v 2.975033 1.410416 -4.302020
v 5.996675 0.032058 -4.517910
v 6.379800 2.659559 0.844368
v 6.573785 0.032058 3.525717
v 6.379800 0.032058 0.844368
v 6.188240 2.660516 -1.836771
v 6.188240 0.032058 -1.836771
v -8.660290 0.659825 1.452149
v -8.660290 4.096115 1.452149
v -8.785490 0.659825 -0.300124
v -8.785490 4.096115 -0.300124
v -9.159790 0.338725 1.487838
v -9.584585 0.332894 -0.243030
v -9.584585 0.032058 -0.243030
v -9.459390 0.338725 1.509243
v -9.284989 0.659825 -0.264436
v -9.284989 0.332894 -0.264436
v -9.159790 0.659825 1.487838
v -6.089900 1.410416 -3.654347
v -3.863601 4.096114 -3.813411
v 0.748735 1.410416 -4.142954
v -3.863601 1.410416 -3.813411
v -6.089900 0.032058 -3.654347
v -3.863601 0.032058 -3.813411
v 0.748735 0.032058 -4.142954
v -6.089900 4.674613 -3.654347
v -6.089900 4.096114 -3.654347
v -3.863601 4.674613 -3.813411
v 0.748735 4.096114 -4.142954
v 0.748735 4.674613 -4.142954
v 3.437004 3.790553 3.750216
v 5.124360 3.790553 3.512660
v 5.132675 3.790553 3.629065
v 3.116611 0.226932 3.773107
v 3.437004 0.470025 3.750216
v -3.284065 0.032059 4.230423
v -3.284065 1.118330 4.230423
v -5.510365 1.118330 4.389489
v 5.132675 0.470025 3.629065
v -5.510365 0.032058 4.389489
v 3.437004 4.674613 3.750216
v -5.510365 3.790553 4.389488
v -5.510365 4.674613 4.389488
v -3.284065 3.790553 4.230422
v 5.132675 4.674613 3.629065
v 3.467730 0.032059 4.180255
v 3.437004 0.241294 3.750216
v 3.437004 0.032059 3.750216
v 5.132675 0.032058 3.629065
v 5.132675 0.245789 3.629065
v 5.124360 0.470025 3.512661
v 3.428687 3.790553 3.633812
v 3.428687 0.470025 3.633812
v 3.450041 0.241294 3.932682
v -3.284065 4.674613 4.230422
v 5.163400 0.032059 4.059103
v 3.467729 0.241294 4.180254
v 5.145715 0.245789 3.811529
v 3.450041 0.470026 3.932681
v 6.665290 3.041822 -1.900573
v 7.157570 2.916399 -1.657915
v 6.697120 2.916399 -2.060091
v 6.252435 3.041822 -2.261174
v 6.236670 2.916399 -2.462266
v 6.477920 3.041822 1.230391
v 6.893045 2.916399 0.973782
v 6.840960 3.041822 0.819683
v 7.243255 3.041822 -0.572097
v 6.261010 3.899043 -0.541326
v 6.266520 3.899043 -0.509020
v 7.204000 3.041822 0.408975
v 6.253090 3.899043 -0.462566
v 6.240975 3.899043 -0.448858
v 6.226125 3.899043 -0.564924
v 6.233450 3.899043 -0.565397
v 7.078140 3.041822 -1.539971
v 6.247230 3.899043 -0.553361
v 6.258480 3.041822 1.244562
v 6.233650 3.899043 -0.448385
v 6.265210 3.899043 -0.476275
v 7.297940 2.840508 0.515723
v 6.893045 2.840508 0.973782
v 6.488150 2.916399 1.431841
v 6.488150 2.840508 1.431841
v 5.991935 2.840508 -2.446461
v 6.236670 2.840508 -2.462266
v 6.697120 2.840508 -2.060091
v 7.157570 2.840508 -1.657915
v 6.243410 2.916399 1.447645
v 6.243410 2.840508 1.447645
v 7.341720 2.840508 -0.578456
v 7.297940 2.916399 0.515723
v 7.341720 2.916399 -0.578456
v 6.033000 3.041822 -2.247004
v 5.991935 2.916399 -2.446461
v 6.549910 2.840508 0.871694
v 6.839635 2.840508 0.543932
v 6.194850 2.840508 -1.903408
v 6.699440 2.840508 -1.626942
v 7.129360 2.840508 0.216170
v 7.160685 2.840508 -0.566765
v 6.369970 2.840508 -1.914717
v 6.374795 2.840508 0.883003
v 7.028915 2.840508 -1.339167
v 6.878895 2.902246 0.618049
v 6.568795 2.566408 0.968861
v 7.188990 2.566408 0.267238
v 6.568795 2.902246 0.968861
v 6.381365 0.036541 0.980965
v 6.568795 0.036541 0.968862
v 7.185580 2.566408 -1.142815
v 7.227715 2.475604 -0.054356
v 7.161250 2.475604 -1.083537
v 6.728840 2.902246 -1.705492
v 7.081485 2.566408 -1.397479
v 6.376200 2.566408 -2.013505
v 7.185580 0.036540 -1.142815
v 7.185580 2.902246 -1.142815
v 7.188990 0.036540 0.267238
v 7.188990 2.902246 0.267238
v 7.222520 2.902246 -0.570757
v 7.259465 2.566408 0.001300
v 7.078160 0.823970 0.213939
v 6.502825 2.501028 0.864814
v 7.078160 2.501028 0.213939
v 6.335220 0.823970 -1.902551
v 6.376200 0.036540 -2.013505
v 7.161250 0.849394 -1.083537
v 6.335220 2.501028 -1.902551
v 7.185580 0.758590 -1.142815
v 7.227715 0.849394 -0.054356
v 7.259465 0.758590 0.001300
v 7.259465 0.036540 0.001300
v 7.188990 0.758590 0.267238
v 6.502825 0.823970 0.864814
v 6.568795 0.758590 0.968861
v 7.081485 0.758590 -1.397478
v 7.081485 0.036540 -1.397478
v 6.376200 2.902245 -2.013505
v 6.989490 0.823970 -1.331082
v 6.989490 2.501028 -1.331082
v 7.259465 2.902246 0.001300
v 6.188765 2.902245 -2.001400
v 7.081485 2.902246 -1.397479
v 5.369665 3.703116 4.141013
v 5.379455 3.710031 4.278020
v 5.378250 3.661279 4.261127
v 3.417925 3.710031 4.418168
v 3.305953 3.661279 4.409188
v 3.416718 3.661279 4.401274
v 3.298579 3.751867 4.305969
v 3.246821 3.949543 3.581573
v 3.297371 3.703116 4.289074
v 5.370870 3.751867 4.157907
v 5.209560 3.998293 3.458319
v 5.260110 3.751867 4.165821
v 3.409343 3.751867 4.298054
v 3.248029 3.998293 3.598468
v 3.358793 3.998293 3.590553
v 3.408135 3.703116 4.281160
v 3.364431 3.718716 3.669462
v 3.357586 3.949543 3.573659
v 5.208350 3.949543 3.441426
v 5.258900 3.703116 4.148927
v 5.267485 3.661279 4.269041
v 5.268690 3.710031 4.285934
v 3.307160 3.710031 4.426082
v 5.319115 3.949543 3.433511
v 3.368316 3.545021 3.723847
v 3.253666 3.718716 3.677376
v 3.257552 3.545021 3.731761
v 5.219085 3.545021 3.591614
v 5.329845 3.545021 3.583699
v 5.325960 3.718716 3.529315
v 5.215195 3.718716 3.537229
v -9.265525 4.067041 1.663076
v -9.402534 4.073956 1.672864
v -9.385640 4.025206 1.671658
v -9.542680 4.073956 -0.288666
v -9.533700 4.025206 -0.400637
v -9.525784 4.025206 -0.289873
v -9.430480 4.115792 -0.408012
v -8.706085 4.313468 -0.459769
v -9.413589 4.067041 -0.409219
v -9.282420 4.115792 1.664283
v -8.582829 4.362219 1.502969
v -9.290335 4.115792 1.553518
v -9.422565 4.115792 -0.297248
v -8.722980 4.362219 -0.458562
v -8.715065 4.362219 -0.347797
v -9.405675 4.067041 -0.298455
v -8.793975 4.082643 -0.342159
v -8.698170 4.313468 -0.349004
v -8.565940 4.313468 1.501762
v -9.273439 4.067041 1.552311
v -9.393555 4.025206 1.560893
v -9.410445 4.073956 1.562100
v -9.550594 4.073956 -0.399430
v -8.558024 4.313468 1.612527
v -8.848360 3.908947 -0.338274
v -8.801889 4.082643 -0.452924
v -8.856275 3.908947 -0.449038
v -8.708210 3.908947 1.623257
v -8.653830 4.082643 1.619371
v -8.661739 4.082643 1.508606
v -8.716125 3.908947 1.512492
v -2.622576 6.016580 3.948542
v -2.650875 4.851855 3.552460
v -2.622576 4.851855 3.948542
v -0.180567 4.851855 3.375962
v -0.152268 6.016580 3.772043
v -0.152268 4.851855 3.772043
v -1.387422 7.119360 3.860292
v -2.785316 6.084195 1.670809
v -2.622576 6.084195 3.948542
v -2.996881 5.819250 1.956439
v -2.785316 6.016580 1.670809
v -1.374140 7.051740 4.046192
v -2.609293 6.084195 4.134440
v -2.609293 6.016580 4.134440
v -0.138986 6.084195 3.957942
v -1.374140 7.119360 4.046192
v -1.387422 7.051740 3.860292
v -0.064984 5.819250 1.746961
v 0.078526 5.886870 3.755553
v 0.078526 5.819250 3.755553
v -2.853370 5.819250 3.965031
v -2.996881 5.886870 1.956439
v -2.840089 5.886870 4.150930
v -2.853370 5.886870 3.965031
v 0.091808 5.819250 3.941452
v -2.840089 5.819250 4.150930
v -0.138986 6.016580 3.957942
v 0.091808 5.886870 3.941452
v -1.388229 7.051740 3.860349
v -2.006210 6.534160 3.904504
v -1.856812 6.408725 3.893829
v -1.855114 5.537585 3.893708
v -2.622576 4.851855 3.948542
v -1.799140 4.851855 3.889709
v -0.152268 4.851855 3.772043
v -0.919730 5.537585 3.826877
v -0.975704 4.851855 3.830876
v -0.768634 6.534160 3.816082
v -1.386615 7.051740 3.860234
v -0.918032 6.408725 3.826756
v -0.152268 6.016580 3.772043
v -2.622576 6.016580 3.948542
v -0.315008 6.084195 1.494310
v -1.387422 7.119360 3.860292
v -0.152268 6.084195 3.772043
v -0.138986 6.084195 3.957942
v 0.078526 5.886870 3.755553
v -0.064984 5.886870 1.746961
v -9.623670 4.390411 -4.003127
v 6.760030 7.368935 -0.539830
v 6.430630 4.390411 -5.150176
v 7.089430 4.390412 4.070514
v -9.294270 7.368935 0.607218
v -8.964869 4.390412 5.217565
v 6.760030 7.262870 -0.539830
v -9.615240 4.315827 -3.885131
v 6.439060 4.315827 -5.032180
v -9.294270 7.262870 0.607218
v 7.081000 4.315828 3.952519
v -8.973300 4.315828 5.099569
v 6.202510 6.580545 -1.637025
v -8.745009 6.580545 1.691564
v 5.163400 0.245789 4.059103
v 5.145715 0.470026 3.811529
v 6.381365 2.902246 0.980965
v 6.376200 0.758590 -2.013505
v 6.188765 0.036540 -2.001400
v 5.320325 3.998293 3.450406
v -8.574920 4.362219 1.613734
v -0.315008 6.016580 1.494310
v -1.638936 7.119360 0.340058
v -0.064984 5.886870 1.746961
v -1.389843 7.051740 3.860466
v -1.385001 7.051740 3.860119
v -1.638936 7.119360 0.340058
v 0.091808 5.886870 3.941452
v -1.374140 7.119360 4.046192
vn -0.0713 -0.0000 -0.9975
vn 0.9974 0.0019 -0.0722
vn 0.9975 -0.0000 -0.0713
vn -0.9975 -0.0000 0.0713
vn -0.9975 -0.0003 0.0712
vn 0.0713 -0.0000 0.9975
vn 0.9975 -0.0003 -0.0712
vn -0.9975 0.0043 0.0712
vn -0.9975 -0.0007 0.0713
vn -0.9974 -0.0013 0.0723
vn 0.9974 -0.0000 -0.0722
vn -0.9971 -0.0000 0.0755
vn -0.0000 -1.0000 -0.0000
vn -0.0000 1.0000 -0.0000
vn -0.0002 1.0000 -0.0033
vn 0.0711 -0.0000 0.9975
vn 0.0715 -0.0000 0.9974
vn -0.9975 -0.0000 0.0712
vn -0.0026 1.0000 0.0002
vn 0.4371 0.7474 -0.5004
vn 0.4978 0.7474 0.4400
vn 0.6515 0.7505 -0.1111
vn 0.4147 0.8328 0.3666
vn -0.0291 0.8919 -0.4512
vn 0.3642 0.8328 -0.4169
vn 0.3641 0.8328 -0.4169
vn 0.0291 0.8919 0.4513
vn 0.6604 0.7505 0.0264
vn 0.7492 -0.0000 0.6623
vn -0.0644 -0.0000 -0.9979
vn 0.6578 -0.0000 -0.7532
vn 0.0644 -0.0000 0.9979
vn 0.9992 -0.0000 0.0400
vn 0.9858 -0.0000 -0.1682
vn 0.7870 0.6162 0.0315
vn -0.0340 0.8492 -0.5270
vn 0.0340 0.8492 0.5270
vn 0.7764 0.6162 -0.1324
vn 0.9533 -0.2956 -0.0616
vn 1.0000 -0.0000 -0.0000
vn -1.0000 -0.0000 -0.0000
vn 0.9979 -0.0000 -0.0644
vn -0.4334 -0.0000 0.9012
vn 0.3623 -0.8753 0.3203
vn 0.9381 -0.0000 0.3465
vn 0.9251 -0.0000 0.3797
vn 0.3349 -0.8607 -0.3835
vn 0.9533 0.2956 -0.0616
vn 0.3623 0.8753 0.3203
vn 0.3349 0.8607 -0.3835
vn -0.5852 -0.0000 -0.8109
vn 0.8686 -0.0000 -0.4955
vn -0.0000 -0.0000 1.0000
vn 0.8445 -0.0000 -0.5355
vn 0.9666 -0.0000 0.2562
vn 0.9257 -0.0000 -0.3784
vn 0.0673 -0.3282 0.9422
vn 0.0234 0.9446 0.3273
vn -0.0234 -0.9446 -0.3273
vn 0.0194 -0.9622 0.2716
vn -0.9422 -0.3282 0.0673
vn -0.3273 0.9446 0.0234
vn 0.3273 -0.9446 -0.0234
vn -0.9422 -0.3281 0.0673
vn -0.2716 -0.9622 0.0194
vn -0.6397 0.7672 0.0457
vn 0.6472 -0.7609 -0.0462
vn -0.6397 -0.7672 0.0457
vn 0.6397 -0.7672 -0.0457
vn -0.6472 -0.7609 0.0462
vn -0.6472 0.7609 0.0462
vn 0.6397 0.7672 -0.0457
vn 0.6472 0.7609 -0.0462
vn -0.0386 0.8406 -0.5403
vn 0.0386 0.8406 0.5403
vn 0.0390 -0.8368 0.5461
vn -0.0390 -0.8368 -0.5461
vn 0.0380 -0.8459 0.5320
vn -0.0380 -0.8459 -0.5320
vn 0.9975 -0.0000 -0.0711
vn 0.9975 0.0003 -0.0712
vn -0.9975 0.0001 0.0713
vn -0.9974 0.0012 0.0720
vn -0.9974 -0.0021 0.0720
vn 0.4147 0.8328 0.3667
vn 0.4148 0.8328 0.3666
vn 0.0291 0.8919 0.4512
vn 0.7869 0.6162 0.0315
vn 0.9975 -0.0001 -0.0713
vn -0.3274 0.9446 0.0234
vn 0.0718 -0.0006 0.9974
vn 0.0709 -0.0008 0.9975
vn 0.0708 -0.0000 0.9975
vt 0.102892 0.659234
vt 0.102892 0.677529
vt 0.012336 0.677529
vt 0.392168 0.873631
vt 0.340024 0.902668
vt 0.301725 0.873631
vt 0.482598 0.873631
vt 0.413885 0.889283
vt 0.120339 0.874156
vt 0.173515 0.889846
vt 0.125887 0.889846
vt 0.414155 0.941055
vt 0.400001 0.948156
vt 0.438015 0.976985
vt 0.461616 0.941055
vt 0.438100 0.976985
vt 0.125668 0.941743
vt 0.149241 0.977760
vt 0.149155 0.977760
vt 0.209714 0.851482
vt 0.179582 0.874156
vt 0.179582 0.851482
vt 0.120339 0.851482
vt 0.153291 0.353313
vt 0.064472 0.296428
vt 0.153291 0.296428
vt 0.209714 0.692189
vt 0.179582 0.716795
vt 0.179582 0.704209
vt 0.120339 0.692189
vt 0.120339 0.703980
vt 0.090176 0.692189
vt 0.149070 0.977760
vt 0.111390 0.948860
vt 0.051939 0.903263
vt 0.013989 0.874156
vt 0.535169 0.902668
vt 0.461398 0.889283
vt 0.438271 0.976985
vt 0.438186 0.976985
vt 0.090176 0.851482
vt 0.032935 0.851482
vt 0.285945 0.874156
vt 0.267048 0.852001
vt 0.247554 0.903263
vt 0.173244 0.941743
vt 0.149327 0.977760
vt 0.267048 0.746215
vt 0.285945 0.692189
vt 0.032935 0.746215
vt 0.013989 0.692189
vt 0.120339 0.716795
vt 0.090176 0.746215
vt 0.209714 0.746215
vt 0.102892 0.530709
vt 0.102892 0.574299
vt 0.012336 0.530709
vt 0.392168 0.794840
vt 0.301725 0.692101
vt 0.392168 0.692101
vt 0.573027 0.692101
vt 0.482598 0.794877
vt 0.482598 0.692101
vt 0.185903 0.847161
vt 0.182654 0.717829
vt 0.185903 0.717829
vt 0.421769 0.493505
vt 0.369634 0.496694
vt 0.369634 0.493505
vt 0.117817 0.719001
vt 0.114568 0.848334
vt 0.117817 0.848334
vt 0.285033 0.249236
vt 0.288624 0.353779
vt 0.285033 0.353779
vt 0.061601 0.353599
vt 0.010917 0.293105
vt 0.061601 0.293105
vt 0.179582 0.692189
vt 0.246184 0.353780
vt 0.203947 0.249236
vt 0.246184 0.249236
vt 0.064315 0.353402
vt 0.153134 0.296386
vt 0.064315 0.296386
vt 0.270918 0.353781
vt 0.270918 0.249236
vt 0.202310 0.353780
vt 0.157228 0.249236
vt 0.203128 0.249236
vt 0.010917 0.292972
vt 0.061601 0.353616
vt 0.010917 0.353616
vt 0.465114 0.677529
vt 0.374559 0.574299
vt 0.465114 0.530709
vt 0.307839 0.659234
vt 0.169611 0.574299
vt 0.307839 0.574299
vt 0.374559 0.530709
vt 0.307839 0.530709
vt 0.169611 0.530709
vt 0.374559 0.677529
vt 0.374559 0.659234
vt 0.307839 0.677529
vt 0.169611 0.659234
vt 0.169611 0.677529
vt 0.573027 0.873631
vt 0.359676 0.510327
vt 0.428152 0.505073
vt 0.428152 0.510327
vt 0.360946 0.378542
vt 0.370548 0.386230
vt 0.370548 0.491242
vt 0.169124 0.372380
vt 0.169124 0.406733
vt 0.102404 0.406733
vt 0.011777 0.519200
vt 0.011777 0.372380
vt 0.464555 0.372380
vt 0.421366 0.491242
vt 0.421366 0.386230
vt 0.102404 0.372380
vt 0.370548 0.519200
vt 0.102404 0.491242
vt 0.102404 0.519200
vt 0.169124 0.491242
vt 0.464555 0.519200
vt 0.421366 0.519200
vt 0.018529 0.242105
vt 0.099091 0.200351
vt 0.099090 0.242105
vt 0.370548 0.372380
vt 0.421366 0.372380
vt 0.421366 0.379139
vt 0.367481 0.489662
vt 0.364280 0.386348
vt 0.364280 0.489662
vt 0.263413 0.243464
vt 0.273417 0.147144
vt 0.273417 0.243464
vt 0.427765 0.386887
vt 0.424564 0.490200
vt 0.424564 0.386887
vt 0.104219 0.242756
vt 0.138401 0.198656
vt 0.138401 0.242756
vt 0.169124 0.519200
vt 0.370548 0.378997
vt 0.226455 0.243465
vt 0.186192 0.147144
vt 0.226455 0.147144
vt 0.099463 0.242089
vt 0.018901 0.200274
vt 0.099463 0.200274
vt 0.263413 0.147144
vt 0.226455 0.243468
vt 0.142178 0.147144
vt 0.185327 0.243465
vt 0.141313 0.243465
vt 0.138195 0.242703
vt 0.104013 0.198833
vt 0.138195 0.198833
vt 0.289098 0.147144
vt 0.909978 0.930907
vt 0.885750 0.888833
vt 0.923878 0.927188
vt 0.944165 0.965297
vt 0.962007 0.965542
vt 0.634650 0.965297
vt 0.654936 0.927188
vt 0.668837 0.930907
vt 0.789407 0.887459
vt 0.792290 0.974345
vt 0.789407 0.974043
vt 0.703024 0.896517
vt 0.785383 0.975493
vt 0.784242 0.976641
vt 0.794573 0.977290
vt 0.794573 0.976641
vt 0.875791 0.896517
vt 0.793432 0.975493
vt 0.634650 0.984749
vt 0.784242 0.977290
vt 0.786524 0.974345
vt 0.858900 0.874405
vt 0.913137 0.869425
vt 0.913137 0.874405
vt 0.967374 0.869425
vt 0.967374 0.874404
vt 0.584586 0.874405
vt 0.611155 0.869425
vt 0.611155 0.874405
vt 0.665394 0.874405
vt 0.719634 0.869425
vt 0.719634 0.874405
vt 0.665395 0.869425
vt 0.993942 0.869425
vt 0.993942 0.874404
vt 0.789267 0.874405
vt 0.858900 0.869425
vt 0.789267 0.869425
vt 0.789407 0.878730
vt 0.693065 0.888833
vt 0.944165 0.984749
vt 0.962007 0.987237
vt 0.616808 0.965542
vt 0.940904 0.298655
vt 0.914716 0.308322
vt 0.938907 0.332372
vt 0.907082 0.569332
vt 0.901021 0.526053
vt 0.887958 0.569331
vt 0.974704 0.502116
vt 0.938899 0.502006
vt 0.940893 0.535724
vt 0.983613 0.417191
vt 0.963098 0.356423
vt 0.969467 0.417191
vt 0.914705 0.526054
vt 0.907097 0.265043
vt 0.901032 0.308321
vt 0.974712 0.332266
vt 0.963092 0.477958
vt 0.662645 0.860217
vt 0.616796 0.827195
vt 0.708494 0.827195
vt 0.616796 0.860216
vt 0.602572 0.578439
vt 0.616796 0.578439
vt 0.848312 0.826765
vt 0.741747 0.817878
vt 0.842677 0.817878
vt 0.920966 0.859590
vt 0.875145 0.826718
vt 0.966788 0.826726
vt 0.580579 0.571495
vt 0.792212 0.859632
vt 0.736111 0.826765
vt 0.702283 0.655865
vt 0.708494 0.578440
vt 0.622251 0.820766
vt 0.702283 0.820766
vt 0.960953 0.656121
vt 0.966788 0.579133
vt 0.842677 0.658730
vt 0.848312 0.579180
vt 0.960952 0.820251
vt 0.848312 0.649843
vt 0.741747 0.658730
vt 0.736111 0.649843
vt 0.848312 0.859632
vt 0.736111 0.579180
vt 0.708494 0.649437
vt 0.622252 0.655865
vt 0.616796 0.649437
vt 0.708494 0.860217
vt 0.875145 0.649790
vt 0.875145 0.579125
vt 0.966788 0.859594
vt 0.879941 0.656113
vt 0.879941 0.820244
vt 0.979985 0.859504
vt 0.710583 0.579180
vt 0.736111 0.859632
vt 0.710583 0.859632
vt 0.873840 0.859632
vt 0.346874 0.160217
vt 0.337766 0.182942
vt 0.346953 0.182910
vt 0.053471 0.015756
vt 0.039642 0.009374
vt 0.053471 0.009374
vt 0.337623 0.160082
vt 0.346347 0.026381
vt 0.346810 0.160051
vt 0.297277 0.038382
vt 0.283549 0.126067
vt 0.283549 0.038382
vt 0.054172 0.038382
vt 0.040444 0.126067
vt 0.040444 0.038382
vt 0.054172 0.126067
vt 0.340203 0.343043
vt 0.378097 0.224459
vt 0.340258 0.190661
vt 0.054597 0.038393
vt 0.283975 0.126079
vt 0.283975 0.038393
vt 0.298358 0.015756
vt 0.284529 0.009374
vt 0.298358 0.009374
vt 0.284529 0.015756
vt 0.054597 0.023507
vt 0.283975 0.023507
vt 0.297702 0.023507
vt 0.297702 0.038393
vt 0.283549 0.023496
vt 0.054172 0.023495
vt 0.040444 0.023495
vt 0.040870 0.023507
vt 0.337701 0.182776
vt 0.346888 0.182744
vt 0.346412 0.026548
vt 0.337687 0.160249
vt 0.007720 0.125788
vt 0.027070 0.026362
vt 0.027488 0.125705
vt 0.379653 0.055902
vt 0.405742 0.075128
vt 0.324723 0.125554
vt 0.304537 0.026294
vt 0.324305 0.026211
vt 0.379717 0.056069
vt 0.407755 0.246489
vt 0.297277 0.023496
vt 0.304955 0.125637
vt 0.982001 0.010149
vt 0.929194 0.036177
vt 0.929195 0.010146
vt 0.928975 0.036017
vt 0.981782 0.009989
vt 0.928976 0.009986
vt 0.886877 0.109857
vt 0.761971 0.021579
vt 0.886859 0.021579
vt 0.934621 0.234128
vt 0.787185 0.255032
vt 0.767429 0.234128
vt 0.541354 0.254807
vt 0.428587 0.166513
vt 0.428587 0.160342
vt 0.654121 0.166512
vt 0.541354 0.260978
vt 0.934284 0.233866
vt 0.947930 0.123048
vt 0.934284 0.123048
vt 0.897072 0.109857
vt 0.934621 0.123310
vt 0.948267 0.234128
vt 0.986226 0.009410
vt 0.989774 0.162544
vt 0.986217 0.162544
vt 0.989757 0.162796
vt 0.986200 0.009662
vt 0.989756 0.009662
vt 0.986200 0.176968
vt 0.986200 0.162796
vt 0.986217 0.176716
vt 0.407516 0.148505
vt 0.407516 0.142334
vt 0.947930 0.254770
vt 0.947930 0.233866
vt 0.654121 0.160342
vt 0.675193 0.148505
vt 0.896972 0.004986
vt 0.897052 0.021579
vt 0.786847 0.254770
vt 0.934284 0.254770
vt 0.776727 0.004986
vt 0.886786 0.004986
vt 0.934621 0.255032
vt 0.543080 0.241548
vt 0.477900 0.187096
vt 0.493658 0.173899
vt 0.493837 0.082252
vt 0.412891 0.010110
vt 0.499741 0.010110
vt 0.673440 0.010110
vt 0.592494 0.082252
vt 0.586590 0.010110
vt 0.608431 0.187096
vt 0.543251 0.241548
vt 0.592673 0.173899
vt 0.673440 0.132644
vt 0.412891 0.132644
vt 0.763273 0.202785
vt 0.887460 0.114908
vt 0.886359 0.202613
vt 0.896398 0.202599
vt 0.886078 0.218809
vt 0.777932 0.218969
vt 0.489561 0.417808
vt 0.814030 0.296382
vt 0.814030 0.417808
vt 0.813676 0.433914
vt 0.489206 0.554734
vt 0.489206 0.433914
vt 0.813975 0.417631
vt 0.489505 0.296733
vt 0.813975 0.296733
vt 0.489505 0.434070
vt 0.813975 0.554968
vt 0.489505 0.554968
vt 0.489684 0.290216
vt 0.815161 0.268549
vt 0.815161 0.290216
vt 0.813981 0.268314
vt 0.489512 0.290408
vt 0.489512 0.268314
vt 0.823012 0.312654
vt 0.888887 0.418653
vt 0.821302 0.315367
vt 0.832137 0.303348
vt 0.903056 0.417464
vt 0.905675 0.417464
vt 0.832137 0.531580
vt 0.830296 0.528659
vt 0.823012 0.524651
vt 0.891319 0.418653
vt 0.064472 0.353313
vt 0.475861 0.948156
vt 0.187432 0.948860
vt 0.182654 0.847161
vt 0.421769 0.496694
vt 0.114568 0.719001
vt 0.288624 0.249236
vt 0.010917 0.353599
vt 0.203128 0.353780
vt 0.153134 0.353402
vt 0.246184 0.353781
vt 0.157228 0.353780
vt 0.270918 0.353779
vt 0.061601 0.292972
vt 0.359676 0.505073
vt 0.018529 0.200351
vt 0.367481 0.386348
vt 0.427765 0.490200
vt 0.104219 0.198656
vt 0.018901 0.242089
vt 0.263413 0.243468
vt 0.185327 0.147144
vt 0.104013 0.242703
vt 0.289098 0.243464
vt 0.584586 0.869425
vt 0.616808 0.987237
vt 0.887973 0.265043
vt 0.602571 0.860216
vt 0.875145 0.859586
vt 0.966788 0.649798
vt 0.979985 0.579043
vt 0.873840 0.579180
vt 0.039642 0.015756
vt 0.337160 0.026413
vt 0.297277 0.126067
vt 0.054597 0.126079
vt 0.040870 0.038393
vt 0.337224 0.026580
vt 0.007302 0.026445
vt 0.405807 0.075294
vt 0.981993 0.159845
vt 0.981774 0.159684
vt 0.693831 0.109857
vt 0.948267 0.123310
vt 0.989782 0.009410
vt 0.989757 0.176968
vt 0.989773 0.176717
vt 0.675193 0.142334
vt 0.767092 0.233866
vt 0.948267 0.255032
vt 0.542910 0.241548
vt 0.543421 0.241548
vt 0.694431 0.115093
vt 0.896082 0.218795
vt 0.897643 0.114899
vt 0.489561 0.296382
vt 0.813676 0.554734
vt 0.489505 0.417631
vt 0.813975 0.434070
vt 0.489684 0.268549
vt 0.813981 0.290407
vt 0.830296 0.306269
vt 0.821302 0.521938
s 0
usemtl CottageTexture
f 1/1/1 2/2/1 3/3/1
f 4/4/2 5/5/2 6/6/2
f 7/7/3 8/8/3 4/4/3
f 9/9/4 10/10/4 11/11/4
f 5/5/3 12/12/3 13/13/3
f 12/12/3 14/14/3 13/13/3
f 15/15/3 16/16/3 12/12/3
f 17/17/5 18/18/5 19/19/5
f 20/20/4 21/21/4 22/22/4
f 21/21/4 23/23/4 22/22/4
f 24/24/6 25/25/6 26/26/6
f 27/27/4 28/28/4 24/29/4
f 29/30/4 30/31/4 31/32/4
f 17/17/4 32/33/4 33/34/4
f 34/35/4 17/17/4 33/34/4
f 9/9/4 34/35/4 35/36/4
f 7/7/3 36/37/3 37/38/3
f 36/37/3 15/15/3 37/38/3
f 15/15/7 38/39/7 39/40/7
f 23/23/4 9/9/4 40/41/4
f 40/41/4 35/36/4 41/42/4
f 42/43/8 20/20/8 43/44/8
f 21/21/4 44/45/4 10/10/4
f 44/45/4 45/46/4 10/10/4
f 45/46/9 46/47/9 18/18/9
f 47/48/10 27/27/10 48/49/10
f 31/32/4 49/50/4 50/51/4
f 51/52/4 52/53/4 31/32/4
f 27/27/4 53/54/4 28/28/4
f 54/55/1 55/56/1 56/57/1
f 57/58/11 58/59/11 59/60/11
f 42/43/12 47/48/12 48/49/12
f 23/23/4 52/53/4 51/52/4
f 56/61/3 60/62/3 61/63/3
f 22/64/1 62/65/1 28/66/1
f 53/54/4 22/22/4 28/28/4
f 55/56/1 3/3/1 56/57/1
f 49/50/4 35/36/4 50/51/4
f 11/11/4 45/46/4 17/17/4
f 63/22/4 64/52/4 62/28/4
f 23/67/13 63/68/13 22/69/13
f 51/70/6 65/71/6 23/72/6
f 28/73/14 64/74/14 51/75/14
f 28/76/6 66/77/6 24/78/6
f 24/29/4 26/79/4 27/27/4
f 31/32/4 30/31/4 51/52/4
f 25/80/4 67/81/4 68/82/4
f 29/83/1 67/84/1 30/85/1
f 30/86/15 69/82/15 24/87/15
f 66/88/4 70/89/4 71/90/4
f 51/75/14 72/87/14 28/73/14
f 30/91/1 70/92/1 51/93/1
f 35/94/1 73/95/1 50/96/1
f 74/97/1 75/98/1 76/99/1
f 50/96/1 73/95/1 77/100/1
f 73/95/1 78/101/1 77/100/1
f 76/99/1 79/102/1 78/101/1
f 75/98/1 54/55/1 79/102/1
f 35/94/1 80/103/1 81/104/1
f 80/103/1 74/97/1 81/104/1
f 82/105/1 83/106/1 74/97/1
f 84/107/1 1/1/1 83/106/1
f 76/99/1 81/104/1 74/97/1
f 55/56/1 83/106/1 1/1/1
f 60/62/3 4/4/3 57/58/3
f 6/6/11 57/58/11 4/4/11
f 60/62/3 3/108/3 7/7/3
f 85/109/13 86/110/13 87/111/13
f 88/112/6 89/113/6 85/114/6
f 90/115/6 88/112/6 91/116/6
f 92/117/16 42/118/16 48/119/16
f 58/120/17 87/121/17 93/122/17
f 48/119/16 94/123/16 92/117/16
f 90/115/6 92/117/6 94/123/6
f 87/121/6 95/124/6 85/114/6
f 42/118/16 96/125/16 97/126/16
f 98/127/6 97/126/6 96/125/6
f 87/121/17 6/128/17 99/129/17
f 91/116/6 96/125/6 92/117/6
f 100/130/4 101/131/4 102/132/4
f 90/115/6 102/133/6 88/112/6
f 103/134/17 58/120/17 104/135/17
f 105/122/6 106/114/6 107/113/6
f 86/136/18 93/137/18 87/138/18
f 105/139/14 89/140/14 93/141/14
f 107/142/3 85/143/3 89/144/3
f 108/145/4 89/146/4 101/147/4
f 58/120/17 93/122/17 104/135/17
f 85/114/6 109/148/6 98/127/6
f 91/116/6 85/114/6 98/127/6
f 101/149/6 89/113/6 88/112/6
f 102/133/6 101/149/6 88/112/6
f 110/150/6 111/151/6 100/152/6
f 104/153/3 110/154/3 103/155/3
f 111/156/19 104/157/19 101/152/19
f 112/158/6 113/159/6 108/160/6
f 93/161/3 112/162/3 104/163/3
f 113/164/14 93/141/14 89/140/14
f 40/41/4 49/50/4 52/53/4
f 47/48/4 20/20/4 53/54/4
f 12/12/3 37/38/3 15/15/3
f 114/165/20 115/166/20 116/167/20
f 117/168/20 116/167/20 118/169/20
f 119/170/21 120/171/21 121/172/21
f 122/173/22 123/174/22 124/175/22
f 125/176/23 126/177/23 121/172/23
f 121/172/23 127/178/23 119/170/23
f 117/168/24 128/179/24 129/180/24
f 130/181/25 131/182/25 123/174/25
f 114/165/26 129/180/26 131/182/26
f 132/183/27 127/178/27 133/184/27
f 122/173/28 134/185/28 125/176/28
f 135/186/29 120/187/29 136/188/29
f 136/188/29 137/189/29 138/190/29
f 139/191/30 118/192/30 140/193/30
f 141/194/31 115/195/31 142/196/31
f 140/193/31 116/197/31 141/194/31
f 138/190/32 143/198/32 144/199/32
f 145/200/33 146/201/33 135/186/33
f 142/196/34 147/202/34 145/200/34
f 125/176/35 147/203/35 122/173/35
f 121/172/21 146/204/21 125/176/21
f 148/205/36 118/169/36 149/206/36
f 132/183/37 137/207/37 119/170/37
f 130/181/38 147/203/38 115/166/38
f 136/208/13 150/209/13 151/210/13
f 140/211/13 152/212/13 139/213/13
f 142/214/13 153/215/13 141/216/13
f 145/217/13 154/218/13 155/219/13
f 141/216/13 156/220/13 140/211/13
f 138/221/13 157/222/13 150/209/13
f 135/223/13 151/210/13 154/218/13
f 145/217/13 158/224/13 142/214/13
f 159/225/29 160/226/29 161/227/29
f 162/228/32 163/229/32 164/230/32
f 165/231/39 166/232/39 167/233/39
f 168/234/31 169/235/31 170/236/31
f 171/237/40 172/237/40 165/237/40
f 173/237/41 174/237/41 161/237/41
f 175/238/42 176/239/42 165/231/42
f 161/227/43 177/240/43 173/241/43
f 161/227/44 178/242/44 179/243/44
f 170/236/45 180/244/45 181/245/45
f 165/231/46 182/246/46 171/247/46
f 169/235/47 183/248/47 170/236/47
f 184/249/48 185/250/48 186/251/48
f 172/252/42 175/238/42 165/231/42
f 171/247/42 186/251/42 187/253/42
f 188/254/49 189/255/49 190/256/49
f 164/230/29 188/254/29 190/256/29
f 174/257/29 159/225/29 161/227/29
f 181/245/31 191/258/31 192/259/31
f 193/260/31 168/234/31 170/236/31
f 191/258/50 180/244/50 194/261/50
f 169/235/51 194/261/51 195/262/51
f 176/239/52 185/250/52 166/232/52
f 162/237/41 164/237/41 160/237/41
f 196/237/53 187/237/53 176/237/53
f 160/226/54 189/255/54 178/242/54
f 181/245/30 197/263/30 193/260/30
f 173/264/55 196/265/55 174/266/55
f 171/247/56 198/267/56 172/252/56
f 198/237/53 192/237/53 169/237/53
f 167/233/42 185/250/42 182/246/42
f 179/243/29 189/255/29 177/240/29
f 183/248/31 194/261/31 180/244/31
f 199/268/3 200/269/3 201/270/3
f 202/271/57 203/272/57 204/273/57
f 205/274/4 206/275/4 207/276/4
f 208/277/58 209/278/58 210/279/58
f 211/280/58 212/281/58 205/282/58
f 210/279/58 213/283/58 211/280/58
f 214/284/3 215/285/3 216/286/3
f 214/287/59 217/288/59 218/289/59
f 200/290/57 219/291/57 201/292/57
f 220/293/57 204/273/57 219/291/57
f 204/294/59 218/289/59 219/295/59
f 201/296/59 218/289/59 199/297/59
f 220/298/58 211/280/58 202/299/58
f 221/300/58 211/280/58 205/282/58
f 220/298/58 208/277/58 210/279/58
f 203/301/59 214/287/59 204/294/59
f 221/302/4 207/276/4 203/303/4
f 222/304/3 208/305/3 199/268/3
f 207/306/60 223/307/60 214/308/60
f 207/276/4 224/309/4 225/310/4
f 199/311/60 226/312/60 227/313/60
f 199/268/3 228/314/3 222/304/3
f 218/284/4 229/285/4 226/315/4
f 230/268/6 231/269/6 232/270/6
f 233/271/61 234/272/61 235/273/61
f 236/274/1 237/275/1 238/276/1
f 239/277/62 240/278/62 241/279/62
f 242/280/62 243/281/62 236/282/62
f 241/279/62 244/283/62 242/280/62
f 245/284/6 246/285/6 247/286/6
f 245/287/63 248/288/63 249/289/63
f 231/290/61 250/291/61 232/292/61
f 251/293/64 235/273/64 250/291/64
f 235/294/63 249/289/63 250/295/63
f 250/295/63 230/297/63 232/296/63
f 251/298/62 242/280/62 233/299/62
f 233/299/62 236/282/62 252/300/62
f 231/316/62 241/279/62 251/298/62
f 234/301/63 245/287/63 235/294/63
f 252/302/1 238/276/1 234/303/1
f 253/304/6 239/305/6 230/268/6
f 238/306/65 254/307/65 245/308/65
f 238/276/1 255/309/1 256/310/1
f 249/317/65 257/313/65 230/311/65
f 230/268/6 258/314/6 253/304/6
f 249/284/1 259/285/1 260/315/1
f 261/318/4 262/319/4 263/320/4
f 264/321/3 265/322/3 266/323/3
f 267/324/66 268/325/66 269/326/66
f 261/327/67 270/328/67 271/329/67
f 272/330/6 273/331/6 274/332/6
f 272/330/6 275/333/6 276/334/6
f 265/335/68 272/336/68 277/337/68
f 269/326/66 276/338/66 267/324/66
f 277/339/69 274/340/69 261/327/69
f 278/341/3 279/342/3 280/343/3
f 281/344/4 282/345/4 270/346/4
f 281/344/4 283/347/4 284/348/4
f 279/342/3 285/349/3 280/343/3
f 274/332/6 283/350/6 286/351/6
f 265/335/70 285/352/70 287/353/70
f 287/354/6 288/355/6 275/333/6
f 269/326/71 283/356/71 273/357/71
f 265/335/70 278/358/70 280/359/70
f 269/326/71 282/360/71 284/361/71
f 274/340/67 281/362/67 261/327/67
f 289/363/6 290/364/6 291/365/6
f 292/366/6 293/367/6 294/368/6
f 295/369/6 296/370/6 297/371/6
f 296/370/6 294/368/6 297/371/6
f 298/372/6 299/373/6 300/374/6
f 299/373/6 291/365/6 300/374/6
f 301/375/6 300/374/6 296/370/6
f 291/365/6 302/376/6 292/366/6
f 296/370/6 291/365/6 292/366/6
f 303/377/72 304/378/72 305/379/72
f 306/380/73 307/381/73 305/379/73
f 304/378/72 306/380/72 305/379/72
f 305/379/73 308/382/73 303/377/73
f 309/383/74 310/384/74 311/385/74
f 312/386/75 313/387/75 314/388/75
f 315/389/76 316/390/76 317/391/76
f 318/392/77 319/393/77 320/394/77
f 314/395/78 319/396/78 312/397/78
f 311/398/79 316/399/79 309/400/79
f 314/401/4 318/402/4 320/403/4
f 312/404/3 315/405/3 310/406/3
f 311/407/3 315/405/3 317/408/3
f 309/409/4 318/402/4 313/410/4
f 4/4/3 8/8/3 5/5/3
f 7/7/3 37/38/3 8/8/3
f 9/9/4 21/21/4 10/10/4
f 5/5/3 8/8/3 12/12/3
f 12/12/80 16/16/80 14/14/80
f 15/15/81 39/40/81 16/16/81
f 17/17/4 45/46/4 18/18/4
f 21/21/4 9/9/4 23/23/4
f 24/24/6 69/411/6 25/25/6
f 17/17/82 19/19/82 32/33/82
f 34/35/4 11/11/4 17/17/4
f 9/9/4 11/11/4 34/35/4
f 7/7/3 3/108/3 36/37/3
f 36/37/3 321/412/3 15/15/3
f 15/15/3 321/412/3 38/39/3
f 40/41/4 9/9/4 35/36/4
f 42/43/83 21/21/83 20/20/83
f 21/21/84 42/43/84 44/45/84
f 44/45/4 322/413/4 45/46/4
f 45/46/4 322/413/4 46/47/4
f 47/48/4 53/54/4 27/27/4
f 31/32/4 52/53/4 49/50/4
f 57/58/11 6/6/11 58/59/11
f 42/43/12 43/44/12 47/48/12
f 23/23/4 40/41/4 52/53/4
f 56/61/3 3/108/3 60/62/3
f 22/64/1 63/414/1 62/65/1
f 53/54/4 20/20/4 22/22/4
f 55/56/1 1/1/1 3/3/1
f 49/50/4 41/42/4 35/36/4
f 11/11/4 10/10/4 45/46/4
f 63/22/4 65/23/4 64/52/4
f 23/67/13 65/415/13 63/68/13
f 51/70/6 64/416/6 65/71/6
f 28/73/14 62/417/14 64/74/14
f 28/76/6 72/418/6 66/77/6
f 25/80/4 69/419/4 67/81/4
f 29/83/1 68/420/1 67/84/1
f 30/86/15 67/421/15 69/82/15
f 66/88/4 72/422/4 70/89/4
f 51/75/14 70/423/14 72/87/14
f 30/91/1 71/424/1 70/92/1
f 35/94/1 81/104/1 73/95/1
f 74/97/1 83/106/1 75/98/1
f 73/95/1 76/99/1 78/101/1
f 76/99/1 75/98/1 79/102/1
f 75/98/1 55/56/1 54/55/1
f 80/103/1 82/105/1 74/97/1
f 82/105/1 84/107/1 83/106/1
f 84/107/1 2/2/1 1/1/1
f 76/99/1 73/95/1 81/104/1
f 55/56/1 75/98/1 83/106/1
f 60/62/3 7/7/3 4/4/3
f 85/109/13 106/425/13 86/110/13
f 92/117/16 96/125/16 42/118/16
f 58/120/17 6/128/17 87/121/17
f 90/115/6 91/116/6 92/117/6
f 87/121/6 99/129/6 95/124/6
f 98/127/6 109/148/6 97/126/6
f 91/116/6 98/127/6 96/125/6
f 100/130/4 111/426/4 101/131/4
f 105/122/6 86/121/6 106/114/6
f 86/136/18 105/427/18 93/137/18
f 105/139/14 107/156/14 89/140/14
f 107/142/3 106/428/3 85/143/3
f 108/145/4 113/429/4 89/146/4
f 85/114/6 95/124/6 109/148/6
f 91/116/6 88/112/6 85/114/6
f 110/150/6 323/159/6 111/151/6
f 104/153/3 323/430/3 110/154/3
f 111/156/19 323/431/19 104/157/19
f 112/158/6 324/432/6 113/159/6
f 93/161/3 324/433/3 112/162/3
f 113/164/14 324/434/14 93/141/14
f 40/41/4 41/42/4 49/50/4
f 47/48/4 43/44/4 20/20/4
f 12/12/3 8/8/3 37/38/3
f 114/165/20 130/181/20 115/166/20
f 117/168/20 114/165/20 116/167/20
f 119/170/21 137/207/21 120/171/21
f 122/173/22 130/181/22 123/174/22
f 125/176/85 134/185/85 126/177/85
f 121/172/86 126/177/86 127/178/86
f 117/168/24 148/205/24 128/179/24
f 130/181/25 114/165/25 131/182/25
f 114/165/26 117/168/26 129/180/26
f 132/183/87 119/170/87 127/178/87
f 122/173/28 124/175/28 134/185/28
f 135/186/29 146/201/29 120/187/29
f 136/188/29 120/187/29 137/189/29
f 139/191/30 149/435/30 118/192/30
f 141/194/31 116/197/31 115/195/31
f 140/193/31 118/192/31 116/197/31
f 138/190/32 137/189/32 143/198/32
f 145/200/33 147/202/33 146/201/33
f 142/196/34 115/195/34 147/202/34
f 125/176/88 146/204/88 147/203/88
f 121/172/21 120/171/21 146/204/21
f 148/205/36 117/168/36 118/169/36
f 132/183/37 143/436/37 137/207/37
f 130/181/38 122/173/38 147/203/38
f 136/208/13 138/221/13 150/209/13
f 140/211/13 156/220/13 152/212/13
f 142/214/13 158/224/13 153/215/13
f 145/217/13 135/223/13 154/218/13
f 141/216/13 153/215/13 156/220/13
f 138/221/13 144/437/13 157/222/13
f 135/223/13 136/208/13 151/210/13
f 145/217/13 155/219/13 158/224/13
f 159/225/29 162/228/29 160/226/29
f 162/228/32 325/438/32 163/229/32
f 165/231/39 176/239/39 166/232/39
f 168/234/31 198/439/31 169/235/31
f 175/238/42 196/265/42 176/239/42
f 161/227/43 179/243/43 177/240/43
f 161/227/44 160/226/44 178/242/44
f 170/236/45 183/248/45 180/244/45
f 165/231/46 167/233/46 182/246/46
f 169/235/47 195/262/47 183/248/47
f 184/249/48 182/246/48 185/250/48
f 171/247/42 184/249/42 186/251/42
f 188/254/49 177/240/49 189/255/49
f 164/230/29 173/241/29 188/254/29
f 181/245/31 326/440/31 191/258/31
f 191/258/50 326/440/50 180/244/50
f 169/235/51 192/259/51 194/261/51
f 176/239/52 187/253/52 185/250/52
f 160/226/54 164/230/54 189/255/54
f 181/245/30 327/441/30 197/263/30
f 173/264/55 187/253/55 196/265/55
f 171/247/56 192/442/56 198/267/56
f 167/233/42 166/232/42 185/250/42
f 179/243/29 178/242/29 189/255/29
f 183/248/31 195/262/31 194/261/31
f 199/268/3 208/305/3 200/269/3
f 202/271/57 221/443/57 203/272/57
f 205/274/4 212/444/4 206/275/4
f 208/277/58 328/445/58 209/278/58
f 211/280/58 213/283/58 212/281/58
f 210/279/58 209/278/58 213/283/58
f 214/284/3 223/315/3 215/285/3
f 214/287/59 216/446/59 217/288/59
f 200/290/57 220/293/57 219/291/57
f 220/293/57 202/271/57 204/273/57
f 204/294/59 214/287/59 218/289/59
f 201/296/59 219/295/59 218/289/59
f 220/298/58 210/279/58 211/280/58
f 221/300/58 202/299/58 211/280/58
f 220/298/58 200/316/58 208/277/58
f 203/301/59 207/447/59 214/287/59
f 221/302/4 205/274/4 207/276/4
f 222/304/89 328/448/89 208/305/89
f 207/306/60 225/449/60 223/307/60
f 207/276/4 206/275/4 224/309/4
f 199/311/60 218/317/60 226/312/60
f 199/268/3 227/450/3 228/314/3
f 218/284/4 217/286/4 229/285/4
f 230/268/6 239/305/6 231/269/6
f 233/271/64 252/443/64 234/272/64
f 236/274/1 243/444/1 237/275/1
f 239/277/62 329/445/62 240/278/62
f 242/280/62 244/283/62 243/281/62
f 241/279/62 240/278/62 244/283/62
f 245/284/6 254/315/6 246/285/6
f 245/287/63 247/446/63 248/288/63
f 231/290/61 251/293/61 250/291/61
f 251/293/61 233/271/61 235/273/61
f 235/294/63 245/287/63 249/289/63
f 250/295/63 249/289/63 230/297/63
f 251/298/90 241/279/90 242/280/90
f 233/299/62 242/280/62 236/282/62
f 231/316/62 239/277/62 241/279/62
f 234/301/63 238/447/63 245/287/63
f 252/302/1 236/274/1 238/276/1
f 253/304/6 329/448/6 239/305/6
f 238/306/65 256/449/65 254/307/65
f 238/276/1 237/275/1 255/309/1
f 249/317/65 260/312/65 257/313/65
f 230/268/6 257/450/6 258/314/6
f 249/284/1 248/286/1 259/285/1
f 261/318/4 271/451/4 262/319/4
f 264/321/3 330/452/3 265/322/3
f 267/324/66 331/453/66 268/325/66
f 261/327/67 281/362/67 270/328/67
f 272/330/6 276/334/6 273/331/6
f 272/330/6 287/354/6 275/333/6
f 265/335/68 287/353/68 272/336/68
f 269/326/66 273/357/66 276/338/66
f 277/339/69 272/454/69 274/340/69
f 278/341/3 332/455/3 279/342/3
f 281/344/4 284/348/4 282/345/4
f 281/344/4 286/456/4 283/347/4
f 279/342/3 288/457/3 285/349/3
f 274/332/6 273/331/6 283/350/6
f 265/335/70 280/359/70 285/352/70
f 287/354/6 285/458/6 288/355/6
f 269/326/71 284/361/71 283/356/71
f 265/335/70 330/459/70 278/358/70
f 269/326/71 268/325/71 282/360/71
f 274/340/67 286/460/67 281/362/67
f 289/363/91 333/461/91 290/364/91
f 292/366/6 302/376/6 293/367/6
f 295/369/6 301/375/6 296/370/6
f 296/370/6 292/366/6 294/368/6
f 298/372/92 334/462/92 299/373/92
f 299/373/93 289/363/93 291/365/93
f 301/375/6 298/372/6 300/374/6
f 291/365/6 290/364/6 302/376/6
f 296/370/6 300/374/6 291/365/6
f 303/377/72 335/463/72 304/378/72
f 306/380/73 336/464/73 307/381/73
f 304/378/72 337/465/72 306/380/72
f 305/379/73 307/381/73 308/382/73
f 309/383/74 313/466/74 310/384/74
f 312/386/75 310/467/75 313/387/75
f 315/389/76 318/468/76 316/390/76
f 318/392/77 315/469/77 319/393/77
f 314/395/78 320/470/78 319/396/78
f 311/398/79 317/471/79 316/399/79
f 314/401/4 313/410/4 318/402/4
f 312/404/3 319/472/3 315/405/3
f 311/407/3 310/406/3 315/405/3
f 309/409/4 316/473/4 318/402/4
