ply
format ascii 1.0
comment Created in Blender version 4.1.1
element vertex 566
property float x
property float y
property float z
property float nx
property float ny
property float nz
property float s
property float t
element face 478
property list uchar uint vertex_indices
end_header
2.975033 4.30202 4.096114 -0.14253329 1.9949147 -1.5061187e-07 0.102892 0.659234
2.975033 4.30202 4.6746125 -0.1425331 1.9949147 -1.5061187e-07 0.102892 0.677529
5.996675 4.5179105 4.6746125 1.527896 1.2905557 1.1163147e-07 0.01233595 0.677529
6.3798 -0.8443676 4.674613 1.9948734 0.1431071 0.00027468818 0.392168 0.873631
6.4902596 -2.3903725 5.417215 1.9948268 0.14373638 0.0025113858 0.340024 0.902668
6.573785 -3.5257168 4.6746135 1.695337 -1.0610521 0.00080930046 0.301725 0.873631
6.18824 1.8367714 4.674613 1.9949149 0.14252943 1.24705675e-05 0.482598 0.873631
6.33379 -0.2004781 5.0748997 1.9949145 0.1425348 1.6189577e-05 0.413885 0.889283
-8.886795 0.29288587 4.674613 -1.9949145 -0.1425346 5.7721622e-06 0.120339 0.874156
-8.774415 -1.2799296 5.0748997 -1.994915 -0.1425287 1.3067816e-05 0.173515 0.889846
-8.875065 0.12877038 5.0748997 -1.9949145 -0.14253591 1.0394515e-05 0.125887 0.889846
6.3332148 -0.19246802 6.3989496 1.9949139 0.14254262 -1.6035026e-05 0.414155 0.941055
6.363205 -0.61211205 6.580545 1.994913 0.14255424 -2.8523049e-05 0.400001 0.948156
6.28268 0.51493853 7.3178596 1.994987 0.14151281 0.0010453303 0.43801498 0.976985
6.232675 1.214705 6.3989496 1.9949155 0.14252122 -1.6431843e-05 0.461616 0.941055
6.2825003 0.51747555 7.3178596 1.994956 0.14195241 -3.2179552e-05 0.43809998 0.976985
-8.8755245 0.13525298 6.3989496 -1.9949138 -0.14254537 -2.0518864e-05 0.125668 0.941743
-8.82572 -0.56197697 7.3178596 -1.994869 -0.14316699 0.000815361 0.149241 0.97775996
-8.8259 -0.55943996 7.3178596 -1.994985 -0.14154051 0.0010549993 0.149155 0.97775996
-8.697925 -2.3505993 4.0961146 -1.9948742 -0.14309125 0.0012012133 0.2097139 0.851482
-8.7616 -1.4593877 4.674613 -1.9948989 -0.14275351 -5.8934297e-06 0.1795819 0.874156
-8.7616 -1.4593877 4.0961146 -1.8474371 0.4725798 -0.60302913 0.1795819 0.851482
-8.886795 0.2928858 4.0961146 -1.7614772 -0.730429 -0.60305196 0.120339 0.851482
-8.7616 -1.4593875 0.33872512 -1.2360059 -1.4237924 0.6671622 0.153291 0.353313
-9.45939 -1.509243 0.032058116 -1.3098568 -1.5113819 1.1410616e-07 0.06447196 0.296428
-8.7616 -1.4593875 0.032058112 -1.3098325 -1.5114028 1.1410774e-07 0.153291 0.296428
-8.697925 -2.350599 0.03205818 -1.9948816 -0.14299315 -0.0005687066 0.2097139 0.692189
-8.7616 -1.4593875 0.6598251 -1.4106141 -0.10081516 1.4142148 0.1795819 0.716795
-8.7616 -1.4593875 0.33872512 -1.2360059 -1.4237924 0.6671622 0.1795819 0.70420897
-8.886795 0.2928855 0.03205798 -1.5114328 1.309798 -9.8887e-08 0.120339 0.692189
-8.886795 0.29288554 0.33289397 -1.4240676 1.2362425 0.6661351 0.120339 0.70397997
-8.950535 1.185017 0.03205791 -1.9949147 -0.14253193 -2.5521285e-07 0.09017598 0.692189
-8.826079 -0.55690295 7.3178596 -1.9950087 -0.141206 0.0009271494 0.14907 0.97775996
-8.90571 0.5575715 6.580545 -1.9949121 -0.14256698 -5.168851e-05 0.111389995 0.94886
-9.031344 2.31599 5.417215 -1.9949144 -0.14253625 -6.157525e-06 0.05193895 0.903263
-9.11154 3.4384573 4.6746125 -1.6958311 1.0602628 -1.7624213e-06 0.01398897 0.874156
6.0768747 3.3954425 5.4172144 1.9949148 0.14253049 1.5485205e-06 0.535169 0.902668
6.23314 1.2082219 5.0748997 1.9949148 0.14253058 2.6597309e-05 0.461398 0.889283
6.282135 0.5225495 7.3178596 1.9947305 0.14507127 0.002255709 0.438271 0.976985
6.28232 0.52001256 7.3178596 1.9948944 0.14281788 -0.00013539876 0.438186 0.976985
-8.950535 1.1850173 4.0961146 -1.9949147 -0.1425322 -1.3914886e-06 0.09017598 0.851482
-9.071501 2.8780622 4.0961146 -1.9949147 -0.14253342 8.3178645e-07 0.03293496 0.851482
-8.53443 -4.6051683 4.6746135 -1.5248615 -1.2941395 0.0010566552 0.285945 0.874156
-8.576759 -4.04642 4.109359 -1.9946816 -0.14572184 0.0032179197 0.267048 0.852001
-8.61796 -3.469825 5.4172153 -1.9948359 -0.14359984 -0.002917268 0.247554 0.903263
-8.77499 -1.271919 6.3989496 -1.994915 -0.14252765 -6.9303333e-06 0.1732439 0.941743
-8.825535 -0.56451344 7.3178596 -1.994728 -0.14511304 0.001544436 0.149327 0.97775996
-8.576759 -4.0464206 1.4104164 -1.9946114 -0.1467145 -0.00053246884 0.267048 0.746215
-8.53443 -4.605169 0.032058347 -1.3085257 -1.5125338 -0.0013970695 0.285945 0.692189
-9.071501 2.8780625 1.4104158 -1.9949145 -0.1425334 -2.0312423e-07 0.03293496 0.746215
-9.11154 3.438457 0.03205774 -1.5113988 1.3098373 -7.5168356e-07 0.01398897 0.692189
-8.886795 0.29288557 0.65982497 -1.4106307 -0.10079412 1.4142 0.120339 0.716795
-8.950535 1.1850171 1.4104159 -1.9949148 -0.14253205 1.076087e-08 0.09017598 0.746215
-8.697925 -2.350599 1.4104161 -1.9949145 -0.14253359 -1.6197797e-08 0.2097139 0.746215
2.975033 4.3020196 0.032057676 -0.1425331 1.9949145 -1.5061185e-07 0.102892 0.530709
2.975033 4.3020196 1.4104156 -0.14253344 1.9949145 -1.5061185e-07 0.102892 0.574299
5.996675 4.51791 0.032057658 1.3099049 1.5113403 -1.1410302e-07 0.01233595 0.530709
6.3798 -0.8443678 2.659559 1.9948294 0.14372039 -7.6402e-08 0.392168 0.79484
6.573785 -3.5257165 0.032058265 1.5122321 -1.3088752 -6.48918e-08 0.301725 0.692101
6.3798 -0.844368 0.032058064 1.9947866 0.14431494 -1.0895476e-08 0.392168 0.692101
5.996675 4.51791 0.032057658 1.3099049 1.5113403 -1.1410302e-07 0.573027 0.692101
6.18824 1.8367712 2.6605158 1.9949147 0.1425336 -1.0760988e-08 0.482598 0.794877
6.18824 1.836771 0.032057863 1.9949145 0.14253491 -1.0761086e-08 0.482598 0.692101
-8.7616 -1.4593877 4.0961146 -1.8474371 0.4725798 -0.60302913 0.185903 0.847161
-8.66029 -1.452149 0.6598251 -1.234052 1.0694821 1.1546966 0.182654 0.717829
-8.7616 -1.4593875 0.6598251 -1.4106141 -0.10081516 1.4142148 0.185903 0.717829
-8.66029 -1.4521492 4.0961146 -1.2340317 1.0694765 -1.1547234 0.1795819 0.851482
-8.78549 0.30012405 0.65982497 -1.0694405 -1.2340614 1.1547247 0.120339 0.716795
-8.66029 -1.452149 0.6598251 -1.234052 1.0694821 1.1546966 0.1795819 0.716795
-8.886795 0.2928858 4.0961146 -1.7614772 -0.730429 -0.60305196 0.421769 0.493505
-8.66029 -1.4521492 4.0961146 -1.2340317 1.0694765 -1.1547234 0.369634 0.496694
-8.7616 -1.4593877 4.0961146 -1.8474371 0.4725798 -0.60302913 0.369634 0.493505
-8.886795 0.29288557 0.65982497 -1.4106307 -0.10079412 1.4142 0.117817 0.719001
-8.78549 0.3001243 4.0961146 -1.0694636 -1.2340692 -1.154695 0.114568 0.848334
-8.886795 0.2928858 4.0961146 -1.7614772 -0.730429 -0.60305196 0.117817 0.848334
-8.7616 -1.4593875 0.6598251 -1.4106141 -0.10081516 1.4142148 0.285033 0.249236
-8.78549 0.30012405 0.65982497 -1.0694405 -1.2340614 1.1547247 0.288624 0.353779
-8.886795 0.29288557 0.65982497 -1.4106307 -0.10079412 1.4142 0.285033 0.353779
-8.7616 -1.4593875 0.6598251 -1.4106141 -0.10081516 1.4142148 0.06160098 0.353599
-9.15979 -1.4878376 0.33872512 -1.3113799 -1.5100604 1.1400639e-07 0.01091694 0.293105
-8.7616 -1.4593875 0.33872512 -1.2360059 -1.4237924 0.6671622 0.06160098 0.293105
-8.7616 -1.4593875 0.032058112 -1.3098325 -1.5114028 1.1410774e-07 0.1795819 0.692189
-9.45939 -1.509243 0.032058116 -1.3098568 -1.5113819 1.1410616e-07 0.246184 0.35378
-9.584585 0.24303003 0.33289397 -1.2345334 1.0711534 1.1526308 0.203947 0.249236
-9.584585 0.24303 0.032057982 -1.5114028 1.3098325 -9.88896e-08 0.246184 0.249236
-8.886795 0.2928855 0.03205798 -1.5114328 1.309798 -9.8887e-08 0.06431496 0.353402
-9.584585 0.24303003 0.33289397 -1.2345334 1.0711534 1.1526308 0.153134 0.296386
-8.886795 0.29288554 0.33289397 -1.4240676 1.2362425 0.6661351 0.06431496 0.296386
-8.886795 0.29288554 0.33289397 -1.4240676 1.2362425 0.6661351 0.270918 0.35378098
-9.45939 -1.509243 0.33872512 -1.0692703 -1.2323108 1.1567503 0.246184 0.249236
-8.7616 -1.4593875 0.33872512 -1.2360059 -1.4237924 0.6671622 0.270918 0.249236
-9.15979 -1.4878376 0.33872512 -1.3113799 -1.5100604 1.1400639e-07 0.20231 0.35378
-9.284989 0.26443556 0.65982497 -1.2340294 1.0695155 1.1546896 0.1572279 0.249236
-9.284989 0.26443553 0.33289397 -1.5100198 1.3114266 -9.900996e-08 0.203128 0.249236
-9.15979 -1.4878376 0.6598251 -1.0694836 -1.2340701 1.1546757 0.270918 0.249236
-8.886795 0.29288554 0.33289397 -1.4240676 1.2362425 0.6661351 0.01091694 0.292972
-9.284989 0.26443556 0.65982497 -1.2340294 1.0695155 1.1546896 0.06160098 0.353616
-8.886795 0.29288557 0.65982497 -1.4106307 -0.10079412 1.4142 0.01091694 0.353616
-9.11154 3.4384573 4.6746125 -1.6958311 1.0602628 -1.7624213e-06 0.465114 0.677529
-6.0899 3.6543474 1.4104158 -0.14253233 1.9949147 -1.7572049e-08 0.374559 0.574299
-9.11154 3.438457 0.03205774 -1.5113988 1.3098373 -7.5168356e-07 0.465114 0.530709
-3.863601 3.8134112 4.096114 -0.1425326 1.9949147 -4.7711524e-10 0.307839 0.659234
0.7487355 4.142954 1.4104156 -0.14253302 1.9949147 -1.2006464e-07 0.169611 0.574299
-3.863601 3.8134115 1.4104158 -0.14253229 1.9949147 2.8513611e-08 0.307839 0.574299
-6.0899 3.6543474 0.032057725 -0.14253278 1.9949145 -1.5061185e-07 0.374559 0.530709
-3.863601 3.8134115 0.032058187 -0.14253242 1.9949147 -1.5061187e-07 0.307839 0.530709
0.7487355 4.142954 0.03205816 -0.14253291 1.9949148 -1.5061188e-07 0.169611 0.530709
-6.0899 3.6543472 4.6746125 -0.14253227 1.9949147 -1.5061187e-07 0.374559 0.677529
-6.0899 3.6543472 4.096114 -0.14253244 1.9949147 4.6631925e-08 0.374559 0.659234
-3.863601 3.8134112 4.6746125 -0.14253253 1.9949147 -1.5061187e-07 0.307839 0.677529
0.7487355 4.1429543 4.096114 -0.14253329 1.9949147 -1.5061187e-07 0.169611 0.659234
0.7487355 4.1429543 4.6746125 -0.1425332 1.9949147 -1.5061187e-07 0.169611 0.677529
5.996675 4.5179105 4.6746125 1.527896 1.2905557 1.1163147e-07 0.573027 0.873631
3.437004 -3.7502158 3.7905526 0.73043066 -1.7614801 -0.6030414 0.359676 0.510327
5.12436 -3.5126603 3.7905526 -1.0694909 -1.2340354 -1.1547059 0.428152 0.505073
5.1326747 -3.6290646 3.7905526 -0.47228226 -1.8474993 -0.6030717 0.428152 0.510327
3.116611 -3.773107 0.22693229 0.1425321 -1.9949148 4.0991104e-06 0.360946 0.378542
3.437004 -3.750216 0.4700253 0.1007529 -1.4106126 1.4142208 0.370548 0.38623
3.437004 -3.7502158 3.7905526 0.73043066 -1.7614801 -0.6030414 0.370548 0.491242
-3.284065 -4.230423 0.032058794 0.1425331 -1.9949147 3.3584234e-07 0.16912399 0.37238
-3.2840655 -4.230423 1.1183304 0.14253312 -1.9949147 1.947994e-07 0.16912399 0.406733
-5.510365 -4.3894887 1.1183304 0.14240763 -1.9949236 1.6478984e-07 0.1024039 0.406733
-8.53443 -4.6051683 4.6746135 -1.5248615 -1.2941395 0.0010566552 0.01177698 0.51919997
-8.53443 -4.605169 0.032058347 -1.3085257 -1.5125338 -0.0013970695 0.01177698 0.37238
6.573785 -3.5257165 0.032058265 1.5122321 -1.3088752 -6.48918e-08 0.464555 0.37238
5.1326747 -3.6290646 3.7905526 -0.47228226 -1.8474993 -0.6030717 0.421366 0.491242
5.1326747 -3.6290646 0.47002527 0.10118026 -1.4105636 1.4142393 0.421366 0.38623
-5.510365 -4.3894887 0.032058332 0.14240736 -1.9949236 1.5061255e-07 0.1024039 0.37238
3.437004 -3.7502158 4.6746135 0.14253196 -1.9949147 1.5061187e-07 0.370548 0.51919997
-5.510365 -4.389488 3.7905526 0.14240739 -1.9949236 1.5061255e-07 0.1024039 0.491242
-5.510365 -4.389488 4.6746135 0.14240737 -1.9949235 1.5061254e-07 0.1024039 0.51919997
-3.2840655 -4.2304225 3.7905526 0.14253286 -1.9949147 1.5061187e-07 0.16912399 0.491242
6.573785 -3.5257168 4.6746135 1.695337 -1.0610521 0.00080930046 0.464555 0.51919997
5.1326747 -3.6290646 4.6746135 0.1427962 -1.9948958 1.5061045e-07 0.421366 0.51919997
3.4677296 -4.180255 0.03205879 -1.3098025 -1.511429 4.602797e-06 0.01852899 0.24210499
3.437004 -3.750216 0.24129379 -1.2359391 -1.4242634 0.66627955 0.099090986 0.2003509
3.437004 -3.7502165 0.032058757 -1.3098348 -1.5114007 5.259122e-06 0.09908998 0.24210499
3.437004 -3.7502165 0.032058757 -1.3098348 -1.5114007 5.259122e-06 0.370548 0.37238
5.1326747 -3.6290646 0.032058276 1.5115758 -1.309633 9.8874544e-08 0.421366 0.37238
5.1326747 -3.6290646 0.24578927 1.424228 -1.2356119 0.6669617 0.421366 0.379139
5.12436 -3.5126605 0.47002527 -1.0694923 -1.2340188 1.1547223 0.421366 0.38623
3.428687 -3.6338122 3.7905526 1.2340659 -1.0694498 -1.1547111 0.370548 0.491242
3.428687 -3.6338124 0.47002527 1.2340678 -1.0694658 1.1546947 0.370548 0.38623
5.12436 -3.5126603 3.7905526 -1.0694909 -1.2340354 -1.1547059 0.367481 0.489662
5.1326747 -3.6290646 0.47002527 0.10118026 -1.4105636 1.4142393 0.36428 0.386348
5.1326747 -3.6290646 3.7905526 -0.47228226 -1.8474993 -0.6030717 0.36428 0.489662
5.12436 -3.5126605 0.47002527 -1.0694923 -1.2340188 1.1547223 0.263413 0.2434639
3.437004 -3.750216 0.4700253 0.1007529 -1.4106126 1.4142208 0.273417 0.147144
5.1326747 -3.6290646 0.47002527 0.10118026 -1.4105636 1.4142393 0.273417 0.2434639
3.428687 -3.6338124 0.47002527 1.2340678 -1.0694658 1.1546947 0.427765 0.386887
3.437004 -3.7502158 3.7905526 0.73043066 -1.7614801 -0.6030414 0.424564 0.49019998
3.437004 -3.750216 0.4700253 0.1007529 -1.4106126 1.4142208 0.424564 0.386887
3.450041 -3.932682 0.2412938 -1.3111318 -1.5102757 6.0917214e-06 0.104219 0.242756
3.437004 -3.750216 0.4700253 0.1007529 -1.4106126 1.4142208 0.138401 0.198656
3.437004 -3.750216 0.24129379 -1.2359391 -1.4242634 0.66627955 0.138401 0.242756
-3.2840655 -4.2304225 4.6746135 0.14253287 -1.9949145 1.5061185e-07 0.16912399 0.51919997
3.437004 -3.750216 0.24129379 -1.2359391 -1.4242634 0.66627955 0.370548 0.378997
5.1633997 -4.059103 0.03205878 1.511378 -1.3098612 6.351714e-07 0.226455 0.243465
3.467729 -4.180254 0.24129382 -1.0708512 -1.2344487 1.1530024 0.186192 0.147144
3.4677296 -4.180255 0.03205879 -1.3098025 -1.511429 4.602797e-06 0.226455 0.147144
5.1326747 -3.6290646 0.24578927 1.424228 -1.2356119 0.6669617 0.09946298 0.242089
5.1633997 -4.059103 0.03205878 1.511378 -1.3098612 6.351714e-07 0.01890099 0.200274
5.1326747 -3.6290646 0.032058276 1.5115758 -1.309633 9.8874544e-08 0.09946298 0.200274
3.467729 -4.180254 0.24129382 -1.0708512 -1.2344487 1.1530024 0.263413 0.147144
5.1326747 -3.6290646 0.24578927 1.424228 -1.2356119 0.6669617 0.226455 0.243468
3.437004 -3.750216 0.24129379 -1.2359391 -1.4242634 0.66627955 0.226455 0.147144
5.1457148 -3.8115294 0.24578929 1.510341 -1.311057 6.0800863e-07 0.1421779 0.147144
3.450041 -3.932681 0.4700258 -1.0694686 -1.2340498 1.1547111 0.1853269 0.243465
3.450041 -3.932682 0.2412938 -1.3111318 -1.5102757 6.0917214e-06 0.141313 0.243465
5.1326747 -3.6290646 0.47002527 0.10118026 -1.4105636 1.4142393 0.138195 0.242703
5.1457148 -3.8115294 0.24578929 1.510341 -1.311057 6.0800863e-07 0.104013 0.198833
5.1326747 -3.6290646 0.24578927 1.424228 -1.2356119 0.6669617 0.138195 0.198833
3.450041 -3.932681 0.4700258 -1.0694686 -1.2340498 1.1547111 0.289098 0.147144
6.66529 1.9005733 3.0418222 0.80319375 0.9195789 1.5840626 0.909978 0.930907
7.15757 1.6579152 2.9163988 1.6032804 0.94712156 0.7296934 0.88575 0.888833
6.6971197 2.0600908 2.9163988 1.2002347 1.3741515 0.81923413 0.923878 0.927188
6.2524347 2.2611742 3.0418222 0.40298522 0.99274343 1.6888052 0.944165 0.965297
6.23667 2.4622657 2.9163988 0.5442621 1.7199193 0.8635142 0.962007 0.965542
6.47792 -1.2303913 3.0418224 0.527328 -0.93266344 1.6888056 0.63465 0.965297
6.893045 -0.97378176 2.916399 1.3670129 -1.2083565 0.8192377 0.654936 0.927188
6.84096 -0.81968325 3.0418224 0.91480106 -0.8086261 1.5840653 0.668837 0.930907
7.2432547 0.57209724 3.0418224 1.4537224 0.0938797 1.3703572 0.789407 0.887459
6.2610097 0.5413258 3.899043 1.0871787 0.4889107 1.6059293 0.79229 0.97434497
6.26652 0.50902027 3.899043 1.314965 0.084899604 1.5045463 0.789407 0.974043
7.2040005 -0.40897474 3.0418224 1.2466555 -0.44302782 1.4998589 0.70302397 0.896517
6.25309 0.4625663 3.899043 0.8295121 -0.7332669 1.6656017 0.785383 0.975493
6.240975 0.4488583 3.899043 0.50946283 -0.821901 1.7506932 0.784242 0.976641
6.226125 0.5649243 3.899043 -0.0582816 0.9024087 1.7838894 0.794573 0.97729
6.23345 0.5653973 3.899043 0.39945886 0.8805182 1.7507484 0.794573 0.976641
7.07814 1.5399712 3.0418224 1.1793174 0.59969425 1.4998592 0.875791 0.896517
6.24723 0.5533613 3.899043 0.7282957 0.8338112 1.6656362 0.793432 0.975493
6.25848 -1.2445623 3.0418224 0.06347683 -0.9829478 1.7406274 0.63465 0.984749
6.2336497 0.4483853 3.899043 0.058284316 -0.9025714 1.7838072 0.784242 0.97729
6.2652097 0.4762748 3.899043 1.1410079 -0.34508613 1.6059316 0.786524 0.97434497
7.29794 -0.5157233 2.8405085 1.4278 -0.57347935 -1.2776965 0.85889995 0.874405
6.893045 -0.97378176 2.916399 1.3670129 -1.2083565 0.8192377 0.913137 0.869425
6.893045 -0.97378176 2.8405085 1.0596042 -0.9366282 -1.4142019 0.913137 0.874405
6.4881496 -1.4318408 2.916399 0.76095057 -1.6356403 0.86350155 0.967374 0.869425
6.4881496 -1.4318408 2.8405085 0.68319994 -1.3939236 -1.2610371 0.967374 0.874404
5.991935 2.4464612 2.8405082 -0.09998688 1.5483006 -1.262049 0.584586 0.874405
6.23667 2.4622657 2.9163988 0.5442621 1.7199193 0.8635142 0.611155 0.869425
6.23667 2.4622657 2.8405082 0.49822938 1.4702386 -1.2610177 0.611155 0.874405
6.6971197 2.0600908 2.8405082 0.93033177 1.0651363 -1.4142021 0.665394 0.874405
7.15757 1.6579152 2.9163988 1.6032804 0.94712156 0.7296934 0.719634 0.869425
7.15757 1.6579152 2.8405082 1.3421843 0.7523604 -1.277691 0.719634 0.874405
6.6971197 2.0600908 2.9163988 1.2002347 1.3741515 0.81923413 0.665395 0.869425
6.2434096 -1.4476453 2.916399 0.113986395 -1.7651234 0.93345916 0.993942 0.869425
6.2434096 -1.4476453 2.8405085 0.0999863 -1.5483338 -1.2620084 0.993942 0.874404
7.3417196 0.57845575 2.8405085 1.4552839 0.09397798 -1.3686918 0.789267 0.874405
7.29794 -0.5157233 2.916399 1.7117863 -0.73303413 0.72969073 0.85889995 0.869425
7.3417196 0.57845575 2.916399 1.8904784 0.122084536 0.64123875 0.789267 0.869425
7.3417196 0.57845575 2.916399 1.8904784 0.122084536 0.64123875 0.789407 0.87873
7.29794 -0.5157233 2.916399 1.7117863 -0.73303413 0.72969073 0.693065 0.888833
6.0330005 2.2470043 3.0418222 -0.063474044 0.98295003 1.7406263 0.944165 0.984749
5.991935 2.4464612 2.9163988 -0.11399025 1.7651378 0.9334318 0.962007 0.987237
6.4881496 -1.4318408 2.916399 0.76095057 -1.6356403 0.86350155 0.616808 0.965542
6.893045 -0.97378176 2.8405085 1.0596042 -0.9366282 -1.4142019 0.940904 0.298655
6.54991 -0.87169427 2.8405085 0 -5.768808e-07 -2 0.914716 0.308322
6.839635 -0.54393226 2.8405085 0 2.6866246e-07 -2 0.938907 0.332372
6.23667 2.4622657 2.8405082 0.49822938 1.4702386 -1.2610177 0.907082 0.569332
6.19485 1.9034083 2.8405082 0 -1.509958e-07 -2 0.901021 0.526053
5.991935 2.4464612 2.8405082 -0.09998688 1.5483006 -1.262049 0.887958 0.569331
7.15757 1.6579152 2.8405082 1.3421843 0.7523604 -1.277691 0.974704 0.502116
6.69944 1.6269423 2.8405082 0 -4.8832976e-07 -2 0.938899 0.502006
6.6971197 2.0600908 2.8405082 0.93033177 1.0651363 -1.4142021 0.940893 0.535724
7.3417196 0.57845575 2.8405085 1.4552839 0.09397798 -1.3686918 0.983613 0.417191
7.1293597 -0.2161703 2.8405085 0 3.0240656e-08 -2 0.963098 0.356423
7.1606846 0.5667647 2.8405085 0 3.7602513e-07 -2 0.969467 0.417191
6.36997 1.9147172 2.8405082 0 -1.509958e-07 -2 0.914705 0.526054
6.4881496 -1.4318408 2.8405085 0.68319994 -1.3939236 -1.2610371 0.907097 0.265043
6.374795 -0.88300323 2.8405085 0 -1.509958e-07 -2 0.901032 0.308321
7.29794 -0.5157233 2.8405085 1.4278 -0.57347935 -1.2776965 0.974712 0.332266
7.028915 1.3391672 2.8405085 0 4.4027138e-07 -2 0.96309197 0.477958
6.878895 -0.61804926 2.902246 1.4984938 -1.3245816 -3.5624275e-06 0.662645 0.860217
6.5687947 -0.96886134 2.566408 1.0461138 -1.6382077 -0.47108567 0.616796 0.827195
7.1889896 -0.26723778 2.566408 1.6965468 -0.95622003 -0.4553817 0.708494 0.827195
6.5687947 -0.9688613 2.902246 0.8801843 -1.7959052 1.3558707e-07 0.616796 0.860216
6.381365 -0.9809655 0.03654055 0.12888768 -1.9958426 1.5068193e-07 0.602572 0.578439
6.5687947 -0.9688615 0.03654055 0.97474927 -1.7463858 1.3184847e-07 0.616796 0.578439
7.18558 1.1428148 2.566408 -0.17541006 -0.44154912 -1.942747 0.848312 0.826765
7.227715 0.054356188 2.475604 1.9266331 0.49459565 -0.20847109 0.741747 0.817878
7.1612496 1.0835367 2.475604 1.9742408 -0.24270965 -0.20848319 0.842677 0.817878
6.72884 1.7054918 2.9022458 1.3156801 1.5063154 3.5487096e-06 0.92096597 0.85959
7.081485 1.3974787 2.566408 1.1107854 -0.73434544 -1.4922776 0.875145 0.826718
6.3761997 2.0135047 2.5664077 1.6484447 0.8699408 -0.7251437 0.966788 0.826726
7.18558 1.1428145 0.03654039 1.9552624 0.4206528 -3.1758404e-08 0.580579 0.571495
7.18558 1.1428148 2.902246 1.9490255 0.44866377 -3.3873174e-08 0.580579 0.571495
7.18558 1.1428148 2.566408 -0.17541006 -0.44154912 -1.942747 0.580579 0.571495
7.1889896 -0.267238 0.036540493 1.7134346 -1.0315727 7.788157e-08 0.580579 0.571495
7.1889896 -0.26723778 2.902246 1.7632895 -0.94382745 7.125699e-08 0.580579 0.571495
7.1889896 -0.26723778 2.566408 1.6965468 -0.95622003 -0.4553817 0.580579 0.571495
7.22252 0.5707572 2.902246 1.9958426 0.12888801 6.555109e-06 0.792212 0.859632
7.2594647 -0.0013002898 2.566408 1.5062884 -1.3073196 -0.14835884 0.736111 0.826765
7.07816 -0.21393894 0.82396996 0.23321632 -1.8641046 0.6860937 0.702283 0.655865
7.1889896 -0.267238 0.036540493 1.7134346 -1.0315727 7.788157e-08 0.708494 0.57844
6.502825 -0.86481434 2.501028 1.8110327 -0.26369536 -0.80661356 0.622251 0.820766
7.07816 -0.2139388 2.501028 0.47828928 -1.7665921 -0.8064689 0.702283 0.820766
6.33522 1.9025506 0.82396984 1.8491608 0.359729 0.67171425 0.960953 0.656121
6.3761997 2.0135045 0.036540322 0.73824376 1.858762 -1.4033263e-07 0.966788 0.579133
7.1612496 1.0835366 0.84939396 1.9701203 -0.28595662 0.19197685 0.842677 0.65873
7.18558 1.1428145 0.03654039 1.9552624 0.4206528 -3.1758404e-08 0.848312 0.57918
6.33522 1.9025507 2.5010278 1.7471887 0.57439077 -0.7857525 0.960952 0.820251
7.18558 1.1428145 0.7585899 1.9818816 0.1279883 0.23614496 0.848312 0.649843
7.227715 0.054356065 0.849394 1.916986 0.53694886 0.19196528 0.741747 0.65873
7.2594647 -0.0013004262 0.75859 1.9818835 0.12798664 0.23613049 0.736111 0.649843
7.18558 1.1428148 2.902246 1.9490255 0.44866377 -3.3873174e-08 0.848312 0.859632
7.2594647 -0.0013004807 0.036540475 1.9931264 -0.16567159 1.2507857e-08 0.736111 0.57918
7.1889896 -0.26723793 0.75859 1.3266225 -1.1726573 0.93002564 0.708494 0.649437
6.502825 -0.86481446 0.82397 1.8785437 -0.0102140065 0.6862718 0.622252 0.655865
6.5687947 -0.96886146 0.75859004 1.3274586 -1.1733967 0.9278972 0.616796 0.649437
7.1889896 -0.26723778 2.902246 1.7632895 -0.94382745 7.125699e-08 0.708494 0.860217
7.081485 1.3974785 0.75858986 1.1668926 1.3359694 0.92387635 0.875145 0.64979
7.081485 1.3974785 0.03654037 1.5711006 1.2375957 -9.343588e-08 0.875145 0.579125
6.3761997 2.0135047 2.9022453 0.641896 1.8941936 -1.4300764e-07 0.966788 0.859594
6.98949 1.3310821 0.82396984 -0.05685287 1.8843254 0.667896 0.879941 0.65611297
6.98949 1.3310822 2.501028 0.20567429 1.8292314 -0.7820554 0.879941 0.820244
6.5687947 -0.9688613 2.902246 0.8801843 -1.7959052 1.3558707e-07 0.580579 0.571495
6.5687947 -0.9688615 0.03654055 0.97474927 -1.7463858 1.3184847e-07 0.580579 0.571495
6.5687947 -0.96886134 2.566408 1.0461138 -1.6382077 -0.47108567 0.580579 0.571495
7.2594647 -0.0013002644 2.902246 1.9905441 -0.19425386 1.4665759e-08 0.580579 0.571495
7.2594647 -0.0013004807 0.036540475 1.9931264 -0.16567159 1.2507857e-08 0.580579 0.571495
7.2594647 -0.0013002898 2.566408 1.5062884 -1.3073196 -0.14835884 0.580579 0.571495
6.188765 2.0014002 2.9022453 -0.12889144 1.9958425 -1.5068191e-07 0.979985 0.859504
7.1889896 -0.267238 0.036540493 1.7134346 -1.0315727 7.788157e-08 0.710583 0.57918
7.2594647 -0.0013002644 2.902246 1.9905441 -0.19425386 1.4665759e-08 0.736111 0.859632
7.1889896 -0.26723778 2.902246 1.7632895 -0.94382745 7.125699e-08 0.710583 0.859632
7.081485 1.3974787 2.902246 1.6272455 1.1627865 -8.778794e-08 0.87384 0.859632
7.081485 1.3974787 2.902246 1.6272455 1.1627865 -8.778794e-08 0.580579 0.571495
7.081485 1.3974785 0.03654037 1.5711006 1.2375957 -9.343588e-08 0.580579 0.571495
7.081485 1.3974787 2.566408 1.1107854 -0.73434544 -1.4922776 0.580579 0.571495
5.3696647 -4.141013 3.7031157 1.5561366 0.14787257 -1.2476267 0.346874 0.160217
5.379455 -4.2780204 3.7100308 1.2564758 -1.3836615 0.7118633 0.337766 0.182942
5.3782496 -4.2611265 3.6612792 1.2024984 -0.6276653 -1.4697053 0.346953 0.18291
3.417925 -4.418168 3.7100308 0.12827845 -1.7954129 0.8718008 0.053470958 0.01575595
3.305953 -4.409188 3.6612792 -1.1010302 -0.7922113 -1.4697392 0.03964197 0.009373962
3.416718 -4.401274 3.6612792 0.062125985 -0.8695617 -1.8000008 0.053470958 0.009373962
3.2985785 -4.305969 3.7518668 -1.377545 -0.5637208 1.3358847 0.337623 0.160082
3.2468214 -3.5815732 3.9495432 -1.9949145 -0.14253335 1.1874487e-05 0.346347 0.02638095
3.2973714 -4.2890744 3.7031157 -1.5613285 -0.074864134 -1.2476573 0.34680998 0.160051
5.3708696 -4.1579065 3.7518668 1.443651 -0.36214614 1.3359349 0.297277 0.03838199
5.20956 -3.4583192 3.9982932 0.04677437 -0.654686 1.8892322 0.283549 0.126067
5.26011 -4.1658206 3.7518668 0.0467777 -0.65468925 1.889231 0.283549 0.03838199
3.4093425 -4.298054 3.7518668 0.046779636 -0.6546854 1.8892323 0.05417197 0.03838199
3.2480285 -3.5984678 3.9982932 -1.3775431 -0.56371343 1.33589 0.04044395 0.126067
3.2985785 -4.305969 3.7518668 -1.377545 -0.5637208 1.3358847 0.04044395 0.03838199
3.358793 -3.5905533 3.9982932 0.046778284 -0.65468514 1.8892324 0.05417197 0.126067
3.4081354 -4.2811604 3.7031157 0.17343077 0.3803118 -1.9558334 0.340203 0.343043
3.364431 -3.6694622 3.7187161 1.9949147 0.1425324 -1.0175361e-07 0.378097 0.22445899
3.357586 -3.5736592 3.9495432 0.90138394 0.6443435 -1.6650311 0.340258 0.190661
3.4081354 -4.2811604 3.7031157 0.17343077 0.3803118 -1.9558334 0.05459696 0.03839296
5.2083497 -3.4414258 3.9495432 -0.9838675 0.50963885 -1.6650144 0.283975 0.126079
5.2588997 -4.148927 3.7031157 -0.22573479 0.35179558 -1.9558332 0.283975 0.03839296
5.379455 -4.2780204 3.7100308 1.2564758 -1.3836615 0.7118633 0.298358 0.01575595
5.2674847 -4.2690406 3.6612792 0.062126692 -0.8695562 -1.8000034 0.284529 0.009373962
5.3782496 -4.2611265 3.6612792 1.2024984 -0.6276653 -1.4697053 0.298358 0.009373962
5.2686896 -4.285934 3.7100308 0.12827806 -1.7954065 0.87181425 0.284529 0.01575595
3.416718 -4.401274 3.6612792 0.062125985 -0.8695617 -1.8000008 0.05459696 0.02350699
5.2674847 -4.2690406 3.6612792 0.062126692 -0.8695562 -1.8000034 0.283975 0.02350699
5.3782496 -4.2611265 3.6612792 1.2024984 -0.6276653 -1.4697053 0.29770198 0.02350699
5.3696647 -4.141013 3.7031157 1.5561366 0.14787257 -1.2476267 0.29770198 0.03839296
5.2686896 -4.285934 3.7100308 0.12827806 -1.7954065 0.87181425 0.283549 0.02349597
3.417925 -4.418168 3.7100308 0.12827845 -1.7954129 0.8718008 0.05417197 0.02349495
3.30716 -4.426082 3.7100308 -1.0469645 -1.5482678 0.7118513 0.04044395 0.02349495
3.305953 -4.409188 3.6612792 -1.1010302 -0.7922113 -1.4697392 0.04086995 0.02350699
3.30716 -4.426082 3.7100308 -1.0469645 -1.5482678 0.7118513 0.337701 0.182776
3.305953 -4.409188 3.6612792 -1.1010302 -0.7922113 -1.4697392 0.346888 0.182744
5.3191147 -3.4335113 3.9495432 1.9949133 0.1425499 -7.645449e-05 0.346412 0.02654796
5.3708696 -4.1579065 3.7518668 1.443651 -0.36214614 1.3359349 0.337687 0.1602489
3.2973714 -4.2890744 3.7031157 -1.5613285 -0.074864134 -1.2476573 0.0077199927 0.125788
3.3683164 -3.7238467 3.5450213 1.4504013 -0.27891296 -1.348534 0.02706998 0.026362
3.4081354 -4.2811604 3.7031157 0.17343077 0.3803118 -1.9558334 0.02748799 0.125705
3.2536664 -3.6773763 3.7187161 -1.9949147 -0.14253409 3.8754997e-06 0.379653 0.055902
3.257552 -3.7317607 3.5450213 -1.3960031 -0.48228815 -1.348545 0.405742 0.07512795
5.3696647 -4.141013 3.7031157 1.5561366 0.14787257 -1.2476267 0.324723 0.125554
5.2190847 -3.5916138 3.5450213 -1.3959872 -0.48228016 -1.3485643 0.304537 0.02629399
5.329845 -3.5836987 3.5450213 1.4503921 -0.27891415 -1.3485435 0.324305 0.02621096
5.3259597 -3.5293148 3.7187161 1.9949147 0.14253405 -5.9378835e-06 0.379717 0.05606895
5.2588997 -4.148927 3.7031157 -0.22573479 0.35179558 -1.9558332 0.340203 0.343043
5.2151947 -3.5372293 3.7187161 -1.9949147 -0.14253366 -2.4204459e-05 0.378097 0.22445899
5.2190847 -3.5916138 3.5450213 -1.3959872 -0.48228016 -1.3485643 0.407755 0.246489
-9.265525 -1.6630757 4.0670414 0.14786008 -1.5560882 -1.2476887 0.346874 0.160217
-9.4025345 -1.6728641 4.073956 -1.3836774 -1.2564536 0.71187174 0.337766 0.182942
-9.38564 -1.6716577 4.025206 -0.62768745 -1.2025019 -1.4696931 0.346953 0.18291
-9.54268 0.2886658 4.073956 -1.7954212 -0.12829004 0.87178206 0.053470958 0.01575595
-9.5337 0.4006373 4.025206 -0.79223096 1.1010426 -1.4697196 0.03964197 0.009373962
-9.5257845 0.2898728 4.025206 -0.8694991 -0.062127974 -1.800031 0.053470958 0.009373962
-9.43048 0.4080123 4.1157923 -0.5637236 1.3775252 1.3359044 0.337623 0.160082
-8.706085 0.45976883 4.3134685 -0.14253058 1.9949148 -1.1870102e-06 0.346347 0.02638095
-9.4135895 0.4092193 4.0670414 -0.07487492 1.5613322 -1.2476522 0.34680998 0.160051
-9.28242 -1.6642832 4.1157923 -0.3621422 -1.4437085 1.3358737 0.297277 0.03838199
-8.582829 -1.5029687 4.3622193 -0.65468794 -0.04676166 1.8892318 0.283549 0.126067
-9.290335 -1.5535182 4.1157923 -0.65469044 -0.046777166 1.8892306 0.283549 0.03838199
-9.4225645 0.2972478 4.1157923 -0.6546828 -0.04678007 1.8892332 0.05417197 0.03838199
-8.72298 0.45856184 4.3622193 -0.5637209 1.3775443 1.3358855 0.04044395 0.126067
-9.43048 0.4080123 4.1157923 -0.5637236 1.3775252 1.3359044 0.04044395 0.03838199
-8.715065 0.34779733 4.3622193 -0.6546908 -0.04677793 1.8892304 0.05417197 0.126067
-9.405675 0.2984548 4.0670414 0.38030735 -0.17342767 -1.9558346 0.340203 0.343043
-8.793975 0.3421593 4.082643 0.14253168 -1.9949147 -1.4567939e-06 0.378097 0.22445899
-8.69817 0.34900433 4.3134685 0.64434004 -0.9013787 -1.6650352 0.340258 0.190661
-9.405675 0.2984548 4.0670414 0.38030735 -0.17342767 -1.9558346 0.05459696 0.03839296
-8.56594 -1.5017617 4.3134685 0.5096373 0.9838789 -1.6650082 0.283975 0.126079
-9.273439 -1.5523106 4.0670414 0.35178578 0.22573417 -1.9558351 0.283975 0.03839296
-9.4025345 -1.6728641 4.073956 -1.3836774 -1.2564536 0.71187174 0.298358 0.01575595
-9.393555 -1.5608926 4.025206 -0.869564 -0.062113944 -1.8 0.284529 0.009373962
-9.38564 -1.6716577 4.025206 -0.62768745 -1.2025019 -1.4696931 0.298358 0.009373962
-9.410445 -1.5620996 4.073956 -1.7954088 -0.12825178 0.8718131 0.284529 0.01575595
-9.5257845 0.2898728 4.025206 -0.8694991 -0.062127974 -1.800031 0.05459696 0.02350699
-9.393555 -1.5608926 4.025206 -0.869564 -0.062113944 -1.8 0.283975 0.02350699
-9.265525 -1.6630757 4.0670414 0.14786008 -1.5560882 -1.2476887 0.29770198 0.03839296
-9.38564 -1.6716577 4.025206 -0.62768745 -1.2025019 -1.4696931 0.29770198 0.02350699
-9.410445 -1.5620996 4.073956 -1.7954088 -0.12825178 0.8718131 0.283549 0.02349597
-9.54268 0.2886658 4.073956 -1.7954212 -0.12829004 0.87178206 0.05417197 0.02349495
-9.550594 0.39943027 4.073956 -1.5482789 1.0469546 0.71184117 0.04044395 0.02349495
-9.4025345 -1.6728641 4.073956 -1.3836774 -1.2564536 0.71187174 0.297277 0.02349597
-9.5337 0.4006373 4.025206 -0.79223096 1.1010426 -1.4697196 0.04086995 0.02350699
-9.550594 0.39943027 4.073956 -1.5482789 1.0469546 0.71184117 0.337701 0.182776
-9.5337 0.4006373 4.025206 -0.79223096 1.1010426 -1.4697196 0.346888 0.182744
-8.558024 -1.6125267 4.3134685 0.14253078 -1.9949148 -6.99537e-08 0.346412 0.02654796
-9.28242 -1.6642832 4.1157923 -0.3621422 -1.4437085 1.3358737 0.337687 0.1602489
-9.4135895 0.4092193 4.0670414 -0.07487492 1.5613322 -1.2476522 0.0077199927 0.125788
-8.84836 0.3382738 3.908947 -0.2789128 -1.4504027 -1.3485326 0.02706998 0.026362
-9.405675 0.2984548 4.0670414 0.38030735 -0.17342767 -1.9558346 0.02748799 0.125705
-8.801889 0.4529238 4.082643 -0.14253181 1.9949147 3.6820984e-07 0.379653 0.055902
-8.856275 0.4490383 3.908947 -0.4822864 1.396001 -1.3485478 0.405742 0.07512795
-9.273439 -1.5523106 4.0670414 0.35178578 0.22573417 -1.9558351 0.304955 0.1256369
-8.70821 -1.6232568 3.9089472 -0.27891576 -1.4503953 -1.3485397 0.324305 0.02621096
-9.265525 -1.6630757 4.0670414 0.14786008 -1.5560882 -1.2476887 0.324723 0.125554
-8.65383 -1.6193706 4.082643 0.14253499 -1.9949145 -3.8458375e-06 0.379717 0.05606895
-9.273439 -1.5523106 4.0670414 0.35178578 0.22573417 -1.9558351 0.340203 0.343043
-8.661739 -1.5086062 4.082643 -0.14253151 1.9949148 1.9810595e-06 0.378097 0.22445899
-8.716125 -1.5124917 3.908947 -0.48228616 1.3960018 -1.3485469 0.407755 0.246489
-2.622576 -3.948542 6.01658 0.75728065 0.05410931 -1.8502969 0.982001 0.010149
-2.6508749 -3.5524604 4.851855 -1.9949148 -0.14253171 1.0760845e-08 0.929194 0.03617697
-2.622576 -3.948542 4.851855 -1.9949149 -0.14253062 1.0760763e-08 0.929195 0.01014596
-0.180567 -3.375962 4.851855 1.9949147 0.14253241 1.2910621e-07 0.928975 0.036017
-0.15226799 -3.7720425 6.01658 -0.75728136 -0.05410731 -1.8502966 0.981782 0.009988963
-0.15226799 -3.7720425 4.851855 1.9949147 0.14253208 -1.0760873e-08 0.928976 0.009985982
-1.387422 -3.860292 7.1193604 -1.2794802 -0.09142022 1.5344617 0.886877 0.109857
-2.7853155 -1.670809 6.0841947 -1.2836157 -0.09171206 1.5309865 0.761971 0.02157896
-2.622576 -3.948542 6.084195 -1.286993 -0.091954276 1.528134 0.886859 0.02157896
-2.622576 -3.948542 6.01658 0.75728065 0.05410931 -1.8502969 0.934621 0.23412791
-2.9968805 -1.956439 5.8192496 -0.0919165 -0.0065675564 -1.9978759 0.787185 0.255032
-2.7853155 -1.670809 6.0165796 -0.014779209 -0.0010554893 -1.9999452 0.767429 0.23412791
-1.37414 -4.0461917 7.05174 0.12585884 -1.7614832 -0.9387955 0.541354 0.254807
-2.6092935 -4.1344404 6.084195 -0.81083155 -1.4735368 1.0822393 0.428587 0.166513
-2.6092935 -4.1344404 6.01658 1.0095644 -1.347911 -1.0788491 0.428587 0.160342
-0.138986 -3.9579415 6.084195 0.14252393 -1.9949151 1.5061191e-07 0.654121 0.166512
-1.37414 -4.0461917 7.1193604 -0.7488613 -1.5453165 1.0252823 0.541354 0.260978
-0.15226799 -3.7720425 6.01658 -0.75728136 -0.05410731 -1.8502966 0.934284 0.233866
-1.37414 -4.0461917 7.05174 0.12585884 -1.7614832 -0.9387955 0.94793 0.123048
-1.387422 -3.860292 7.05174 7.270253e-06 -7.14305e-06 -2 0.934284 0.123048
-1.37414 -4.0461917 7.1193604 -0.7488613 -1.5453165 1.0252823 0.897072 0.109857
-1.387422 -3.860292 7.05174 7.270253e-06 -7.14305e-06 -2 0.934621 0.12331
-2.6092935 -4.1344404 6.01658 1.0095644 -1.347911 -1.0788491 0.948267 0.23412791
-0.0649835 -1.7469605 5.8192496 0.09194181 0.0065689613 -1.9978749 0.986226 0.009409964
0.07852645 -3.755553 5.8868704 1.9949148 0.14253171 -1.0760845e-08 0.989774 0.162544
0.07852645 -3.755553 5.81925 0.8358467 0.059715506 -1.815983 0.986217 0.162544
-2.8533704 -3.965031 5.81925 -0.8358087 -0.05971473 -1.8160006 0.989757 0.162796
-2.9968805 -1.956439 5.88687 -1.7324994 -0.12378441 0.9915258 0.9862 0.009661972
-2.9968805 -1.956439 5.8192496 -0.0919165 -0.0065675564 -1.9978759 0.989756 0.009661972
-2.8400886 -4.1509304 5.8868704 -1.3267385 -1.3456657 0.6549421 0.9862 0.176968
-2.8533704 -3.965031 5.8868704 -1.8113605 -0.12941639 0.83798844 0.9862 0.162796
0.09180845 -3.941452 5.81925 0.776755 -1.04542 -1.5178103 0.986217 0.176716
-2.8400886 -4.1509304 5.8868704 -1.3267385 -1.3456657 0.6549421 0.407516 0.148505
-2.8400886 -4.1509304 5.81925 -0.6203441 -1.1452132 -1.5177813 0.407516 0.142334
0.09180845 -3.941452 5.81925 0.776755 -1.04542 -1.5178103 0.94793 0.25476998
-0.138986 -3.9579415 6.01658 -0.80767006 -1.4777535 -1.0788481 0.94793 0.233866
-0.138986 -3.9579415 6.01658 -0.80767006 -1.4777535 -1.0788481 0.654121 0.160342
0.09180845 -3.941452 5.8868704 1.2501494 -1.5611298 1.1786202e-07 0.675193 0.148505
-2.8400886 -4.1509304 5.8868704 -1.3267385 -1.3456657 0.6549421 0.896972 0.0049859877
-2.6092935 -4.1344404 6.084195 -0.81083155 -1.4735368 1.0822393 0.897052 0.02157896
-0.0649835 -1.7469605 5.8192496 0.09194181 0.0065689613 -1.9978749 0.786847 0.25476998
0.07852645 -3.755553 5.81925 0.8358467 0.059715506 -1.815983 0.934284 0.25476998
-2.9968805 -1.956439 5.88687 -1.7324994 -0.12378441 0.9915258 0.776727 0.0049859877
-2.8533704 -3.965031 5.8868704 -1.8113605 -0.12941639 0.83798844 0.886786 0.0049859877
-2.8533704 -3.965031 5.81925 -0.8358087 -0.05971473 -1.8160006 0.934621 0.255032
-1.388229 -3.8603494 7.05174 0.1431134 -1.994873 -0.00030037152 0.54308 0.241548
-2.0062096 -3.9045036 6.53416 0.14252932 -1.994915 5.044943e-08 0.4779 0.1870959
-1.856812 -3.8938293 6.4087253 0.14253125 -1.9949148 4.2368487e-07 0.493658 0.1738989
-1.8551135 -3.8937075 5.5375853 0.1425329 -1.9949148 -7.560787e-08 0.493837 0.08225196
-2.622576 -3.948542 4.851855 0.14253557 -1.9949145 5.409721e-07 0.412891 0.01010996
-1.79914 -3.8897085 4.851855 0.14253329 -1.9949145 5.863782e-07 0.499741 0.01010996
-0.15226799 -3.7720425 4.851855 0.14253402 -1.9949145 -1.856166e-07 0.67344 0.01010996
-0.9197305 -3.826877 5.5375853 0.14253312 -1.9949147 5.8749826e-08 0.592494 0.08225196
-0.975704 -3.830876 4.851855 0.14253293 -1.9949147 -4.4251487e-07 0.58659 0.01010996
-0.7686345 -3.8160815 6.53416 0.14253138 -1.9949148 -1.5589344e-06 0.608431 0.1870959
-1.3866149 -3.860234 7.05174 0.14249335 -1.9949174 -0.00021805077 0.543251 0.241548
-0.918032 -3.8267555 6.4087253 0.1425326 -1.9949147 3.3992313e-07 0.592673 0.1738989
-0.15226799 -3.7720425 6.01658 0.14253491 -1.9949145 1.14903095e-07 0.67344 0.13264391
-2.622576 -3.948542 6.01658 0.1425347 -1.9949145 -3.3416552e-07 0.412891 0.13264391
-0.3150075 -1.4943105 6.0841947 1.2836157 0.091711715 1.5309867 0.763273 0.202785
-1.387422 -3.860292 7.1193604 1.2794785 0.091419026 1.5344633 0.88746 0.114908
-0.15226799 -3.7720425 6.084195 1.2869924 0.09195116 1.5281346 0.886359 0.2026129
-0.138986 -3.9579415 6.084195 1.2869927 0.0919501 1.5281346 0.896398 0.202599
0.07852645 -3.755553 5.8868704 1.2944754 0.09248639 1.5217686 0.886078 0.218809
-0.0649835 -1.7469605 5.88687 1.294475 0.09248737 1.5217692 0.777932 0.218969
-9.62367 4.0031266 4.3904114 -1.2311066 1.5761688 -0.008268361 0.489561 0.417808
6.76003 0.53982955 7.3689346 1.2031853 0.08593728 1.595293 0.81403 0.296382
6.4306297 5.1501756 4.3904114 0.994496 1.7351973 -0.008228043 0.81403 0.417808
7.08943 -4.070514 4.3904123 1.2311094 -1.5761665 -0.008284843 0.813676 0.433914
-9.29427 -0.60721844 7.3689346 -1.2031852 -0.08593683 1.595293 0.489206 0.554734
-8.9648695 -5.2175646 4.3904123 -0.9944941 -1.7351985 -0.008224489 0.489206 0.433914
6.76003 0.53982955 7.26287 1.7021 0.12162832 -1.0431019 0.813975 0.417631
-9.61524 3.8851306 4.315827 -1.2026519 -0.09939802 -1.5949134 0.489505 0.296733
6.4390597 5.0321803 4.315827 1.2045342 0.07255961 -1.5949397 0.813975 0.296733
-9.29427 -0.60721844 7.26287 -1.7020998 -0.121628076 -1.0431027 0.489505 0.43407
7.0810003 -3.9525192 4.315828 1.202642 0.099395834 -1.5949209 0.813975 0.554968
-8.9733 -5.0995693 4.315828 -1.2045383 -0.072561055 -1.5949365 0.489505 0.554968
-8.9648695 -5.2175646 4.3904123 -0.9944941 -1.7351985 -0.008224489 0.489684 0.290216
7.0810003 -3.9525192 4.315828 1.202642 0.099395834 -1.5949209 0.815161 0.268549
7.08943 -4.070514 4.3904123 1.2311094 -1.5761665 -0.008284843 0.815161 0.290216
6.4306297 5.1501756 4.3904114 0.994496 1.7351973 -0.008228043 0.813981 0.268314
-9.61524 3.8851306 4.315827 -1.2026519 -0.09939802 -1.5949134 0.489512 0.290408
-9.62367 4.0031266 4.3904114 -1.2311066 1.5761688 -0.008268361 0.489512 0.268314
-8.9648695 -5.2175646 4.3904123 -0.9944941 -1.7351985 -0.008224489 0.823012 0.312654
-9.29427 -0.60721844 7.26287 -1.7020998 -0.121628076 -1.0431027 0.888887 0.418653
-8.9733 -5.0995693 4.315828 -1.2045383 -0.072561055 -1.5949365 0.821302 0.315367
7.08943 -4.070514 4.3904123 1.2311094 -1.5761665 -0.008284843 0.832137 0.303348
6.76003 0.53982955 7.26287 1.7021 0.12162832 -1.0431019 0.903056 0.417464
6.76003 0.53982955 7.3689346 1.2031853 0.08593728 1.595293 0.905675 0.417464
6.4306297 5.1501756 4.3904114 0.994496 1.7351973 -0.008228043 0.832137 0.53158
6.4390597 5.0321803 4.315827 1.2045342 0.07255961 -1.5949397 0.830296 0.528659
-9.62367 4.0031266 4.3904114 -1.2311066 1.5761688 -0.008268361 0.823012 0.524651
-9.29427 -0.60721844 7.3689346 -1.2031852 -0.08593683 1.595293 0.891319 0.418653
-9.45939 -1.509243 0.33872512 -1.0692703 -1.2323108 1.1567503 0.06447196 0.353313
6.20251 1.6370245 6.580545 1.9949163 0.14250752 -3.945033e-05 0.475861 0.948156
-8.745009 -1.691564 6.580545 -1.9949151 -0.14252551 -6.243221e-06 0.187432 0.94886
-8.66029 -1.4521492 4.0961146 -1.2340317 1.0694765 -1.1547234 0.182654 0.847161
-8.78549 0.3001243 4.0961146 -1.0694636 -1.2340692 -1.154695 0.120339 0.851482
-8.78549 0.3001243 4.0961146 -1.0694636 -1.2340692 -1.154695 0.421769 0.496694
-8.78549 0.30012405 0.65982497 -1.0694405 -1.2340614 1.1547247 0.114568 0.719001
-8.66029 -1.452149 0.6598251 -1.234052 1.0694821 1.1546966 0.288624 0.249236
-9.15979 -1.4878376 0.6598251 -1.0694836 -1.2340701 1.1546757 0.01091694 0.353599
-9.45939 -1.509243 0.33872512 -1.0692703 -1.2323108 1.1567503 0.203128 0.35378
-9.584585 0.24303 0.032057982 -1.5114028 1.3098325 -9.88896e-08 0.153134 0.353402
-9.584585 0.24303003 0.33289397 -1.2345334 1.0711534 1.1526308 0.246184 0.35378098
-9.15979 -1.4878376 0.6598251 -1.0694836 -1.2340701 1.1546757 0.1572279 0.35378
-9.284989 0.26443556 0.65982497 -1.2340294 1.0695155 1.1546896 0.270918 0.353779
-9.284989 0.26443553 0.33289397 -1.5100198 1.3114266 -9.900996e-08 0.06160098 0.292972
3.428687 -3.6338122 3.7905526 1.2340659 -1.0694498 -1.1547111 0.359676 0.505073
3.467729 -4.180254 0.24129382 -1.0708512 -1.2344487 1.1530024 0.01852899 0.2003509
5.12436 -3.5126603 3.7905526 -1.0694909 -1.2340354 -1.1547059 0.421366 0.491242
5.12436 -3.5126605 0.47002527 -1.0694923 -1.2340188 1.1547223 0.367481 0.386348
3.428687 -3.6338124 0.47002527 1.2340678 -1.0694658 1.1546947 0.263413 0.147144
3.428687 -3.6338122 3.7905526 1.2340659 -1.0694498 -1.1547111 0.427765 0.49019998
3.450041 -3.932681 0.4700258 -1.0694686 -1.2340498 1.1547111 0.104219 0.198656
5.1633997 -4.059103 0.24578932 1.2326488 -1.0692978 1.1563648 0.1853269 0.243465
5.1633997 -4.059103 0.24578932 1.2326488 -1.0692978 1.1563648 0.01890099 0.242089
5.1633997 -4.059103 0.24578932 1.2326488 -1.0692978 1.1563648 0.263413 0.243468
5.1457148 -3.8115294 0.4700258 1.2340659 -1.0694615 1.1547005 0.1853269 0.147144
5.1457148 -3.8115294 0.4700258 1.2340659 -1.0694615 1.1547005 0.104013 0.242703
5.1457148 -3.8115294 0.4700258 1.2340659 -1.0694615 1.1547005 0.289098 0.2434639
5.991935 2.4464612 2.9163988 -0.11399025 1.7651378 0.9334318 0.584586 0.869425
6.2434096 -1.4476453 2.916399 0.113986395 -1.7651234 0.93345916 0.616808 0.987237
6.2434096 -1.4476453 2.8405085 0.0999863 -1.5483338 -1.2620084 0.887973 0.265043
6.381365 -0.98096526 2.902246 0.12888938 -1.9958426 1.5068193e-07 0.602571 0.860216
7.081485 1.3974787 2.902246 1.6272455 1.1627865 -8.778794e-08 0.875145 0.859586
6.3761997 2.0135045 0.7585898 1.1821798 1.3534712 0.87781954 0.966788 0.649798
6.188765 2.0014 0.036540322 -0.12889141 1.9958423 -1.5068191e-07 0.979985 0.579043
7.081485 1.3974785 0.03654037 1.5711006 1.2375957 -9.343588e-08 0.87384 0.57918
3.30716 -4.426082 3.7100308 -1.0469645 -1.5482678 0.7118513 0.03964197 0.01575595
3.2480285 -3.5984678 3.9982932 -1.3775431 -0.56371343 1.33589 0.33716 0.02641296
5.320325 -3.4504058 3.9982932 1.4437457 -0.3621343 1.3358356 0.297277 0.126067
3.3683164 -3.7238467 3.5450213 1.4504013 -0.27891296 -1.348534 0.407755 0.246489
3.357586 -3.5736592 3.9495432 0.90138394 0.6443435 -1.6650311 0.05459696 0.126079
5.379455 -4.2780204 3.7100308 1.2564758 -1.3836615 0.7118633 0.297277 0.02349597
3.2973714 -4.2890744 3.7031157 -1.5613285 -0.074864134 -1.2476573 0.04086995 0.03839296
5.320325 -3.4504058 3.9982932 1.4437457 -0.3621343 1.3358356 0.337224 0.02657997
3.257552 -3.7317607 3.5450213 -1.3960031 -0.48228815 -1.348545 0.0073019858 0.02644497
5.2588997 -4.148927 3.7031157 -0.22573479 0.35179558 -1.9558332 0.304955 0.1256369
5.329845 -3.5836987 3.5450213 1.4503921 -0.27891415 -1.3485435 0.405807 0.07529395
5.2083497 -3.4414258 3.9495432 -0.9838675 0.50963885 -1.6650144 0.340258 0.190661
-9.550594 0.39943027 4.073956 -1.5482789 1.0469546 0.71184117 0.03964197 0.01575595
-8.72298 0.45856184 4.3622193 -0.5637209 1.3775443 1.3358855 0.33716 0.02641296
-8.57492 -1.6137336 4.3622193 -0.3621588 -1.4436743 1.3359063 0.297277 0.126067
-8.84836 0.3382738 3.908947 -0.2789128 -1.4504027 -1.3485326 0.407755 0.246489
-8.69817 0.34900433 4.3134685 0.64434004 -0.9013787 -1.6650352 0.05459696 0.126079
-9.4135895 0.4092193 4.0670414 -0.07487492 1.5613322 -1.2476522 0.04086995 0.03839296
-8.57492 -1.6137336 4.3622193 -0.3621588 -1.4436743 1.3359063 0.337224 0.02657997
-8.856275 0.4490383 3.908947 -0.4822864 1.396001 -1.3485478 0.0073019858 0.02644497
-8.716125 -1.5124917 3.908947 -0.48228616 1.3960018 -1.3485469 0.304537 0.02629399
-8.70821 -1.6232568 3.9089472 -0.27891576 -1.4503953 -1.3485397 0.405807 0.07529395
-8.56594 -1.5017617 4.3134685 0.5096373 0.9838789 -1.6650082 0.340258 0.190661
-2.7853155 -1.670809 6.0165796 -0.014779209 -0.0010554893 -1.9999452 0.981993 0.1598449
-0.3150075 -1.4943105 6.0165796 0.01477809 0.0010550594 -1.9999452 0.981774 0.159684
-1.638936 -0.34005797 7.11936 -1.2794799 -0.09141669 1.5344621 0.693831 0.109857
-1.37414 -4.0461917 7.05174 0.12585884 -1.7614832 -0.9387955 0.948267 0.12331
-0.0649835 -1.7469605 5.88687 1.9949145 0.14253345 -1.0760976e-08 0.989782 0.009409964
-2.8400886 -4.1509304 5.81925 -0.6203441 -1.1452132 -1.5177813 0.989757 0.176968
0.09180845 -3.941452 5.8868704 1.2501494 -1.5611298 1.1786202e-07 0.989773 0.176717
0.09180845 -3.941452 5.81925 0.776755 -1.04542 -1.5178103 0.675193 0.142334
-0.3150075 -1.4943105 6.0165796 0.01477809 0.0010550594 -1.9999452 0.767092 0.233866
-2.8400886 -4.1509304 5.81925 -0.6203441 -1.1452132 -1.5177813 0.948267 0.255032
-1.389843 -3.8604655 7.05174 0.14362817 -1.9948359 -0.0011753775 0.54291 0.241548
-1.385001 -3.8601193 7.05174 0.14170542 -1.9949733 -0.0009119208 0.543421 0.241548
-1.638936 -0.34005797 7.11936 1.2794797 0.09141618 1.5344622 0.694431 0.115093
0.09180845 -3.941452 5.8868704 1.2944776 0.0924866 1.5217667 0.896082 0.218795
-1.37414 -4.0461917 7.1193604 1.2794769 0.09142213 1.5344644 0.89764297 0.114899
-9.29427 -0.60721844 7.3689346 -1.2031852 -0.08593683 1.595293 0.489561 0.296382
6.76003 0.53982955 7.3689346 1.2031853 0.08593728 1.595293 0.813676 0.554734
-9.29427 -0.60721844 7.26287 -1.7020998 -0.121628076 -1.0431027 0.489505 0.417631
6.76003 0.53982955 7.26287 1.7021 0.12162832 -1.0431019 0.813975 0.43407
-8.9733 -5.0995693 4.315828 -1.2045383 -0.072561055 -1.5949365 0.489684 0.268549
6.4390597 5.0321803 4.315827 1.2045342 0.07255961 -1.5949397 0.813981 0.290407
7.0810003 -3.9525192 4.315828 1.202642 0.099395834 -1.5949209 0.830296 0.306269
-9.61524 3.8851306 4.315827 -1.2026519 -0.09939802 -1.5949134 0.821302 0.521938
3 0 1 2
3 3 4 5
3 6 7 3
3 8 9 10
3 4 11 12
3 11 13 12
3 14 15 11
3 16 17 18
3 19 20 21
3 20 22 21
3 23 24 25
3 26 27 28
3 29 30 31
3 16 32 33
3 34 16 33
3 8 34 35
3 6 36 37
3 36 14 37
3 14 38 39
3 22 8 40
3 40 35 41
3 42 19 43
3 20 44 9
3 44 45 9
3 45 46 17
3 47 26 48
3 31 49 50
3 51 52 31
3 26 53 27
3 54 55 56
3 57 58 59
3 42 47 48
3 22 52 51
3 60 61 62
3 63 64 65
3 53 21 27
3 55 2 56
3 49 35 50
3 10 45 16
3 66 67 68
3 69 70 71
3 72 73 74
3 75 76 77
3 78 79 80
3 28 81 26
3 31 30 51
3 82 83 84
3 85 86 87
3 88 89 90
3 91 92 93
3 77 94 75
3 95 96 97
3 98 99 100
3 101 102 103
3 100 99 104
3 99 105 104
3 103 106 105
3 102 54 106
3 98 107 108
3 107 101 108
3 109 110 101
3 111 0 110
3 103 108 101
3 55 110 0
3 61 3 57
3 5 57 3
3 61 112 6
3 113 114 115
3 116 117 118
3 119 116 120
3 121 122 123
3 124 125 126
3 123 127 121
3 119 121 127
3 125 128 118
3 122 129 130
3 131 130 129
3 125 132 133
3 120 129 121
3 134 135 136
3 119 137 116
3 138 124 139
3 140 141 142
3 143 144 145
3 146 147 148
3 149 150 151
3 152 153 154
3 124 126 139
3 118 155 131
3 120 118 131
3 156 117 116
3 137 156 116
3 157 158 159
3 160 161 162
3 163 164 165
3 166 167 168
3 169 170 171
3 172 148 147
3 40 49 52
3 47 19 53
3 11 37 14
3 173 174 175
3 176 175 177
3 178 179 180
3 181 182 183
3 184 185 180
3 180 186 178
3 176 187 188
3 189 190 182
3 173 188 190
3 191 186 192
3 181 193 184
3 194 195 196
3 196 197 198
3 199 200 201
3 202 203 204
3 201 205 202
3 198 206 207
3 208 209 194
3 204 210 208
3 184 211 181
3 180 212 184
3 213 177 214
3 191 215 178
3 189 211 174
3 216 217 218
3 219 220 221
3 222 223 224
3 225 226 227
3 224 228 219
3 229 230 217
3 231 218 226
3 225 232 222
3 233 234 235
3 236 237 238
3 239 240 241
3 242 243 244
3 245 246 247
3 248 249 250
3 251 252 239
3 235 253 254
3 235 255 256
3 244 257 258
3 239 259 260
3 243 261 244
3 262 263 264
3 265 251 239
3 260 264 266
3 267 268 269
3 238 267 269
3 270 233 235
3 258 271 272
3 273 242 244
3 271 257 274
3 243 274 275
3 252 263 240
3 276 277 278
3 279 280 281
3 234 268 255
3 258 282 273
3 283 284 285
3 260 286 265
3 287 288 289
3 241 263 259
3 256 268 253
3 261 274 257
3 290 291 292
3 293 294 295
3 296 297 298
3 299 300 301
3 302 303 304
3 301 305 302
3 306 307 308
3 309 310 311
3 312 313 314
3 315 295 313
3 316 311 317
3 318 311 319
3 320 302 321
3 322 302 304
3 320 299 301
3 323 309 316
3 324 298 325
3 326 327 290
3 328 329 330
3 298 331 332
3 333 334 335
3 290 336 326
3 337 338 339
3 340 341 342
3 343 344 345
3 346 347 348
3 349 350 351
3 352 353 354
3 351 355 352
3 356 357 358
3 359 360 361
3 362 363 364
3 365 345 363
3 366 361 367
3 367 368 369
3 370 352 371
3 371 354 372
3 373 351 370
3 374 359 366
3 375 348 376
3 377 378 340
3 379 380 381
3 348 382 383
3 384 385 386
3 340 387 377
3 388 389 390
3 391 392 393
3 394 395 396
3 397 398 399
3 400 401 402
3 403 404 405
3 403 406 407
3 408 409 410
3 399 411 397
3 412 413 400
3 414 415 416
3 417 418 419
3 417 420 421
3 415 422 416
3 405 423 424
3 408 425 426
3 427 428 406
3 399 429 430
3 408 431 432
3 399 433 434
3 413 435 400
3 436 437 438
3 439 440 441
3 442 443 444
3 443 441 444
3 445 446 447
3 446 438 447
3 448 447 443
3 438 449 439
3 443 438 439
3 450 451 452
3 453 454 452
3 451 453 452
3 452 455 450
3 456 457 458
3 459 460 461
3 462 463 464
3 465 466 467
3 468 469 470
3 471 472 473
3 474 475 476
3 477 478 479
3 480 478 481
3 482 475 483
3 3 7 4
3 6 37 7
3 8 20 9
3 4 7 11
3 11 15 13
3 14 39 15
3 16 45 17
3 20 8 22
3 23 484 24
3 16 18 32
3 34 10 16
3 8 10 34
3 6 112 36
3 36 485 14
3 14 485 38
3 40 8 35
3 42 20 19
3 20 42 44
3 44 486 45
3 45 486 46
3 47 53 26
3 31 52 49
3 57 5 58
3 42 43 47
3 22 40 52
3 60 112 61
3 63 487 64
3 53 19 21
3 55 0 2
3 49 41 35
3 10 9 45
3 66 488 67
3 69 489 70
3 72 490 73
3 75 491 76
3 78 492 79
3 82 493 83
3 85 494 86
3 88 495 89
3 91 496 92
3 77 497 94
3 95 498 96
3 98 108 99
3 101 110 102
3 99 103 105
3 103 102 106
3 102 55 54
3 107 109 101
3 109 111 110
3 111 1 0
3 103 99 108
3 55 102 110
3 61 6 3
3 113 499 114
3 121 129 122
3 124 132 125
3 119 120 121
3 125 133 128
3 131 155 130
3 120 131 129
3 134 500 135
3 140 501 141
3 143 502 144
3 146 503 147
3 149 504 150
3 152 505 153
3 118 128 155
3 120 116 118
3 157 506 158
3 160 507 161
3 163 508 164
3 166 509 167
3 169 510 170
3 172 511 148
3 40 41 49
3 47 43 19
3 11 7 37
3 173 189 174
3 176 173 175
3 178 215 179
3 181 189 182
3 184 193 185
3 180 185 186
3 176 213 187
3 189 173 190
3 173 176 188
3 191 178 186
3 181 183 193
3 194 209 195
3 196 195 197
3 199 512 200
3 202 205 203
3 201 200 205
3 198 197 206
3 208 210 209
3 204 203 210
3 184 212 211
3 180 179 212
3 213 176 177
3 191 513 215
3 189 181 211
3 216 229 217
3 219 228 220
3 222 232 223
3 225 231 226
3 224 223 228
3 229 514 230
3 231 216 218
3 225 227 232
3 233 236 234
3 236 515 237
3 239 252 240
3 242 516 243
3 251 284 252
3 235 256 253
3 235 234 255
3 244 261 257
3 239 241 259
3 243 275 261
3 262 259 263
3 260 262 264
3 267 253 268
3 238 254 267
3 258 517 271
3 271 517 257
3 243 272 274
3 252 266 263
3 234 238 268
3 258 518 282
3 283 266 284
3 260 519 286
3 241 240 263
3 256 255 268
3 261 275 274
3 290 327 291
3 293 520 294
3 296 521 297
3 299 522 300
3 302 305 303
3 301 300 305
3 306 523 307
3 309 524 310
3 312 315 313
3 315 293 295
3 316 309 311
3 318 317 311
3 320 301 302
3 322 321 302
3 320 525 299
3 323 526 309
3 324 296 298
3 326 527 327
3 328 528 329
3 298 297 331
3 333 529 334
3 290 530 336
3 337 531 338
3 340 378 341
3 343 532 344
3 346 533 347
3 349 534 350
3 352 355 353
3 351 350 355
3 356 535 357
3 359 536 360
3 362 365 363
3 365 343 345
3 366 359 361
3 367 361 368
3 370 351 352
3 371 352 354
3 373 349 351
3 374 537 359
3 375 346 348
3 377 538 378
3 379 539 380
3 348 347 382
3 384 540 385
3 340 541 387
3 388 542 389
3 391 543 392
3 394 544 395
3 397 545 398
3 400 435 401
3 403 407 404
3 403 427 406
3 408 426 409
3 399 430 411
3 412 546 413
3 414 547 415
3 417 421 418
3 417 548 420
3 415 549 422
3 405 404 423
3 408 432 425
3 427 550 428
3 399 434 429
3 408 551 431
3 399 398 433
3 413 552 435
3 436 553 437
3 439 449 440
3 442 448 443
3 443 439 441
3 445 554 446
3 446 436 438
3 448 445 447
3 438 437 449
3 443 447 438
3 450 555 451
3 453 556 454
3 451 557 453
3 452 454 455
3 456 558 457
3 459 559 460
3 462 560 463
3 465 561 466
3 468 562 469
3 471 563 472
3 474 483 475
3 477 564 478
3 480 479 478
3 482 565 475
