<?xml version="1.0" encoding="utf-8"?>
<COLLADA xmlns="http://www.collada.org/2005/11/COLLADASchema" version="1.4.1" xmlns:xsi="http://www.w3.org/2001/XMLSchema-instance">
  <asset>
    <contributor>
      <author>Blender User</author>
      <authoring_tool>Blender 4.1.1 commit date:2024-04-15, commit time:15:11, hash:e1743a0317bc</authoring_tool>
    </contributor>
    <created>2024-06-26T21:38:09</created>
    <modified>2024-06-26T21:38:09</modified>
    <unit name="meter" meter="1"/>
    <up_axis>Z_UP</up_axis>
  </asset>
  <library_lights>
    <light id="Spot_2-light" name="Spot.2">
      <technique_common>
        <spot>
          <color sid="color">1 0 0.01664147</color>
          <constant_attenuation>1</constant_attenuation>
          <linear_attenuation>0</linear_attenuation>
          <quadratic_attenuation>0</quadratic_attenuation>
          <falloff_angle sid="fall_off_angle">12.5</falloff_angle>
          <falloff_exponent sid="fall_off_exponent">0.5105442</falloff_exponent>
        </spot>
      </technique_common>
      <extra>
        <technique profile="blender">
          <type sid="type" type="int">2</type>
          <flag sid="flag" type="int">0</flag>
          <mode sid="mode" type="int">2097153</mode>
          <red sid="red" type="float">1</red>
          <green sid="green" type="float">0</green>
          <blue sid="blue" type="float">0.01664143</blue>
          <shadow_r sid="blender_shadow_r" type="float">0</shadow_r>
          <shadow_g sid="blender_shadow_g" type="float">0</shadow_g>
          <shadow_b sid="blender_shadow_b" type="float">0</shadow_b>
          <energy sid="blender_energy" type="float">1</energy>
          <spotsize sid="spotsize" type="float">12.5</spotsize>
          <spotblend sid="spotblend" type="float">0.5105442</spotblend>
          <clipsta sid="clipsta" type="float">0.04999995</clipsta>
          <clipend sid="clipend" type="float">40</clipend>
          <bias sid="bias" type="float">1</bias>
          <radius sid="radius" type="float">0</radius>
          <area_shape sid="area_shape" type="int">0</area_shape>
          <area_size sid="area_size" type="float">0.25</area_size>
          <area_sizey sid="area_sizey" type="float">0.25</area_sizey>
          <area_sizez sid="area_sizez" type="float">0.25</area_sizez>
        </technique>
      </extra>
    </light>
    <light id="Spot-light" name="Spot">
      <technique_common>
        <spot>
          <color sid="color">1.19996e-4 1.000001 0.02999618</color>
          <constant_attenuation>1</constant_attenuation>
          <linear_attenuation>0</linear_attenuation>
          <quadratic_attenuation>0</quadratic_attenuation>
          <falloff_angle sid="fall_off_angle">23.4</falloff_angle>
          <falloff_exponent sid="fall_off_exponent">0.8030613</falloff_exponent>
        </spot>
      </technique_common>
      <extra>
        <technique profile="blender">
          <type sid="type" type="int">2</type>
          <flag sid="flag" type="int">0</flag>
          <mode sid="mode" type="int">2097153</mode>
          <red sid="red" type="float">1.19996e-4</red>
          <green sid="green" type="float">1</green>
          <blue sid="blue" type="float">0.02999609</blue>
          <shadow_r sid="blender_shadow_r" type="float">0</shadow_r>
          <shadow_g sid="blender_shadow_g" type="float">0</shadow_g>
          <shadow_b sid="blender_shadow_b" type="float">0</shadow_b>
          <energy sid="blender_energy" type="float">1.000001</energy>
          <spotsize sid="spotsize" type="float">23.4</spotsize>
          <spotblend sid="spotblend" type="float">0.8030613</spotblend>
          <clipsta sid="clipsta" type="float">0.04999995</clipsta>
          <clipend sid="clipend" type="float">40</clipend>
          <bias sid="bias" type="float">1</bias>
          <radius sid="radius" type="float">0</radius>
          <area_shape sid="area_shape" type="int">0</area_shape>
          <area_size sid="area_size" type="float">0.25</area_size>
          <area_sizey sid="area_sizey" type="float">0.25</area_sizey>
          <area_sizez sid="area_sizez" type="float">0.25</area_sizez>
        </technique>
      </extra>
    </light>
  </library_lights>
  <library_effects>
    <effect id="CottageTexture-effect">
      <profile_COMMON>
        <technique sid="common">
          <lambert>
            <emission>
              <color sid="emission">0 0 0 1</color>
            </emission>
            <diffuse>
              <color sid="diffuse">0.8 0.8 0.8 1</color>
            </diffuse>
            <index_of_refraction>
              <float sid="ior">1.45</float>
            </index_of_refraction>
          </lambert>
        </technique>
      </profile_COMMON>
    </effect>
  </library_effects>
  <library_images/>
  <library_materials>
    <material id="CottageTexture-material" name="CottageTexture">
      <instance_effect url="#CottageTexture-effect"/>
    </material>
  </library_materials>
  <library_geometries>
    <geometry id="Cottage_Cube_002-mesh" name="Cottage_Cube.002">
      <mesh>
        <source id="Cottage_Cube_002-mesh-positions">
          <float_array id="Cottage_Cube_002-mesh-positions-array" count="1011">-5.950066 -8.19223 -8.60404 -5.950066 -9.349226 -8.60404 -11.99335 -9.349226 -9.03582 -12.7596 -9.349226 1.688736 -12.98052 -10.83443 4.780746 -13.14757 -9.349226 7.051434 -12.37648 -9.349226 -3.673542 -12.66758 -10.1498 0.400957 17.77359 -9.349226 -0.585771 17.54883 -10.1498 2.55986 17.75013 -10.1498 -0.25754 -12.66643 -12.7979 0.384937 -12.72641 -13.16109 1.224225 -12.56536 -14.63572 -1.029876 -12.46535 -12.7979 -2.429409 -12.565 -14.63572 -1.03495 17.75105 -12.7979 -0.270505 17.65144 -14.63572 1.123955 17.6518 -14.63572 1.118881 17.39585 -8.19223 4.701199 17.5232 -9.349226 2.918776 17.5232 -8.19223 2.918776 17.77359 -8.19223 -0.585771 17.5232 -0.67745 2.918775 18.91878 -0.064116 3.018486 17.5232 -0.064116 2.918775 17.39585 -0.064116 4.701198 17.5232 -1.31965 2.918775 17.77359 -0.064116 -0.585771 17.77359 -0.665788 -0.585771 17.90107 -0.064116 -2.370034 17.65216 -14.63572 1.113807 17.81142 -13.16109 -1.115142 18.06269 -10.83443 -4.631979 18.22308 -9.349226 -6.876914 -12.15375 -10.83443 -6.790884 -12.46628 -10.1498 -2.416443 -12.56427 -14.63572 -1.045098 -12.56464 -14.63572 -1.040024 17.90107 -8.19223 -2.370034 18.143 -8.19223 -5.756124 17.06886 -9.349226 9.210338 17.15352 -8.218717 8.092842 17.23592 -10.83443 6.939651 17.54998 -12.7979 2.543839 17.65107 -14.63572 1.129028 17.15352 -2.820832 8.092842 17.06886 -0.064116 9.210338 18.143 -2.820832 -5.756125 18.22308 -0.064116 -6.876914 17.77359 -1.31965 -0.585771 17.90107 -2.820832 -2.370034 17.39585 -2.820832 4.701198 -5.950066 -0.064116 -8.60404 -5.950066 -2.820832 -8.60404 -11.99335 -0.064116 -9.03582 -12.7596 -5.319118 1.688736 -13.14757 -0.064116 7.051433 -12.7596 -0.064116 1.688736 -12.37648 -5.321032 -3.673542 -12.37648 -0.064116 -3.673542 17.32058 -1.31965 2.904298 17.32058 -8.19223 2.904299 17.57098 -1.31965 -0.600248 17.57098 -8.19223 -0.600248 18.31958 -0.67745 2.975675 19.16917 -0.665788 -0.48606 19.16917 -0.064116 -0.48606 18.91878 -0.67745 3.018486 18.56998 -1.31965 -0.528871 18.56998 -0.665788 -0.528871 18.31958 -1.31965 2.975675 12.1798 -2.820832 -7.308695 7.727202 -8.19223 -7.626822 -1.497471 -2.820832 -8.285908 7.727202 -2.820832 -7.626823 12.1798 -0.064116 -7.308695 7.727202 -0.06411695 -7.626823 -1.497471 -0.06411695 -8.285908 12.1798 -9.349226 -7.308694 12.1798 -8.19223 -7.308694 7.727202 -9.349226 -7.626822 -1.497471 -8.19223 -8.285908 -1.497471 -9.349226 -8.285908 -6.874008 -7.581105 7.500432 -10.24872 -7.581105 7.025321 -10.26535 -7.581105 7.25813 -6.233222 -0.453864 7.546214 -6.874008 -0.94005 7.500432 6.56813 -0.06411695 8.460846 6.568131 -2.23666 8.460846 11.02073 -2.23666 8.778978 -10.26535 -0.94005 7.258129 11.02073 -0.064116 8.778978 -6.874008 -9.349226 7.500432 11.02073 -7.581105 8.778978 11.02073 -9.349226 8.778978 6.568131 -7.581105 8.460846 -10.26535 -9.349226 7.25813 -6.935459 -0.06411695 8.36051 -6.874008 -0.482587 7.500432 -6.874008 -0.06411695 7.500433 -10.26535 -0.064116 7.258129 -10.26535 -0.491578 7.258129 -10.24872 -0.94005 7.025321 -6.857374 -7.581105 7.267625 -6.857374 -0.94005 7.267625 -6.900082 -0.482587 7.865364 6.568131 -9.349226 8.460846 -10.3268 -0.06411695 8.118206 -6.935458 -0.482587 8.360508 -10.29143 -0.491578 7.623059 -6.900082 -0.940051 7.865362 -13.33058 -6.083645 -3.801146 -14.31514 -5.832798 -3.31583 -13.39424 -5.832798 -4.120181 -12.50487 -6.083645 -4.522348 -12.47334 -5.832798 -4.924531 -12.95584 -6.083645 2.460783 -13.78609 -5.832798 1.947564 -13.68192 -6.083645 1.639367 -14.48651 -6.083645 -1.144194 -12.52202 -7.798086 -1.082651 -12.53304 -7.798086 -1.01804 -14.408 -6.083645 0.81795 -12.50618 -7.798086 -0.925132 -12.48195 -7.798086 -0.897716 -12.45225 -7.798086 -1.129848 -12.4669 -7.798086 -1.130794 -14.15628 -6.083645 -3.079942 -12.49446 -7.798086 -1.106722 -12.51696 -6.083645 2.489125 -12.4673 -7.798086 -0.89677 -12.53042 -7.798086 -0.952549 -14.59588 -5.681017 1.031447 -13.78609 -5.681017 1.947564 -12.9763 -5.832798 2.863682 -12.9763 -5.681017 2.863682 -11.98387 -5.681017 -4.892922 -12.47334 -5.681017 -4.924531 -13.39424 -5.681017 -4.120181 -14.31514 -5.681017 -3.31583 -12.48682 -5.832798 2.895291 -12.48682 -5.681017 2.895291 -14.68344 -5.681017 -1.156911 -14.59588 -5.832798 1.031447 -14.68344 -5.832798 -1.156911 -12.066 -6.083645 -4.494008 -11.98387 -5.832798 -4.892922 -13.09982 -5.681017 1.743389 -13.67927 -5.681017 1.087865 -12.3897 -5.681017 -3.806816 -13.39888 -5.681017 -3.253884 -14.25872 -5.681017 0.432341 -14.32137 -5.681017 -1.133529 -12.73994 -5.681017 -3.829434 -12.74959 -5.681017 1.766007 -14.05783 -5.681017 -2.678334 -13.75779 -5.804492 1.236099 -13.13759 -5.132816 1.937723 -14.37798 -5.132816 0.534476 -13.13759 -5.804492 1.937723 -12.76273 -0.07308095 1.961931 -13.13759 -0.07308095 1.937723 -14.37116 -5.132816 -2.285629 -14.45543 -4.951208 -0.108712 -14.3225 -4.951208 -2.167073 -13.45768 -5.804492 -3.410983 -14.16297 -5.132816 -2.794957 -12.7524 -5.132816 -4.027009 -14.37116 -0.07308095 -2.285629 -14.37116 -5.804492 -2.285629 -14.37798 -0.07308095 0.534476 -14.37798 -5.804492 0.534476 -14.44504 -5.804492 -1.141514 -14.51893 -5.132816 0.002600908 -14.15632 -1.64794 0.427878 -13.00565 -5.002056 1.729629 -14.15632 -5.002056 0.427878 -12.67044 -1.64794 -3.805101 -12.7524 -0.07308095 -4.027009 -14.3225 -1.698788 -2.167073 -12.67044 -5.002056 -3.805101 -14.37116 -1.51718 -2.285629 -14.45543 -1.698788 -0.108712 -14.51893 -1.51718 0.002600908 -14.51893 -0.07308095 0.002600908 -14.37798 -1.51718 0.534476 -13.00565 -1.64794 1.729629 -13.13759 -1.51718 1.937723 -14.16297 -1.51718 -2.794957 -14.16297 -0.07308095 -2.794957 -12.7524 -5.804491 -4.027009 -13.97898 -1.64794 -2.662164 -13.97898 -5.002056 -2.662164 -14.51893 -5.804492 0.002600908 -12.37753 -5.804491 -4.0028 -14.16297 -5.804492 -2.794957 -10.73933 -7.406231 8.282028 -10.75891 -7.420061 8.556042 -10.7565 -7.322558 8.522254 -6.83585 -7.420061 8.836338 -6.611906 -7.322558 8.818377 -6.833436 -7.322558 8.80255 -6.597157 -7.503733 8.61194 -6.493643 -7.899086 7.163147 -6.594743 -7.406231 8.57815 -10.74174 -7.503733 8.315814 -10.41912 -7.996586 6.916639 -10.52022 -7.503733 8.331643 -6.818685 -7.503733 8.59611 -6.496057 -7.996586 7.196936 -6.717586 -7.996586 7.181107 -6.816271 -7.406231 8.562322 -6.728862 -7.437432 7.338925 -6.715172 -7.899086 7.147319 -10.4167 -7.899086 6.882852 -10.5178 -7.406231 8.297856 -10.53497 -7.322558 8.538083 -10.53738 -7.420061 8.571869 -6.61432 -7.420061 8.852166 -10.63823 -7.899086 6.867023 -6.736633 -7.090042 7.447694 -6.507333 -7.437432 7.354753 -6.515104 -7.090042 7.463522 -10.43817 -7.090042 7.183228 -10.65969 -7.090042 7.167398 -10.65192 -7.437432 7.05863 -10.43039 -7.437432 7.074459 18.53105 -8.134083 3.326152 18.80507 -8.147912 3.345729 18.77128 -8.050413 3.343316 19.08536 -8.147912 -0.577331 19.0674 -8.050413 -0.801274 19.05157 -8.050413 -0.579745 18.86096 -8.231585 -0.816024 17.41217 -8.626937 -0.919537 18.82718 -8.134083 -0.818438 18.56484 -8.231585 3.328567 17.16566 -8.724439 3.005938 18.58067 -8.231585 3.107037 18.84513 -8.231585 -0.594495 17.44596 -8.724439 -0.917123 17.43013 -8.724439 -0.695594 18.81135 -8.134083 -0.596909 17.58795 -8.165287 -0.684318 17.39634 -8.626937 -0.698008 17.13188 -8.626937 3.003524 18.54688 -8.134083 3.104622 18.78711 -8.050413 3.121786 18.82089 -8.147912 3.1242 19.10119 -8.147912 -0.79886 17.11605 -8.626937 3.225054 17.69672 -7.817894 -0.676547 17.60378 -8.165287 -0.905847 17.71255 -7.817894 -0.898076 17.41642 -7.817894 3.246514 17.30766 -8.165287 3.238742 17.32348 -8.165287 3.017213 17.43225 -7.817894 3.024984 5.245152 -12.03316 7.897085 5.30175 -9.703709 7.104922 5.245152 -9.703709 7.897085 0.361134 -9.703709 6.751925 0.304536 -12.03316 7.544086 0.304536 -9.703709 7.544086 2.774844 -14.23872 7.720585 5.570631 -12.16839 3.341619 5.245152 -12.16839 7.897085 5.993761 -11.6385 3.912879 5.570631 -12.03316 3.341619 2.74828 -14.10348 8.092385 5.218587 -12.16839 8.268882 5.218587 -12.03316 8.268882 0.277972 -12.16839 7.915884 2.74828 -14.23872 8.092385 2.774844 -14.10348 7.720585 0.129967 -11.6385 3.493922 -0.1570529 -11.77374 7.511107 -0.1570529 -11.6385 7.511107 5.706741 -11.6385 7.930063 5.993761 -11.77374 3.912879 5.680177 -11.77374 8.301862 5.706741 -11.77374 7.930063 -0.1836169 -11.6385 7.882905 5.680177 -11.6385 8.301862 0.277972 -12.03316 7.915884 -0.1836169 -11.77374 7.882905 2.776458 -14.10348 7.7207 4.012419 -13.06832 7.809008 3.713624 -12.81745 7.78766 3.710227 -11.07517 7.787416 5.245152 -9.703709 7.897085 3.59828 -9.703709 7.779418 0.304536 -9.703709 7.544086 1.839461 -11.07517 7.653755 1.951408 -9.703709 7.661753 1.537269 -13.06832 7.632164 2.77323 -14.10348 7.720469 1.836064 -12.81745 7.653512 0.304536 -12.03316 7.544086 5.245152 -12.03316 7.897085 0.630015 -12.16839 2.988622 2.774844 -14.23872 7.720585 0.304536 -12.16839 7.544086 0.277972 -12.16839 7.915884 -0.1570529 -11.77374 7.511107 0.129967 -11.77374 3.493922 19.24734 -8.780824 -8.006253 -13.52006 -14.73787 -1.079658 -12.86126 -8.780824 -10.30035 -14.17886 -8.780824 8.14103 18.58854 -14.73787 1.214438 17.92974 -8.780824 10.43513 -13.52006 -14.52574 -1.079658 19.23048 -8.631655 -7.770261 -12.87812 -8.631655 -10.06436 18.58854 -14.52574 1.214438 -14.162 -8.631655 7.905039 17.9466 -8.631655 10.19914 -12.40502 -13.16109 -3.274048 17.49002 -13.16109 3.383129 -10.3268 -0.491578 8.118206 -10.29143 -0.940051 7.623059 -12.76273 -5.804492 1.961931 -12.7524 -1.51718 -4.027009 -12.37753 -0.07308095 -4.0028 -10.64065 -7.996586 6.900812 17.14984 -8.724439 3.227468 0.630015 -12.03316 2.988622 3.277872 -14.23872 0.680117 0.129967 -11.77374 3.493922 2.779686 -14.10348 7.720932 2.770002 -14.10348 7.72024 3.277872 -14.23872 0.680117 -0.1836169 -11.77374 7.882905 2.74828 -14.23872 8.092385</float_array>
          <technique_common>
            <accessor source="#Cottage_Cube_002-mesh-positions-array" count="337" stride="3">
              <param name="X" type="float"/>
              <param name="Y" type="float"/>
              <param name="Z" type="float"/>
            </accessor>
          </technique_common>
        </source>
        <source id="Cottage_Cube_002-mesh-normals">
          <float_array id="Cottage_Cube_002-mesh-normals-array" count="1416">0.07126599 0 -0.9974574 -0.9973916 -0.001863002 -0.07215726 -0.9974574 -1.50679e-5 -0.07126551 0.9974574 -1.01218e-5 0.07126688 -0.9974566 1.23142e-5 -0.07127726 -0.9974566 1.8504e-5 -0.07127678 -0.9974574 1.10348e-5 -0.07126629 0.9974598 2.65875e-4 0.07123219 0.9974598 2.66037e-4 0.07123225 0.9974598 2.66045e-4 0.07123219 0.9974574 0 0.07126593 0.9974574 0 0.07126575 -0.07126587 0 0.9974574 0.9974575 0 0.07126593 0.9974575 0 0.07126492 0.997456 2.59213e-5 0.07128459 0.9974561 2.58167e-5 0.07128298 0.9974573 4.07229e-6 0.07126629 -0.9974578 -1.22103e-5 -0.07126104 -0.9974576 -2.28565e-6 -0.07126277 -0.9974617 3.48197e-4 -0.07120466 -0.9974617 3.48486e-4 -0.07120448 -0.9974617 3.48295e-4 -0.0712043 0.9974575 0 0.07126492 0.9974574 -9.71234e-7 0.07126694 0.9974505 -0.004284322 0.07123357 0.9974579 -8.11285e-6 0.07126039 0.9974577 1.17789e-6 0.07126265 0.9974582 7.23197e-4 0.07125061 0.9974582 7.23145e-4 0.07125121 0.9974582 7.22991e-4 0.07125103 0.9973802 0.001311242 0.07232719 0.9974573 6.12514e-7 0.07126682 0.9974575 0 0.07126492 0.9974575 0 0.07126587 0.07126605 0 -0.9974574 -0.9973933 0 -0.07215744 0.9971427 0 0.07554167 0.9974575 0 0.07126498 -0.9974573 0 -0.07126742 0.07126522 -1.70779e-7 -0.9974575 0.9974574 0 0.07126593 0.07126677 0 -0.9974574 0.9974573 0 0.07126629 0.9974576 -3.06333e-6 0.07126265 0.9974573 0 0.07126849 0 1 -3.3405e-7 -0.07127058 0 0.9974571 0 -1 0 -0.07126617 0 0.9974575 0.9974574 0 0.07126593 0.9974575 0 0.07126581 0.07126611 0 -0.9974575 2.36547e-4 -0.9999946 -0.003310739 0.9974572 0 0.07126796 0.07126581 0 -0.9974575 0.07126623 0 -0.9974575 0.07126635 -1.82381e-7 -0.9974573 0.07126659 0 -0.9974574 0.07126617 0 -0.9974574 0.07126653 0 -0.9974574 0.07126629 0 -0.9974574 0.07126659 0 -0.9974574 0.07126677 0 -0.9974574 0.07126611 -1.78981e-7 -0.9974575 0.07126712 0 -0.9974573 -0.9974575 0 -0.07126545 -0.9973933 0 -0.07215744 -0.9974573 0 -0.07126742 0 1 6.75992e-7 -0.0712645 0 0.9974575 -0.07126623 0 0.9974573 -0.07114094 0 0.9974663 -0.07153052 0 0.9974384 -0.07114052 0 0.9974663 -0.07126677 0 0.9974573 -0.07126557 0 0.9974575 -0.07114052 0 0.9974663 -0.07126694 0 0.9974573 -0.07153034 0 0.9974385 -0.071267 0 0.9974573 0.9974574 -6.65986e-7 0.07126659 -0.07126623 -4.39172e-6 0.9974575 -0.07153034 0 0.9974384 -0.07126605 0 0.9974574 0.9974588 1.63259e-7 0.0712471 0 -1 6.00883e-7 -0.9974573 0 -0.07126772 0.9974573 0 0.07126694 -0.07153064 0 0.9974385 -0.07126635 0 0.9974574 -0.07126635 0 0.9974574 -0.07126677 0 0.9974574 -0.07126533 -2.21716e-6 0.9974575 -0.07126623 -4.86503e-6 0.9974575 -0.9974575 0 -0.07126551 0.002637684 -0.9999965 1.88428e-4 -0.07126641 -4.23052e-6 0.9974573 -0.997456 0 -0.07128447 1.97376e-7 -1 -2.68334e-6 0.9974573 0 0.07126706 0.9974573 1.45769e-7 0.0712676 -0.9974573 -1.5556e-6 -0.07126629 -0.4370803 -0.7473599 -0.500414 -0.4370743 -0.7473675 -0.5004079 -0.4978109 -0.7473658 0.4400327 -0.6514798 -0.7504844 -0.1111181 -0.4147471 -0.8328155 0.3666104 -0.4147491 -0.8328139 0.3666118 0.02914112 -0.8919449 -0.4512042 -0.3641506 -0.8328163 -0.416907 -0.3641437 -0.832822 -0.4169017 -0.02914214 -0.8919036 0.4512858 -0.6603606 -0.7504838 0.02642196 -0.7492468 0 0.6622909 -0.7492498 0 0.6622876 0.06444293 0 -0.9979214 -0.657839 0 -0.7531586 -0.6578383 0 -0.7531594 -0.06444245 0 0.9979215 -0.9992006 0 0.03997945 -0.9857591 0 -0.168164 -0.7869513 -0.6162112 0.03148716 -0.4978128 -0.7473642 0.4400333 0.03403192 -0.8491925 -0.5269857 -0.03403162 -0.8491939 0.5269833 -0.7763636 -0.6162131 -0.1324432 0 1 0 0 1 7.88182e-7 0 1 0 0 1 -8.3925e-7 -0.749247 3.03243e-6 0.6622907 -0.06444376 0 0.9979214 -0.9533203 0.295618 -0.06156641 -0.6578401 -3.03243e-6 -0.7531576 -1 0 -4.77711e-5 -1 0 4.77711e-5 1 0 4.77711e-5 1 0 -4.77711e-5 -0.9979214 -4.95367e-6 -0.06444394 0.4333963 0 0.9012034 -0.3623254 0.8752973 0.3202738 -0.9380627 0 0.3464658 -0.9251089 0 0.3797022 -0.3349286 0.8606886 -0.3834554 -0.9533259 -0.2956006 -0.06156414 -0.9979217 0 -0.06443995 -0.9979214 0 -0.064444 -0.3623276 -0.8752952 0.3202764 -0.7492467 0 0.6622911 -0.7492491 0 0.6622883 -0.6578401 0 -0.7531577 -0.6578426 0 -0.7531555 -0.3349285 -0.8606875 -0.3834578 0.5852355 0 -0.8108634 -0.8686058 0 -0.4955038 1 -4.76718e-5 0 1 4.79658e-5 0 0 0 1 -0.8445496 0 -0.5354775 0.06444567 0 -0.9979212 -0.9666334 0 0.2561638 -0.9256562 0 -0.3783658 -0.9979212 0 -0.06444662 -0.7492476 0 0.66229 -0.6578406 0 -0.7531572 -0.9974564 -3.3973e-5 -0.07128 -0.06731456 0.3281709 0.9422169 0.9974575 1.23044e-5 0.07126617 -0.02339118 -0.9446161 0.3273428 -0.02339321 -0.9446158 0.3273437 -0.02338802 -0.944616 0.3273434 -0.9974575 4.25571e-7 -0.07126617 0.02338808 0.9446153 -0.3273452 -0.06731462 0.3281674 0.9422181 -0.06732016 0.3281645 0.9422187 0.02338814 0.9446159 -0.327344 0.02338927 0.944614 -0.327349 -0.02338784 -0.944617 0.3273406 -0.0233916 -0.9446145 0.3273476 -0.02338808 -0.9446154 0.3273452 0.02338683 0.9446158 -0.3273441 0.9974576 9.05948e-6 0.07126408 -0.9974583 -4.46039e-5 -0.07125324 -0.01940423 0.9622235 0.2715683 0.9974573 -3.66645e-6 0.07126694 -0.01940685 0.9622234 0.2715689 -0.9974573 3.40457e-6 -0.071267 0.9974573 2.53831e-5 0.07126641 -0.07126283 -1.47219e-5 0.9974577 0.9421941 0.3282334 0.06733024 0.07126826 -3.07622e-6 -0.9974573 0.3273431 -0.944616 0.0233944 0.3273446 -0.9446155 0.02339458 0.3273456 -0.9446153 0.02338761 -0.07126581 4.25573e-7 0.9974575 -0.3273451 0.9446154 -0.02338826 0.9422076 0.3281956 0.06732445 0.9422396 0.3281046 0.06731975 -0.3273382 0.9446179 -0.02338659 -0.3273374 0.944618 -0.02339333 0.32734 -0.9446172 0.0233885 0.3273466 -0.9446147 0.02339357 0.3273493 -0.9446141 0.02338117 -0.3273485 0.9446141 -0.02339422 0.07126909 2.26499e-6 -0.9974572 -0.07127016 6.58496e-6 0.9974572 0.2715699 0.9622232 0.01940429 0.07126587 -8.46094e-7 -0.9974575 0.2715691 0.9622234 0.01940417 -0.07126766 5.26649e-6 0.9974573 0.07126533 -1.41016e-6 -0.9974575 0.9974575 0 0.07126528 -0.9974575 0 -0.07126605 0.6397401 -0.7672312 0.04570782 -0.6472473 0.7608761 -0.04624474 -0.07126313 0 0.9974576 -0.07127457 0 0.9974567 0.6397385 0.7672322 0.04571074 0.6397403 -0.7672306 0.04571229 -0.6397376 0.7672328 -0.04571193 -0.9974575 0 -0.07126581 0.9974574 0 0.07126671 0.9974575 0 0.07126486 -0.07126003 0 0.9974579 0.6472474 0.7608762 0.04623991 -0.0712676 0 0.9974573 0.6472351 -0.7608866 0.04624474 0.6472474 0.7608761 0.04624426 0.6472373 -0.7608848 0.04624336 -0.6472469 0.7608764 -0.04624438 -0.0712648 -4.31955e-7 0.9974575 -0.0712676 -4.21164e-7 0.9974573 -0.07126599 3.6276e-7 0.9974575 -0.07126682 2.36905e-7 0.9974573 -0.07126647 -2.87972e-7 0.9974573 -0.07126605 -1.15725e-6 0.9974575 -0.07126742 -2.7582e-7 0.9974573 -0.07126748 5.34207e-7 0.9974573 -0.07126522 5.60041e-7 0.9974575 -0.6397399 -0.7672311 -0.04570823 -0.6472365 -0.7608855 -0.04624044 -0.63974 -0.7672312 -0.0457071 -0.6472374 -0.7608845 -0.04624354 0.0386036 -0.8405846 -0.5403031 -0.03860366 -0.8405846 0.540303 -0.03902137 0.8367782 0.5461499 0.03902137 0.8367782 -0.5461499 -0.03800892 0.8459062 0.5319758 0.0380088 0.8459071 -0.5319743 0.9974574 0 0.07126605 -0.9974575 0 -0.07126563 -0.9974576 5.57267e-6 -0.07126432 0.9974575 0 0.07126551 -0.997457 -1.04057e-5 -0.07127028 -0.9974574 -2.69914e-5 -0.07126694 0.9974575 -1.89867e-5 0.07126581 -0.9974572 -4.45549e-7 -0.07126945 -0.9974678 2.11807e-5 -0.07112109 -0.9974678 2.12144e-5 -0.07112121 -0.9974677 2.12468e-5 -0.07112115 -0.9974623 -2.59715e-4 -0.07119613 -0.9974624 -2.59443e-4 -0.07119619 -0.99746 -3.49192e-4 -0.07122987 0.9974577 8.82786e-6 0.07126259 0.9974574 0 0.07126587 -0.07126587 0 0.9974575 0.9974583 -1.24782e-4 0.07125347 0.9974583 -1.24845e-4 0.07125347 0.9974583 -1.24756e-4 0.07125347 0.9974571 -4.6124e-6 0.07126992 0.997457 -4.08395e-6 0.07127112 -0.9974573 -4.7777e-7 -0.07126736 -0.9974582 2.11228e-5 -0.07125389 -0.9974583 1.66637e-5 -0.07125335 0.9974574 2.09099e-6 0.07126641 0.9974021 -0.001180171 0.07202666 0.9974006 0.002073347 0.07202637 0.9974576 1.17278e-6 0.07126247 0.9974576 7.4016e-6 0.07126331 0.9974573 0 0.07126766 0.9974573 0 0.07126706 -0.9973933 0 -0.07215744 0.9971426 0 0.07554173 0.9974575 0 0.07126492 -0.9974573 0 -0.07126742 0.07127064 0 -0.997457 0.9974574 0 0.07126587 0.07126635 0 -0.9974573 0.9974575 0 0.07126617 0.9974573 2.24719e-6 0.07126706 0.9974572 0 0.07126849 -0.07126665 0 0.9974573 0.07126593 0 -0.9974574 2.36547e-4 -0.9999946 -0.003310739 0.9974573 0 0.07126796 0.07126587 0 -0.9974574 0.07126647 -1.94594e-7 -0.9974573 0.07126653 0 -0.9974573 0.07126569 0 -0.9974574 0.07126623 0 -0.9974575 0.07126724 0 -0.9974573 0.07126593 0 -0.9974575 0.07126635 0 -0.9974574 0.071267 0 -0.9974574 0.07126581 -1.73396e-7 -0.9974574 0.07126647 0 -0.9974574 -0.9974574 0 -0.07126551 -0.07114058 0 0.9974663 -0.07152974 0 0.9974386 -0.07126682 0 0.9974574 -0.07126581 0 0.9974575 -0.07126647 0 0.9974573 -0.07126635 0 0.9974573 0.9974574 2.64297e-6 0.07126545 -0.07126605 0 0.9974575 0.9974587 0 0.07124739 0 -1 -2.44109e-7 -0.9974572 0 -0.07126808 0.9974573 0 0.07126748 -0.07126629 0 0.9974574 -0.07126641 0 0.9974574 -0.07126545 0 0.9974575 -0.9974575 0 -0.07126539 0.002637684 -0.9999965 1.8848e-4 -0.07126581 0 0.9974574 -0.997456 0 -0.07128441 1.97377e-7 -1 -2.97383e-6 0.9974573 -1.94245e-7 0.07126706 0.9974573 0 0.07126766 -0.9974574 -1.02e-6 -0.07126706 -0.4370774 -0.747367 -0.5004057 -0.4370754 -0.7473638 -0.5004123 -0.4978112 -0.7473647 0.4400342 -0.6514774 -0.7504834 -0.1111392 -0.4147233 -0.832806 0.3666589 -0.4148012 -0.8327901 0.3666067 0.02913641 -0.8919441 -0.451206 -0.36415 -0.8328139 -0.4169125 -0.3641458 -0.8328151 -0.4169136 -0.02913808 -0.891944 0.4512062 -0.6603591 -0.7504851 0.02641952 -0.7492495 0 0.6622879 -0.7492474 0 0.6622903 0.06444448 0 -0.9979214 -0.6578387 0 -0.7531591 -0.6578408 0 -0.753157 -0.06444287 0 0.9979214 -0.9992006 0 0.03997963 -0.9857588 0 -0.1681653 -0.78695 -0.616213 0.03148728 -0.4978109 -0.7473648 0.4400343 0.03402864 -0.8491927 -0.5269858 -0.03403121 -0.8491939 0.5269836 -0.7763649 -0.6162111 -0.1324439 0 1 6.00517e-7 0 1 -8.39246e-7 0 1 3.01685e-7 0 1 -4.21616e-7 -0.7492443 0 0.6622938 -0.06444466 0 0.9979214 -0.9533257 0.2956011 -0.06156396 -0.6578374 0 -0.7531601 -0.9979211 0 -0.06444823 0.4333963 0 0.9012036 -0.3623272 0.8752956 0.320276 -0.9380631 0 0.3464646 -0.9251084 0 0.3797032 -0.3349275 0.8606867 -0.3834607 -0.9533205 -0.2956175 -0.06156617 -0.9979214 0 -0.064444 -0.3623258 -0.8752967 0.3202745 -0.7492467 0 0.662291 -0.3349288 -0.8606875 -0.3834576 0.5852339 0 -0.8108646 -0.8686059 0 -0.4955038 -0.8445492 0 -0.5354782 0.06444567 0 -0.9979212 -0.9666333 0 0.2561639 -0.9256561 0 -0.3783661 -0.9979212 0 -0.06444662 -0.657841 0 -0.7531569 -0.9974565 -3.62384e-5 -0.07127857 -0.06732517 0.3281812 0.9422125 0.9974573 -9.61302e-6 0.07126647 -0.02338588 -0.9446163 0.3273427 -0.02339023 -0.9446164 0.3273419 -0.02338796 -0.944616 0.3273434 -0.9974574 -5.64069e-7 -0.07126623 0.02338814 0.9446154 -0.327345 -0.06731975 0.3281591 0.9422206 -0.06731963 0.3281741 0.9422155 0.0233882 0.9446151 -0.3273461 0.02338886 0.9446165 -0.3273419 -0.02338802 -0.9446146 0.3273473 -0.02338892 -0.9446179 0.3273381 -0.02338677 -0.9446178 0.3273381 0.02338713 0.9446141 -0.327349 0.9974576 -7.92719e-6 0.07126355 -0.9974564 6.15235e-5 -0.07128036 -0.01940238 0.9622234 0.2715693 0.9974573 -8.51142e-7 0.07126706 -0.01940244 0.9622228 0.271571 -0.9974573 2.25627e-6 -0.071267 0.9974573 3.83014e-6 0.07126706 -0.07125896 9.0594e-6 0.9974579 0.9422249 0.3281454 0.067326 0.0712648 9.13211e-7 -0.9974575 0.3273457 -0.9446157 0.02337157 0.327346 -0.944615 0.02339029 0.3273425 -0.9446164 0.02338808 -0.07126581 1.41016e-6 0.9974575 -0.3273429 0.9446161 -0.02338749 0.9422191 0.3281696 0.06729167 0.9421979 0.3282248 0.06731802 -0.3273456 0.9446153 -0.02338916 -0.3273287 0.9446212 -0.02338433 0.3273525 -0.9446129 0.02338761 0.3273348 -0.9446189 0.02339011 0.3273361 -0.9446185 0.02338743 -0.3273387 0.9446176 -0.02338933 0.07126712 -5.66224e-7 -0.9974573 -0.07126384 -3.07603e-6 0.9974575 0.2715696 0.9622232 0.01940125 0.07126587 0 -0.9974575 0.27157 0.9622232 0.01940119 -0.07126712 -3.24339e-6 0.9974573 0.07126599 -8.51146e-7 -0.9974575 0.9974574 0 0.07126635 -0.9974573 -1.34462e-7 -0.07126635 0.63974 -0.7672312 0.04570835 -0.6472471 0.7608762 -0.04624444 -0.07126486 0 0.9974575 -0.07125955 0 0.9974578 0.6397361 0.7672342 0.04571127 0.6397414 -0.7672298 0.04571115 -0.6397405 0.7672309 -0.04570454 -0.9974574 0 -0.07126671 0.9974573 0 0.07126671 -0.9974575 0 -0.07126516 -0.0712741 0 0.9974568 0.6472473 0.760876 0.04624724 0.6472387 -0.7608835 0.04624241 0.6472474 0.760876 0.0462448 0.6472373 -0.7608847 0.0462442 -0.6472476 0.7608758 -0.04624593 -0.07181406 5.87764e-4 0.9974179 -0.07126784 0 0.9974573 -0.07126498 -2.15793e-7 0.9974575 -0.07088422 7.90106e-4 0.9974843 -0.07088422 7.90112e-4 0.9974843 -0.07088416 7.90121e-4 0.9974843 -0.07083851 5.98933e-6 0.9974879 -0.07083863 5.93837e-6 0.9974879 -0.07083863 6.0345e-6 0.9974878 -0.07126533 1.44174e-6 0.9974575 -0.07126408 0 0.9974576 -0.07126611 -2.90792e-7 0.9974574 -0.6397399 -0.7672312 -0.045708 -0.6472388 -0.7608834 -0.04624325 -0.6397385 -0.7672322 -0.04571098 -0.6472374 -0.7608845 -0.04624396 0.03860354 -0.8405845 -0.5403032 -0.03860354 -0.8405844 0.5403033 -0.03902131 0.8367784 0.5461497 0.03902131 0.8367784 -0.5461497 -0.0380088 0.8459044 0.5319787 0.0380088 0.8459042 -0.5319788 0.9974574 0 0.07126545 -0.9974576 -5.57267e-6 -0.07126224 -0.9974575 0 -0.07126575 0.9974578 -2.22906e-5 0.07126206</float_array>
          <technique_common>
            <accessor source="#Cottage_Cube_002-mesh-normals-array" count="472" stride="3">
              <param name="X" type="float"/>
              <param name="Y" type="float"/>
              <param name="Z" type="float"/>
            </accessor>
          </technique_common>
        </source>
        <source id="Cottage_Cube_002-mesh-map-0">
          <float_array id="Cottage_Cube_002-mesh-map-0-array" count="2868">0.102892 0.659234 0.102892 0.677529 0.01233589 0.677529 0.392168 0.873631 0.340024 0.902668 0.301725 0.873631 0.482598 0.873631 0.413885 0.889283 0.392168 0.873631 0.120339 0.874156 0.173515 0.889846 0.125887 0.889846 0.340024 0.902668 0.414155 0.941055 0.400001 0.948156 0.414155 0.941055 0.438015 0.976985 0.400001 0.948156 0.461616 0.941055 0.4381 0.976985 0.414155 0.941055 0.125668 0.941743 0.149241 0.97776 0.149155 0.97776 0.2097139 0.851482 0.1795819 0.874156 0.1795819 0.851482 0.1795819 0.874156 0.120339 0.851482 0.1795819 0.851482 0.153291 0.353313 0.06447196 0.296428 0.153291 0.296428 0.2097139 0.692189 0.1795819 0.716795 0.1795819 0.704209 0.120339 0.692189 0.120339 0.70398 0.09017598 0.692189 0.125668 0.941743 0.14907 0.97776 0.1113899 0.94886 0.05193895 0.903263 0.125668 0.941743 0.1113899 0.94886 0.120339 0.874156 0.05193895 0.903263 0.01398897 0.874156 0.482598 0.873631 0.535169 0.902668 0.461398 0.889283 0.535169 0.902668 0.461616 0.941055 0.461398 0.889283 0.461616 0.941055 0.438271 0.976985 0.438186 0.976985 0.120339 0.851482 0.120339 0.874156 0.09017598 0.851482 0.09017598 0.851482 0.01398897 0.874156 0.03293496 0.851482 0.285945 0.874156 0.2097139 0.851482 0.267048 0.852001 0.1795819 0.874156 0.247554 0.903263 0.173515 0.889846 0.247554 0.903263 0.1732439 0.941743 0.173515 0.889846 0.1732439 0.941743 0.149327 0.97776 0.149241 0.97776 0.267048 0.746215 0.2097139 0.692189 0.285945 0.692189 0.09017598 0.692189 0.03293496 0.746215 0.01398897 0.692189 0.120339 0.716795 0.09017598 0.746215 0.09017598 0.692189 0.2097139 0.692189 0.2097139 0.746215 0.1795819 0.716795 0.102892 0.530709 0.102892 0.574299 0.01233589 0.530709 0.392168 0.79484 0.301725 0.692101 0.392168 0.692101 0.285945 0.874156 0.267048 0.746215 0.285945 0.692189 0.120339 0.851482 0.09017598 0.746215 0.120339 0.716795 0.573027 0.692101 0.482598 0.794877 0.482598 0.692101 0.185903 0.847161 0.182654 0.717829 0.185903 0.717829 0.2097139 0.746215 0.1795819 0.851482 0.1795819 0.716795 0.102892 0.574299 0.01233589 0.677529 0.01233589 0.530709 0.03293496 0.746215 0.01398897 0.874156 0.01398897 0.692189 0.125887 0.889846 0.1732439 0.941743 0.125668 0.941743 0.1795819 0.851482 0.120339 0.716795 0.1795819 0.716795 0.421769 0.493505 0.369634 0.496694 0.369634 0.493505 0.117817 0.719001 0.114568 0.848334 0.117817 0.848334 0.285033 0.249236 0.288624 0.353779 0.285033 0.353779 0.06160098 0.353599 0.01091688 0.293105 0.06160098 0.293105 0.1795819 0.704209 0.1795819 0.692189 0.2097139 0.692189 0.09017598 0.692189 0.120339 0.70398 0.120339 0.716795 0.246184 0.35378 0.203947 0.249236 0.246184 0.249236 0.06431496 0.353402 0.153134 0.296386 0.06431496 0.296386 0.270918 0.353781 0.246184 0.249236 0.270918 0.249236 0.20231 0.35378 0.1572279 0.249236 0.203128 0.249236 0.285033 0.353779 0.270918 0.249236 0.285033 0.249236 0.01091688 0.292972 0.06160098 0.353616 0.01091688 0.353616 0.465114 0.677529 0.374559 0.574299 0.465114 0.530709 0.307839 0.659234 0.169611 0.574299 0.307839 0.574299 0.465114 0.530709 0.374559 0.574299 0.374559 0.530709 0.374559 0.574299 0.307839 0.530709 0.374559 0.530709 0.307839 0.574299 0.169611 0.530709 0.307839 0.530709 0.169611 0.574299 0.102892 0.530709 0.169611 0.530709 0.465114 0.677529 0.374559 0.677529 0.374559 0.659234 0.374559 0.677529 0.307839 0.659234 0.374559 0.659234 0.307839 0.677529 0.169611 0.659234 0.307839 0.659234 0.169611 0.677529 0.102892 0.659234 0.169611 0.659234 0.307839 0.574299 0.374559 0.659234 0.307839 0.659234 0.102892 0.574299 0.169611 0.659234 0.102892 0.659234 0.482598 0.794877 0.392168 0.873631 0.392168 0.79484 0.301725 0.873631 0.392168 0.79484 0.392168 0.873631 0.482598 0.794877 0.573027 0.873631 0.482598 0.873631 0.359676 0.510327 0.428152 0.505073 0.428152 0.510327 0.360946 0.378542 0.370548 0.38623 0.370548 0.491242 0.169124 0.37238 0.360946 0.378542 0.169124 0.406733 0.1024039 0.406733 0.01177698 0.5192 0.01177698 0.37238 0.464555 0.37238 0.421366 0.491242 0.421366 0.38623 0.01177698 0.37238 0.1024039 0.37238 0.1024039 0.406733 0.169124 0.37238 0.1024039 0.406733 0.1024039 0.37238 0.421366 0.491242 0.370548 0.5192 0.370548 0.491242 0.01177698 0.5192 0.1024039 0.491242 0.1024039 0.5192 0.169124 0.491242 0.1024039 0.5192 0.1024039 0.491242 0.421366 0.491242 0.464555 0.5192 0.421366 0.5192 0.169124 0.406733 0.1024039 0.491242 0.1024039 0.406733 0.01852893 0.242105 0.09909099 0.2003509 0.09908998 0.242105 0.169124 0.37238 0.370548 0.37238 0.360946 0.378542 0.421366 0.37238 0.464555 0.37238 0.421366 0.379139 0.421366 0.38623 0.370548 0.491242 0.370548 0.38623 0.367481 0.489662 0.36428 0.386348 0.36428 0.489662 0.263413 0.2434639 0.273417 0.147144 0.273417 0.2434639 0.427765 0.386887 0.424564 0.4902 0.424564 0.386887 0.104219 0.242756 0.138401 0.198656 0.138401 0.242756 0.464555 0.37238 0.421366 0.38623 0.421366 0.379139 0.370548 0.491242 0.169124 0.5192 0.169124 0.491242 0.169124 0.406733 0.370548 0.491242 0.169124 0.491242 0.370548 0.378997 0.370548 0.38623 0.360946 0.378542 0.370548 0.37238 0.370548 0.378997 0.360946 0.378542 0.226455 0.243465 0.186192 0.147144 0.226455 0.147144 0.09946298 0.242089 0.01890099 0.200274 0.09946298 0.200274 0.263413 0.147144 0.226455 0.243468 0.226455 0.147144 0.1421779 0.147144 0.1853269 0.243465 0.141313 0.243465 0.138195 0.242703 0.104013 0.198833 0.138195 0.198833 0.289098 0.147144 0.273417 0.2434639 0.273417 0.147144 0.09017598 0.851482 0.03293496 0.746215 0.09017598 0.746215 0.267048 0.746215 0.2097139 0.851482 0.2097139 0.746215 0.414155 0.941055 0.461398 0.889283 0.461616 0.941055 0.909978 0.930907 0.88575 0.888833 0.923878 0.927188 0.944165 0.965297 0.923878 0.927188 0.962007 0.965542 0.63465 0.965297 0.654936 0.927188 0.668837 0.930907 0.789407 0.887459 0.79229 0.974345 0.789407 0.974043 0.703024 0.896517 0.785383 0.975493 0.668837 0.930907 0.668837 0.930907 0.784242 0.976641 0.63465 0.965297 0.944165 0.965297 0.794573 0.97729 0.794573 0.976641 0.875791 0.896517 0.793432 0.975493 0.79229 0.974345 0.909978 0.930907 0.794573 0.976641 0.793432 0.975493 0.63465 0.984749 0.784242 0.976641 0.784242 0.97729 0.789407 0.887459 0.786524 0.974345 0.703024 0.896517 0.8589 0.874405 0.913137 0.869425 0.913137 0.874405 0.913137 0.874405 0.967374 0.869425 0.967374 0.874404 0.584586 0.874405 0.611155 0.869425 0.611155 0.874405 0.665394 0.874405 0.719634 0.869425 0.719634 0.874405 0.611155 0.874405 0.665395 0.869425 0.665394 0.874405 0.967374 0.874404 0.993942 0.869425 0.993942 0.874404 0.789267 0.874405 0.8589 0.869425 0.8589 0.874405 0.719634 0.874405 0.789267 0.869425 0.789267 0.874405 0.703024 0.896517 0.789407 0.87873 0.789407 0.887459 0.668837 0.930907 0.693065 0.888833 0.703024 0.896517 0.944165 0.984749 0.962007 0.965542 0.962007 0.987237 0.63465 0.984749 0.616808 0.965542 0.63465 0.965297 0.875791 0.896517 0.789407 0.87873 0.88575 0.888833 0.940904 0.298655 0.914716 0.308322 0.938907 0.332372 0.907082 0.569332 0.901021 0.526053 0.887958 0.569331 0.974704 0.502116 0.938899 0.502006 0.940893 0.535724 0.983613 0.417191 0.963098 0.356423 0.969467 0.417191 0.940893 0.535724 0.914705 0.526054 0.907082 0.569332 0.907097 0.265043 0.901032 0.308321 0.914716 0.308322 0.974712 0.332266 0.938907 0.332372 0.963098 0.356423 0.983613 0.417191 0.963092 0.477958 0.974704 0.502116 0.662645 0.860217 0.616796 0.827195 0.708494 0.827195 0.616796 0.860216 0.602572 0.578439 0.616796 0.578439 0.848312 0.826765 0.741747 0.817878 0.842677 0.817878 0.920966 0.85959 0.875145 0.826718 0.966788 0.826726 0.580579 0.571495 0.580579 0.571495 0.580579 0.571495 0.580579 0.571495 0.580579 0.571495 0.580579 0.571495 0.792212 0.859632 0.736111 0.826765 0.848312 0.826765 0.708494 0.827195 0.702283 0.655865 0.708494 0.57844 0.708494 0.827195 0.622251 0.820766 0.702283 0.820766 0.966788 0.826726 0.960953 0.656121 0.966788 0.579133 0.848312 0.826765 0.842677 0.65873 0.848312 0.57918 0.875145 0.826718 0.960952 0.820251 0.966788 0.826726 0.848312 0.649843 0.741747 0.65873 0.736111 0.649843 0.848312 0.859632 0.792212 0.859632 0.848312 0.826765 0.848312 0.57918 0.736111 0.649843 0.736111 0.57918 0.708494 0.649437 0.622252 0.655865 0.616796 0.649437 0.616796 0.578439 0.708494 0.649437 0.616796 0.649437 0.708494 0.860217 0.662645 0.860217 0.708494 0.827195 0.966788 0.579133 0.875145 0.64979 0.875145 0.579125 0.966788 0.859594 0.920966 0.85959 0.966788 0.826726 0.875145 0.64979 0.960953 0.656121 0.879941 0.656113 0.875145 0.826718 0.879941 0.656113 0.879941 0.820244 0.736111 0.826765 0.741747 0.65873 0.741747 0.817878 0.580579 0.571495 0.580579 0.571495 0.580579 0.571495 0.580579 0.571495 0.580579 0.571495 0.580579 0.571495 0.616796 0.827195 0.622252 0.655865 0.622251 0.820766 0.966788 0.579133 0.979985 0.859504 0.966788 0.859594 0.710583 0.57918 0.736111 0.859632 0.710583 0.859632 0.848312 0.57918 0.87384 0.859632 0.848312 0.859632 0.580579 0.571495 0.580579 0.571495 0.580579 0.571495 0.842677 0.817878 0.741747 0.65873 0.842677 0.65873 0.702283 0.820766 0.622252 0.655865 0.702283 0.655865 0.960952 0.820251 0.879941 0.656113 0.960953 0.656121 0.346874 0.160217 0.337766 0.182942 0.346953 0.18291 0.0534709 0.01575595 0.03964191 0.009373962 0.0534709 0.009373962 0.337623 0.160082 0.346347 0.02638095 0.34681 0.160051 0.297277 0.03838199 0.283549 0.126067 0.283549 0.03838199 0.05417191 0.03838199 0.04044389 0.126067 0.04044389 0.03838199 0.283549 0.03838199 0.05417191 0.126067 0.05417191 0.03838199 0.340203 0.343043 0.378097 0.2244589 0.340258 0.190661 0.05459696 0.03839296 0.283975 0.126079 0.283975 0.03839296 0.298358 0.01575595 0.284529 0.009373962 0.298358 0.009373962 0.284529 0.01575595 0.0534709 0.009373962 0.284529 0.009373962 0.05459696 0.02350693 0.283975 0.03839296 0.283975 0.02350693 0.297702 0.02350693 0.283975 0.03839296 0.297702 0.03839296 0.283549 0.02349597 0.05417191 0.03838199 0.05417191 0.02349489 0.04044389 0.02349489 0.05417191 0.03838199 0.04044389 0.03838199 0.283549 0.02349597 0.297277 0.03838199 0.283549 0.03838199 0.04086995 0.02350693 0.05459696 0.03839296 0.05459696 0.02350693 0.337701 0.182776 0.34681 0.160051 0.346888 0.182744 0.346412 0.0265479 0.337687 0.1602489 0.346874 0.160217 0.007719933 0.125788 0.02706998 0.026362 0.02748799 0.125705 0.34681 0.160051 0.379653 0.055902 0.405742 0.07512795 0.324723 0.125554 0.304537 0.02629399 0.324305 0.02621096 0.346874 0.160217 0.379717 0.05606889 0.346412 0.0265479 0.340203 0.343043 0.378097 0.2244589 0.407755 0.246489 0.346874 0.160217 0.337766 0.182942 0.346953 0.18291 0.0534709 0.01575595 0.03964191 0.009373962 0.0534709 0.009373962 0.337623 0.160082 0.346347 0.02638095 0.34681 0.160051 0.297277 0.03838199 0.283549 0.126067 0.283549 0.03838199 0.05417191 0.03838199 0.04044389 0.126067 0.04044389 0.03838199 0.283549 0.03838199 0.05417191 0.126067 0.05417191 0.03838199 0.340203 0.343043 0.378097 0.2244589 0.340258 0.190661 0.05459696 0.03839296 0.283975 0.126079 0.283975 0.03839296 0.298358 0.01575595 0.284529 0.009373962 0.298358 0.009373962 0.284529 0.01575595 0.0534709 0.009373962 0.284529 0.009373962 0.05459696 0.02350693 0.283975 0.03839296 0.283975 0.02350693 0.283975 0.02350693 0.297702 0.03839296 0.297702 0.02350693 0.283549 0.02349597 0.05417191 0.03838199 0.05417191 0.02349489 0.05417191 0.02349489 0.04044389 0.03838199 0.04044389 0.02349489 0.297277 0.02349597 0.283549 0.03838199 0.283549 0.02349597 0.04086995 0.02350693 0.05459696 0.03839296 0.05459696 0.02350693 0.337701 0.182776 0.34681 0.160051 0.346888 0.182744 0.346412 0.0265479 0.337687 0.1602489 0.346874 0.160217 0.007719933 0.125788 0.02706998 0.026362 0.02748799 0.125705 0.34681 0.160051 0.379653 0.055902 0.405742 0.07512795 0.304955 0.1256369 0.324305 0.02621096 0.324723 0.125554 0.346874 0.160217 0.379717 0.05606889 0.346412 0.0265479 0.340203 0.343043 0.378097 0.2244589 0.407755 0.246489 0.982001 0.010149 0.929194 0.03617691 0.929195 0.01014596 0.928975 0.036017 0.981782 0.009988963 0.928976 0.009985983 0.886877 0.109857 0.761971 0.0215789 0.886859 0.0215789 0.934621 0.2341279 0.787185 0.255032 0.767429 0.2341279 0.541354 0.254807 0.428587 0.166513 0.428587 0.160342 0.541354 0.254807 0.654121 0.166512 0.541354 0.260978 0.934284 0.233866 0.94793 0.123048 0.934284 0.123048 0.886859 0.0215789 0.897072 0.109857 0.886877 0.109857 0.934621 0.12331 0.948267 0.2341279 0.934621 0.2341279 0.986226 0.009409964 0.989774 0.162544 0.986217 0.162544 0.989757 0.162796 0.9862 0.009661972 0.989756 0.009661972 0.989757 0.162796 0.9862 0.176968 0.9862 0.162796 0.989774 0.162544 0.986217 0.176716 0.986217 0.162544 0.428587 0.160342 0.407516 0.148505 0.407516 0.142334 0.934284 0.233866 0.94793 0.25477 0.94793 0.233866 0.654121 0.160342 0.675193 0.148505 0.654121 0.166512 0.886859 0.0215789 0.896972 0.004985988 0.897052 0.0215789 0.934284 0.233866 0.786847 0.25477 0.934284 0.25477 0.886859 0.0215789 0.776727 0.004985988 0.886786 0.004985988 0.948267 0.2341279 0.934621 0.255032 0.934621 0.2341279 0.54308 0.241548 0.4779 0.1870959 0.493658 0.1738989 0.493837 0.08225196 0.412891 0.01010996 0.499741 0.01010996 0.67344 0.01010996 0.592494 0.08225196 0.58659 0.01010996 0.592494 0.08225196 0.499741 0.01010996 0.58659 0.01010996 0.608431 0.1870959 0.543251 0.241548 0.592673 0.1738989 0.543251 0.241548 0.493658 0.1738989 0.592673 0.1738989 0.67344 0.1326439 0.592673 0.1738989 0.592494 0.08225196 0.493658 0.1738989 0.412891 0.1326439 0.493837 0.08225196 0.592494 0.08225196 0.493658 0.1738989 0.493837 0.08225196 0.763273 0.202785 0.88746 0.114908 0.886359 0.2026129 0.896398 0.202599 0.886078 0.218809 0.886359 0.2026129 0.88746 0.114908 0.896398 0.202599 0.886359 0.2026129 0.886359 0.2026129 0.777932 0.218969 0.763273 0.202785 0.489561 0.417808 0.81403 0.296382 0.81403 0.417808 0.813676 0.433914 0.489206 0.554734 0.489206 0.433914 0.813975 0.417631 0.489505 0.296733 0.813975 0.296733 0.489505 0.43407 0.813975 0.554968 0.489505 0.554968 0.489684 0.290216 0.815161 0.268549 0.815161 0.290216 0.813981 0.268314 0.489512 0.290408 0.489512 0.268314 0.823012 0.312654 0.888887 0.418653 0.821302 0.315367 0.832137 0.303348 0.903056 0.417464 0.905675 0.417464 0.832137 0.53158 0.903056 0.417464 0.830296 0.528659 0.823012 0.524651 0.888887 0.418653 0.891319 0.418653 0.392168 0.873631 0.413885 0.889283 0.340024 0.902668 0.482598 0.873631 0.461398 0.889283 0.413885 0.889283 0.120339 0.874156 0.1795819 0.874156 0.173515 0.889846 0.340024 0.902668 0.413885 0.889283 0.414155 0.941055 0.414155 0.941055 0.4381 0.976985 0.438015 0.976985 0.461616 0.941055 0.438186 0.976985 0.4381 0.976985 0.125668 0.941743 0.1732439 0.941743 0.149241 0.97776 0.1795819 0.874156 0.120339 0.874156 0.120339 0.851482 0.153291 0.353313 0.06447196 0.353313 0.06447196 0.296428 0.125668 0.941743 0.149155 0.97776 0.14907 0.97776 0.05193895 0.903263 0.125887 0.889846 0.125668 0.941743 0.120339 0.874156 0.125887 0.889846 0.05193895 0.903263 0.482598 0.873631 0.573027 0.873631 0.535169 0.902668 0.535169 0.902668 0.475861 0.948156 0.461616 0.941055 0.461616 0.941055 0.475861 0.948156 0.438271 0.976985 0.09017598 0.851482 0.120339 0.874156 0.01398897 0.874156 0.285945 0.874156 0.1795819 0.874156 0.2097139 0.851482 0.1795819 0.874156 0.285945 0.874156 0.247554 0.903263 0.247554 0.903263 0.187432 0.94886 0.1732439 0.941743 0.1732439 0.941743 0.187432 0.94886 0.149327 0.97776 0.267048 0.746215 0.2097139 0.746215 0.2097139 0.692189 0.09017598 0.692189 0.09017598 0.746215 0.03293496 0.746215 0.392168 0.79484 0.301725 0.873631 0.301725 0.692101 0.285945 0.874156 0.267048 0.852001 0.267048 0.746215 0.120339 0.851482 0.09017598 0.851482 0.09017598 0.746215 0.573027 0.692101 0.573027 0.873631 0.482598 0.794877 0.185903 0.847161 0.182654 0.847161 0.182654 0.717829 0.2097139 0.746215 0.2097139 0.851482 0.1795819 0.851482 0.102892 0.574299 0.102892 0.659234 0.01233589 0.677529 0.03293496 0.746215 0.03293496 0.851482 0.01398897 0.874156 0.125887 0.889846 0.173515 0.889846 0.1732439 0.941743 0.1795819 0.851482 0.120339 0.851482 0.120339 0.716795 0.421769 0.493505 0.421769 0.496694 0.369634 0.496694 0.117817 0.719001 0.114568 0.719001 0.114568 0.848334 0.285033 0.249236 0.288624 0.249236 0.288624 0.353779 0.06160098 0.353599 0.01091688 0.353599 0.01091688 0.293105 0.246184 0.35378 0.203128 0.35378 0.203947 0.249236 0.06431496 0.353402 0.153134 0.353402 0.153134 0.296386 0.270918 0.353781 0.246184 0.353781 0.246184 0.249236 0.20231 0.35378 0.1572279 0.35378 0.1572279 0.249236 0.285033 0.353779 0.270918 0.353779 0.270918 0.249236 0.01091688 0.292972 0.06160098 0.292972 0.06160098 0.353616 0.465114 0.677529 0.374559 0.659234 0.374559 0.574299 0.307839 0.659234 0.169611 0.659234 0.169611 0.574299 0.374559 0.574299 0.307839 0.574299 0.307839 0.530709 0.307839 0.574299 0.169611 0.574299 0.169611 0.530709 0.169611 0.574299 0.102892 0.574299 0.102892 0.530709 0.374559 0.677529 0.307839 0.677529 0.307839 0.659234 0.307839 0.677529 0.169611 0.677529 0.169611 0.659234 0.169611 0.677529 0.102892 0.677529 0.102892 0.659234 0.307839 0.574299 0.374559 0.574299 0.374559 0.659234 0.102892 0.574299 0.169611 0.574299 0.169611 0.659234 0.482598 0.794877 0.482598 0.873631 0.392168 0.873631 0.359676 0.510327 0.359676 0.505073 0.428152 0.505073 0.1024039 0.406733 0.1024039 0.491242 0.01177698 0.5192 0.464555 0.37238 0.464555 0.5192 0.421366 0.491242 0.169124 0.37238 0.169124 0.406733 0.1024039 0.406733 0.421366 0.491242 0.421366 0.5192 0.370548 0.5192 0.169124 0.491242 0.169124 0.5192 0.1024039 0.5192 0.169124 0.406733 0.169124 0.491242 0.1024039 0.491242 0.01852893 0.242105 0.01852893 0.2003509 0.09909099 0.2003509 0.421366 0.38623 0.421366 0.491242 0.370548 0.491242 0.367481 0.489662 0.367481 0.386348 0.36428 0.386348 0.263413 0.2434639 0.263413 0.147144 0.273417 0.147144 0.427765 0.386887 0.427765 0.4902 0.424564 0.4902 0.104219 0.242756 0.104219 0.198656 0.138401 0.198656 0.370548 0.491242 0.370548 0.5192 0.169124 0.5192 0.169124 0.406733 0.360946 0.378542 0.370548 0.491242 0.226455 0.243465 0.1853269 0.243465 0.186192 0.147144 0.09946298 0.242089 0.01890099 0.242089 0.01890099 0.200274 0.263413 0.147144 0.263413 0.243468 0.226455 0.243468 0.1421779 0.147144 0.1853269 0.147144 0.1853269 0.243465 0.138195 0.242703 0.104013 0.242703 0.104013 0.198833 0.289098 0.147144 0.289098 0.2434639 0.273417 0.2434639 0.09017598 0.851482 0.03293496 0.851482 0.03293496 0.746215 0.267048 0.746215 0.267048 0.852001 0.2097139 0.851482 0.414155 0.941055 0.413885 0.889283 0.461398 0.889283 0.909978 0.930907 0.875791 0.896517 0.88575 0.888833 0.944165 0.965297 0.909978 0.930907 0.923878 0.927188 0.63465 0.965297 0.616808 0.965542 0.654936 0.927188 0.789407 0.887459 0.875791 0.896517 0.79229 0.974345 0.703024 0.896517 0.786524 0.974345 0.785383 0.975493 0.668837 0.930907 0.785383 0.975493 0.784242 0.976641 0.944165 0.965297 0.944165 0.984749 0.794573 0.97729 0.875791 0.896517 0.909978 0.930907 0.793432 0.975493 0.909978 0.930907 0.944165 0.965297 0.794573 0.976641 0.63465 0.984749 0.63465 0.965297 0.784242 0.976641 0.789407 0.887459 0.789407 0.974043 0.786524 0.974345 0.8589 0.874405 0.8589 0.869425 0.913137 0.869425 0.913137 0.874405 0.913137 0.869425 0.967374 0.869425 0.584586 0.874405 0.584586 0.869425 0.611155 0.869425 0.665394 0.874405 0.665395 0.869425 0.719634 0.869425 0.611155 0.874405 0.611155 0.869425 0.665395 0.869425 0.967374 0.874404 0.967374 0.869425 0.993942 0.869425 0.789267 0.874405 0.789267 0.869425 0.8589 0.869425 0.719634 0.874405 0.719634 0.869425 0.789267 0.869425 0.703024 0.896517 0.693065 0.888833 0.789407 0.87873 0.668837 0.930907 0.654936 0.927188 0.693065 0.888833 0.944165 0.984749 0.944165 0.965297 0.962007 0.965542 0.63465 0.984749 0.616808 0.987237 0.616808 0.965542 0.875791 0.896517 0.789407 0.887459 0.789407 0.87873 0.940904 0.298655 0.907097 0.265043 0.914716 0.308322 0.907082 0.569332 0.914705 0.526054 0.901021 0.526053 0.974704 0.502116 0.963092 0.477958 0.938899 0.502006 0.983613 0.417191 0.974712 0.332266 0.963098 0.356423 0.940893 0.535724 0.938899 0.502006 0.914705 0.526054 0.907097 0.265043 0.887973 0.265043 0.901032 0.308321 0.974712 0.332266 0.940904 0.298655 0.938907 0.332372 0.983613 0.417191 0.969467 0.417191 0.963092 0.477958 0.662645 0.860217 0.616796 0.860216 0.616796 0.827195 0.616796 0.860216 0.602571 0.860216 0.602572 0.578439 0.848312 0.826765 0.736111 0.826765 0.741747 0.817878 0.920966 0.85959 0.875145 0.859586 0.875145 0.826718 0.792212 0.859632 0.736111 0.859632 0.736111 0.826765 0.708494 0.827195 0.702283 0.820766 0.702283 0.655865 0.708494 0.827195 0.616796 0.827195 0.622251 0.820766 0.966788 0.826726 0.960952 0.820251 0.960953 0.656121 0.848312 0.826765 0.842677 0.817878 0.842677 0.65873 0.875145 0.826718 0.879941 0.820244 0.960952 0.820251 0.848312 0.649843 0.842677 0.65873 0.741747 0.65873 0.848312 0.57918 0.848312 0.649843 0.736111 0.649843 0.708494 0.649437 0.702283 0.655865 0.622252 0.655865 0.616796 0.578439 0.708494 0.57844 0.708494 0.649437 0.966788 0.579133 0.966788 0.649798 0.875145 0.64979 0.875145 0.64979 0.966788 0.649798 0.960953 0.656121 0.875145 0.826718 0.875145 0.579125 0.879941 0.656113 0.736111 0.826765 0.736111 0.57918 0.741747 0.65873 0.616796 0.827195 0.616796 0.578439 0.622252 0.655865 0.966788 0.579133 0.979985 0.579043 0.979985 0.859504 0.710583 0.57918 0.736111 0.57918 0.736111 0.859632 0.848312 0.57918 0.87384 0.57918 0.87384 0.859632 0.842677 0.817878 0.741747 0.817878 0.741747 0.65873 0.702283 0.820766 0.622251 0.820766 0.622252 0.655865 0.960952 0.820251 0.879941 0.820244 0.879941 0.656113 0.346874 0.160217 0.337687 0.1602489 0.337766 0.182942 0.0534709 0.01575595 0.03964191 0.01575595 0.03964191 0.009373962 0.337623 0.160082 0.33716 0.02641296 0.346347 0.02638095 0.297277 0.03838199 0.297277 0.126067 0.283549 0.126067 0.05417191 0.03838199 0.05417191 0.126067 0.04044389 0.126067 0.283549 0.03838199 0.283549 0.126067 0.05417191 0.126067 0.340203 0.343043 0.407755 0.246489 0.378097 0.2244589 0.05459696 0.03839296 0.05459696 0.126079 0.283975 0.126079 0.298358 0.01575595 0.284529 0.01575595 0.284529 0.009373962 0.284529 0.01575595 0.0534709 0.01575595 0.0534709 0.009373962 0.05459696 0.02350693 0.05459696 0.03839296 0.283975 0.03839296 0.297702 0.02350693 0.283975 0.02350693 0.283975 0.03839296 0.283549 0.02349597 0.283549 0.03838199 0.05417191 0.03838199 0.04044389 0.02349489 0.05417191 0.02349489 0.05417191 0.03838199 0.283549 0.02349597 0.297277 0.02349597 0.297277 0.03838199 0.04086995 0.02350693 0.04086995 0.03839296 0.05459696 0.03839296 0.337701 0.182776 0.337623 0.160082 0.34681 0.160051 0.346412 0.0265479 0.337224 0.02657997 0.337687 0.1602489 0.007719933 0.125788 0.007301986 0.02644497 0.02706998 0.026362 0.34681 0.160051 0.346347 0.02638095 0.379653 0.055902 0.324723 0.125554 0.304955 0.1256369 0.304537 0.02629399 0.346874 0.160217 0.405807 0.07529395 0.379717 0.05606889 0.340203 0.343043 0.340258 0.190661 0.378097 0.2244589 0.346874 0.160217 0.337687 0.1602489 0.337766 0.182942 0.0534709 0.01575595 0.03964191 0.01575595 0.03964191 0.009373962 0.337623 0.160082 0.33716 0.02641296 0.346347 0.02638095 0.297277 0.03838199 0.297277 0.126067 0.283549 0.126067 0.05417191 0.03838199 0.05417191 0.126067 0.04044389 0.126067 0.283549 0.03838199 0.283549 0.126067 0.05417191 0.126067 0.340203 0.343043 0.407755 0.246489 0.378097 0.2244589 0.05459696 0.03839296 0.05459696 0.126079 0.283975 0.126079 0.298358 0.01575595 0.284529 0.01575595 0.284529 0.009373962 0.284529 0.01575595 0.0534709 0.01575595 0.0534709 0.009373962 0.05459696 0.02350693 0.05459696 0.03839296 0.283975 0.03839296 0.283975 0.02350693 0.283975 0.03839296 0.297702 0.03839296 0.283549 0.02349597 0.283549 0.03838199 0.05417191 0.03838199 0.05417191 0.02349489 0.05417191 0.03838199 0.04044389 0.03838199 0.297277 0.02349597 0.297277 0.03838199 0.283549 0.03838199 0.04086995 0.02350693 0.04086995 0.03839296 0.05459696 0.03839296 0.337701 0.182776 0.337623 0.160082 0.34681 0.160051 0.346412 0.0265479 0.337224 0.02657997 0.337687 0.1602489 0.007719933 0.125788 0.007301986 0.02644497 0.02706998 0.026362 0.34681 0.160051 0.346347 0.02638095 0.379653 0.055902 0.304955 0.1256369 0.304537 0.02629399 0.324305 0.02621096 0.346874 0.160217 0.405807 0.07529395 0.379717 0.05606889 0.340203 0.343043 0.340258 0.190661 0.378097 0.2244589 0.982001 0.010149 0.981993 0.1598449 0.929194 0.03617691 0.928975 0.036017 0.981774 0.159684 0.981782 0.009988963 0.886877 0.109857 0.693831 0.109857 0.761971 0.0215789 0.934621 0.2341279 0.934621 0.255032 0.787185 0.255032 0.541354 0.254807 0.541354 0.260978 0.428587 0.166513 0.541354 0.254807 0.654121 0.160342 0.654121 0.166512 0.934284 0.233866 0.94793 0.233866 0.94793 0.123048 0.886859 0.0215789 0.897052 0.0215789 0.897072 0.109857 0.934621 0.12331 0.948267 0.12331 0.948267 0.2341279 0.986226 0.009409964 0.989782 0.009409964 0.989774 0.162544 0.989757 0.162796 0.9862 0.162796 0.9862 0.009661972 0.989757 0.162796 0.989757 0.176968 0.9862 0.176968 0.989774 0.162544 0.989773 0.176717 0.986217 0.176716 0.428587 0.160342 0.428587 0.166513 0.407516 0.148505 0.934284 0.233866 0.934284 0.25477 0.94793 0.25477 0.654121 0.160342 0.675193 0.142334 0.675193 0.148505 0.886859 0.0215789 0.886786 0.004985988 0.896972 0.004985988 0.934284 0.233866 0.767092 0.233866 0.786847 0.25477 0.886859 0.0215789 0.761971 0.0215789 0.776727 0.004985988 0.948267 0.2341279 0.948267 0.255032 0.934621 0.255032 0.54308 0.241548 0.54291 0.241548 0.4779 0.1870959 0.493837 0.08225196 0.412891 0.1326439 0.412891 0.01010996 0.67344 0.01010996 0.67344 0.1326439 0.592494 0.08225196 0.592494 0.08225196 0.493837 0.08225196 0.499741 0.01010996 0.608431 0.1870959 0.543421 0.241548 0.543251 0.241548 0.543251 0.241548 0.54308 0.241548 0.493658 0.1738989 0.67344 0.1326439 0.608431 0.1870959 0.592673 0.1738989 0.493658 0.1738989 0.4779 0.1870959 0.412891 0.1326439 0.592494 0.08225196 0.592673 0.1738989 0.493658 0.1738989 0.763273 0.202785 0.694431 0.115093 0.88746 0.114908 0.896398 0.202599 0.896082 0.218795 0.886078 0.218809 0.88746 0.114908 0.897643 0.114899 0.896398 0.202599 0.886359 0.2026129 0.886078 0.218809 0.777932 0.218969 0.489561 0.417808 0.489561 0.296382 0.81403 0.296382 0.813676 0.433914 0.813676 0.554734 0.489206 0.554734 0.813975 0.417631 0.489505 0.417631 0.489505 0.296733 0.489505 0.43407 0.813975 0.43407 0.813975 0.554968 0.489684 0.290216 0.489684 0.268549 0.815161 0.268549 0.813981 0.268314 0.813981 0.290407 0.489512 0.290408 0.823012 0.312654 0.891319 0.418653 0.888887 0.418653 0.832137 0.303348 0.830296 0.306269 0.903056 0.417464 0.832137 0.53158 0.905675 0.417464 0.903056 0.417464 0.823012 0.524651 0.821302 0.521938 0.888887 0.418653</float_array>
          <technique_common>
            <accessor source="#Cottage_Cube_002-mesh-map-0-array" count="1434" stride="2">
              <param name="S" type="float"/>
              <param name="T" type="float"/>
            </accessor>
          </technique_common>
        </source>
        <vertices id="Cottage_Cube_002-mesh-vertices">
          <input semantic="POSITION" source="#Cottage_Cube_002-mesh-positions"/>
        </vertices>
        <triangles material="CottageTexture-material" count="478">
          <input semantic="VERTEX" source="#Cottage_Cube_002-mesh-vertices" offset="0"/>
          <input semantic="NORMAL" source="#Cottage_Cube_002-mesh-normals" offset="1"/>
          <input semantic="TEXCOORD" source="#Cottage_Cube_002-mesh-map-0" offset="2" set="0"/>
          <p>0 0 0 1 0 1 2 0 2 3 1 3 4 1 4 5 1 5 6 2 6 7 2 7 3 2 8 8 3 9 9 3 10 10 3 11 4 4 12 11 4 13 12 4 14 11 5 15 13 5 16 12 5 17 14 6 18 15 6 19 11 6 20 16 7 21 17 8 22 18 9 23 19 10 24 20 10 25 21 10 26 20 11 27 22 11 28 21 11 29 23 12 30 24 12 31 25 12 32 26 13 33 27 13 34 23 13 35 28 14 36 29 14 37 30 14 38 16 15 39 31 15 40 32 15 41 33 16 42 16 16 43 32 16 44 8 17 45 33 17 46 34 17 47 6 18 48 35 18 49 36 18 50 35 19 51 14 19 52 36 19 53 14 20 54 37 21 55 38 22 56 22 23 57 8 23 58 39 23 59 39 24 60 34 24 61 40 24 62 41 25 63 19 25 64 42 25 65 20 26 66 43 26 67 9 26 68 43 27 69 44 27 70 9 27 71 44 28 72 45 29 73 17 30 74 46 31 75 26 31 76 47 31 77 30 32 78 48 32 79 49 32 80 50 33 81 51 33 82 30 33 83 26 34 84 52 34 85 27 34 86 53 35 87 54 35 88 55 35 89 56 36 90 57 36 91 58 36 92 41 37 93 46 37 94 47 37 95 22 38 96 51 38 97 50 38 98 55 39 99 59 39 100 60 39 101 21 40 102 61 40 103 27 40 104 52 41 105 21 41 106 27 41 107 54 42 108 2 42 109 55 42 110 48 43 111 34 43 112 49 43 113 10 44 114 44 44 115 16 44 116 62 45 117 63 45 118 61 45 119 22 46 120 62 46 121 21 46 122 50 47 123 64 47 124 22 47 125 27 48 126 63 48 127 50 48 128 27 49 129 65 49 130 23 49 131 23 50 132 25 50 133 26 50 134 30 14 135 29 14 136 50 14 137 24 51 138 66 51 139 67 51 140 28 52 141 66 52 142 29 52 143 29 53 144 68 53 145 23 53 146 65 54 147 69 54 148 70 54 149 50 48 150 71 48 151 27 48 152 29 55 153 69 55 154 50 55 155 34 56 156 72 56 157 49 56 158 73 57 159 74 57 160 75 57 161 49 58 162 72 58 163 76 58 164 72 59 165 77 59 166 76 59 167 75 60 168 78 60 169 77 60 170 74 58 171 53 58 172 78 58 173 34 0 174 79 0 175 80 0 176 79 61 177 73 61 178 80 61 179 81 62 180 82 62 181 73 62 182 83 63 183 0 63 184 82 63 185 75 64 186 80 64 187 73 64 188 54 65 189 82 65 190 0 65 191 59 66 192 3 66 193 56 66 194 5 67 195 56 67 196 3 67 197 59 68 198 2 68 199 6 68 200 84 69 201 85 69 202 86 69 203 87 70 204 88 70 205 84 70 206 89 71 207 87 71 208 90 71 209 91 72 210 41 72 211 47 72 212 57 73 213 86 73 214 92 73 215 47 74 216 93 74 217 91 74 218 89 75 219 91 75 220 93 75 221 86 76 222 94 76 223 84 76 224 41 77 225 95 77 226 96 77 227 97 78 228 96 78 229 95 78 230 86 79 231 5 79 232 98 79 233 90 80 234 95 80 235 91 80 236 99 81 237 100 81 238 101 81 239 89 82 240 101 82 241 87 82 242 102 83 243 57 83 244 103 83 245 104 84 246 105 84 247 106 84 248 85 85 249 92 85 250 86 85 251 104 86 252 88 86 253 92 86 254 106 87 255 84 87 256 88 87 257 107 88 258 88 88 259 100 88 260 57 89 261 92 89 262 103 89 263 84 90 264 108 90 265 97 90 266 90 91 267 84 91 268 97 91 269 100 92 270 88 92 271 87 92 272 101 93 273 100 93 274 87 93 275 109 94 276 110 94 277 99 94 278 103 95 279 109 95 280 102 95 281 110 96 282 103 96 283 100 96 284 111 97 285 112 97 286 107 97 287 92 98 288 111 98 289 103 98 290 112 99 291 92 99 292 88 99 293 39 100 294 48 100 295 51 100 296 46 101 297 19 101 298 52 101 299 11 102 300 36 102 301 14 102 302 113 103 303 114 103 304 115 103 305 116 104 306 115 104 307 117 104 308 118 105 309 119 105 310 120 105 311 121 106 312 122 106 313 123 106 314 124 107 315 125 107 316 120 107 317 120 108 318 126 108 319 118 108 320 116 109 321 127 109 322 128 109 323 129 110 324 130 110 325 122 110 326 113 111 327 128 111 328 130 111 329 131 112 330 126 112 331 132 112 332 121 113 333 133 113 334 124 113 335 134 114 336 119 114 337 135 114 338 135 115 339 136 115 340 137 115 341 138 116 342 117 116 343 139 116 344 140 117 345 114 117 346 141 117 347 139 118 348 115 118 349 140 118 350 137 119 351 142 119 352 143 119 353 144 120 354 145 120 355 134 120 356 141 121 357 146 121 358 144 121 359 124 122 360 146 122 361 121 122 362 120 123 363 145 123 364 124 123 365 147 124 366 117 124 367 148 124 368 131 125 369 136 125 370 118 125 371 129 126 372 146 126 373 114 126 374 135 127 375 149 127 376 150 127 377 139 127 378 151 127 379 138 127 380 141 128 381 152 128 382 140 128 383 144 129 384 153 129 385 154 129 386 140 127 387 155 127 388 139 127 389 137 127 390 156 127 391 149 127 392 134 130 393 150 130 394 153 130 395 144 127 396 157 127 397 141 127 398 158 131 399 159 131 400 160 131 401 161 132 402 162 132 403 163 132 404 164 133 405 165 133 406 166 133 407 167 134 408 168 134 409 169 134 410 170 135 411 171 136 412 164 136 413 172 137 414 173 138 415 160 138 416 174 139 417 175 139 418 164 139 419 160 140 420 176 140 421 172 140 422 160 141 423 177 141 424 178 141 425 169 142 426 179 142 427 180 142 428 164 143 429 181 143 430 170 143 431 168 144 432 182 144 433 169 144 434 183 145 435 184 145 436 185 145 437 171 146 438 174 146 439 164 146 440 170 147 441 185 147 442 186 147 443 187 148 444 188 148 445 189 148 446 163 149 447 187 149 448 189 149 449 173 150 450 158 150 451 160 150 452 180 151 453 190 151 454 191 151 455 192 152 456 167 152 457 169 152 458 190 153 459 179 153 460 193 153 461 168 154 462 193 154 463 194 154 464 175 155 465 184 155 466 165 155 467 161 156 468 163 157 469 159 157 470 195 158 471 186 158 472 175 158 473 159 159 474 188 159 475 177 159 476 180 160 477 196 160 478 192 160 479 172 161 480 195 161 481 173 161 482 170 162 483 197 162 484 171 162 485 197 158 486 191 158 487 168 158 488 166 163 489 184 163 490 181 163 491 178 164 492 188 164 493 176 164 494 182 165 495 193 165 496 179 165 497 198 166 498 199 166 499 200 166 500 201 167 501 202 167 502 203 167 503 204 168 504 205 168 505 206 168 506 207 169 507 208 169 508 209 169 509 210 170 510 211 170 511 204 170 512 209 171 513 212 171 514 210 171 515 213 172 516 214 172 517 215 172 518 213 173 519 216 173 520 217 173 521 199 174 522 218 174 523 200 174 524 219 175 525 203 175 526 218 175 527 203 176 528 217 176 529 218 176 530 200 177 531 217 177 532 198 177 533 219 178 534 210 178 535 201 178 536 220 179 537 210 179 538 204 179 539 219 180 540 207 180 541 209 180 542 202 181 543 213 181 544 203 181 545 220 182 546 206 182 547 202 182 548 221 183 549 207 183 550 198 183 551 206 184 552 222 184 553 213 184 554 206 185 555 223 185 556 224 185 557 198 186 558 225 186 559 226 186 560 198 187 561 227 187 562 221 187 563 217 188 564 228 188 565 225 188 566 229 189 567 230 189 568 231 189 569 232 190 570 233 190 571 234 190 572 235 191 573 236 191 574 237 191 575 238 192 576 239 192 577 240 192 578 241 193 579 242 193 580 235 193 581 240 194 582 243 194 583 241 194 584 244 195 585 245 195 586 246 195 587 244 196 588 247 196 589 248 196 590 230 197 591 249 197 592 231 197 593 250 198 594 234 198 595 249 198 596 234 199 597 248 199 598 249 199 599 249 200 600 229 200 601 231 200 602 250 201 603 241 201 604 232 201 605 232 202 606 235 202 607 251 202 608 230 203 609 240 203 610 250 203 611 233 204 612 244 204 613 234 204 614 251 205 615 237 205 616 233 205 617 252 206 618 238 206 619 229 206 620 237 207 621 253 207 622 244 207 623 237 208 624 254 208 625 255 208 626 248 209 627 256 209 628 229 209 629 229 210 630 257 210 631 252 210 632 248 211 633 258 211 634 259 211 635 260 212 636 261 212 637 262 212 638 263 213 639 264 213 640 265 213 641 266 214 642 267 214 643 268 214 644 260 215 645 269 215 646 270 215 647 271 216 648 272 216 649 273 216 650 271 217 651 274 217 652 275 217 653 264 218 654 271 218 655 276 218 656 268 219 657 275 219 658 266 219 659 276 220 660 273 220 661 260 220 662 277 221 663 278 221 664 279 221 665 280 222 666 281 222 667 269 222 668 280 223 669 282 223 670 283 223 671 278 213 672 284 213 673 279 213 674 273 224 675 282 224 676 285 224 677 264 225 678 284 225 679 286 225 680 286 226 681 287 226 682 274 226 683 268 227 684 282 227 685 272 227 686 264 228 687 277 228 688 279 228 689 268 229 690 281 229 691 283 229 692 273 230 693 280 230 694 260 230 695 288 231 696 289 231 697 290 231 698 291 232 699 292 232 700 293 232 701 294 233 702 295 233 703 296 233 704 295 234 705 293 234 706 296 234 707 297 235 708 298 235 709 299 235 710 298 236 711 290 236 712 299 236 713 300 237 714 299 237 715 295 237 716 290 238 717 301 238 718 291 238 719 295 239 720 290 239 721 291 239 722 302 240 723 303 240 724 304 240 725 305 241 726 306 241 727 304 241 728 303 242 729 305 242 730 304 242 731 304 243 732 307 243 733 302 243 734 308 244 735 309 244 736 310 244 737 311 245 738 312 245 739 313 245 740 314 246 741 315 246 742 316 246 743 317 247 744 318 247 745 319 247 746 313 248 747 318 248 748 311 248 749 310 249 750 315 249 751 308 249 752 313 250 753 317 250 754 319 250 755 311 251 756 314 251 757 309 251 758 310 252 759 314 252 760 316 252 761 308 253 762 317 253 763 312 253 764 3 254 765 7 254 766 4 254 767 6 255 768 36 255 769 7 255 770 8 256 771 20 256 772 9 256 773 4 257 774 7 257 775 11 257 776 11 258 777 15 259 778 13 260 779 14 261 780 38 262 781 15 263 782 16 264 783 44 264 784 17 264 785 20 265 786 8 265 787 22 265 788 23 266 789 68 266 790 24 266 791 16 267 792 18 268 793 31 269 794 33 270 795 10 270 796 16 270 797 8 271 798 10 271 799 33 271 800 6 272 801 2 272 802 35 272 803 35 273 804 320 273 805 14 273 806 14 274 807 320 274 808 37 274 809 39 275 810 8 275 811 34 275 812 41 276 813 20 276 814 19 276 815 20 277 816 41 277 817 43 277 818 43 278 819 321 278 820 44 278 821 44 279 822 321 279 823 45 279 824 46 280 825 52 280 826 26 280 827 30 281 828 51 281 829 48 281 830 56 282 831 5 282 832 57 282 833 41 283 834 42 283 835 46 283 836 22 284 837 39 284 838 51 284 839 55 285 840 2 285 841 59 285 842 21 286 843 62 286 844 61 286 845 52 287 846 19 287 847 21 287 848 54 288 849 0 288 850 2 288 851 48 289 852 40 289 853 34 289 854 10 290 855 9 290 856 44 290 857 62 291 858 64 291 859 63 291 860 22 127 861 64 127 862 62 127 863 50 47 864 63 47 865 64 47 866 27 48 867 61 48 868 63 48 869 27 292 870 71 292 871 65 292 872 24 51 873 68 51 874 66 51 875 28 293 876 67 293 877 66 293 878 29 294 879 66 294 880 68 294 881 65 295 882 71 295 883 69 295 884 50 48 885 69 48 886 71 48 887 29 296 888 70 296 889 69 296 890 34 297 891 80 297 892 72 297 893 73 298 894 82 298 895 74 298 896 72 299 897 75 299 898 77 299 899 75 300 900 74 300 901 78 300 902 74 301 903 54 301 904 53 301 905 79 302 906 81 302 907 73 302 908 81 303 909 83 303 910 82 303 911 83 304 912 1 304 913 0 304 914 75 305 915 72 305 916 80 305 917 54 306 918 74 306 919 82 306 920 59 307 921 6 307 922 3 307 923 84 127 924 105 127 925 85 127 926 91 308 927 95 308 928 41 308 929 57 309 930 5 309 931 86 309 932 89 310 933 90 310 934 91 310 935 86 311 936 98 311 937 94 311 938 97 312 939 108 312 940 96 312 941 90 313 942 97 313 943 95 313 944 99 314 945 110 314 946 100 314 947 104 315 948 85 315 949 105 315 950 85 316 951 104 316 952 92 316 953 104 317 954 106 317 955 88 317 956 106 318 957 105 318 958 84 318 959 107 319 960 112 319 961 88 319 962 84 320 963 94 320 964 108 320 965 90 321 966 87 321 967 84 321 968 109 322 969 322 322 970 110 322 971 103 323 972 322 323 973 109 323 974 110 324 975 322 324 976 103 324 977 111 325 978 323 325 979 112 325 980 92 326 981 323 326 982 111 326 983 112 327 984 323 327 985 92 327 986 39 328 987 40 328 988 48 328 989 46 329 990 42 329 991 19 329 992 11 330 993 7 330 994 36 330 995 113 331 996 129 331 997 114 331 998 116 332 999 113 332 1000 115 332 1001 118 333 1002 136 333 1003 119 333 1004 121 334 1005 129 334 1006 122 334 1007 124 335 1008 133 335 1009 125 335 1010 120 336 1011 125 336 1012 126 336 1013 116 337 1014 147 337 1015 127 337 1016 129 338 1017 113 338 1018 130 338 1019 113 339 1020 116 339 1021 128 339 1022 131 340 1023 118 340 1024 126 340 1025 121 341 1026 123 341 1027 133 341 1028 134 342 1029 145 342 1030 119 342 1031 135 343 1032 119 343 1033 136 343 1034 138 344 1035 148 344 1036 117 344 1037 140 345 1038 115 345 1039 114 345 1040 139 346 1041 117 346 1042 115 346 1043 137 347 1044 136 347 1045 142 347 1046 144 348 1047 146 348 1048 145 348 1049 141 349 1050 114 349 1051 146 349 1052 124 350 1053 145 350 1054 146 350 1055 120 351 1056 119 351 1057 145 351 1058 147 352 1059 116 352 1060 117 352 1061 131 353 1062 142 353 1063 136 353 1064 129 354 1065 121 354 1066 146 354 1067 135 355 1068 137 355 1069 149 355 1070 139 127 1071 155 127 1072 151 127 1073 141 356 1074 157 356 1075 152 356 1076 144 357 1077 134 357 1078 153 357 1079 140 127 1080 152 127 1081 155 127 1082 137 127 1083 143 127 1084 156 127 1085 134 127 1086 135 127 1087 150 127 1088 144 358 1089 154 358 1090 157 358 1091 158 359 1092 161 359 1093 159 359 1094 161 360 1095 324 360 1096 162 360 1097 164 361 1098 175 361 1099 165 361 1100 167 362 1101 197 362 1102 168 362 1103 174 363 1104 195 363 1105 175 363 1106 160 364 1107 178 364 1108 176 364 1109 160 365 1110 159 365 1111 177 365 1112 169 366 1113 182 366 1114 179 366 1115 164 367 1116 166 367 1117 181 367 1118 168 368 1119 194 368 1120 182 368 1121 183 369 1122 181 369 1123 184 369 1124 170 370 1125 183 370 1126 185 370 1127 187 371 1128 176 371 1129 188 371 1130 163 372 1131 172 372 1132 187 372 1133 180 151 1134 325 151 1135 190 151 1136 190 373 1137 325 373 1138 179 373 1139 168 374 1140 191 374 1141 193 374 1142 175 375 1143 186 375 1144 184 375 1145 159 376 1146 163 376 1147 188 376 1148 180 377 1149 326 377 1150 196 377 1151 172 378 1152 186 378 1153 195 378 1154 170 379 1155 191 379 1156 197 379 1157 166 380 1158 165 380 1159 184 380 1160 178 164 1161 177 164 1162 188 164 1163 182 381 1164 194 381 1165 193 381 1166 198 382 1167 207 382 1168 199 382 1169 201 383 1170 220 383 1171 202 383 1172 204 384 1173 211 384 1174 205 384 1175 207 385 1176 327 385 1177 208 385 1178 210 386 1179 212 386 1180 211 386 1181 209 387 1182 208 387 1183 212 387 1184 213 388 1185 222 388 1186 214 388 1187 213 389 1188 215 389 1189 216 389 1190 199 390 1191 219 390 1192 218 390 1193 219 391 1194 201 391 1195 203 391 1196 203 392 1197 213 392 1198 217 392 1199 200 393 1200 218 393 1201 217 393 1202 219 394 1203 209 394 1204 210 394 1205 220 395 1206 201 395 1207 210 395 1208 219 396 1209 199 396 1210 207 396 1211 202 397 1212 206 397 1213 213 397 1214 220 398 1215 204 398 1216 206 398 1217 221 399 1218 327 399 1219 207 399 1220 206 400 1221 224 400 1222 222 400 1223 206 401 1224 205 401 1225 223 401 1226 198 402 1227 217 402 1228 225 402 1229 198 403 1230 226 403 1231 227 403 1232 217 404 1233 216 404 1234 228 404 1235 229 405 1236 238 405 1237 230 405 1238 232 406 1239 251 406 1240 233 406 1241 235 407 1242 242 407 1243 236 407 1244 238 408 1245 328 408 1246 239 408 1247 241 409 1248 243 409 1249 242 409 1250 240 410 1251 239 410 1252 243 410 1253 244 411 1254 253 411 1255 245 411 1256 244 412 1257 246 412 1258 247 412 1259 230 413 1260 250 413 1261 249 413 1262 250 414 1263 232 414 1264 234 414 1265 234 415 1266 244 415 1267 248 415 1268 249 416 1269 248 416 1270 229 416 1271 250 417 1272 240 417 1273 241 417 1274 232 418 1275 241 418 1276 235 418 1277 230 419 1278 238 419 1279 240 419 1280 233 420 1281 237 420 1282 244 420 1283 251 421 1284 235 421 1285 237 421 1286 252 422 1287 328 422 1288 238 422 1289 237 423 1290 255 423 1291 253 423 1292 237 424 1293 236 424 1294 254 424 1295 248 425 1296 259 425 1297 256 425 1298 229 426 1299 256 426 1300 257 426 1301 248 427 1302 247 427 1303 258 427 1304 260 428 1305 270 428 1306 261 428 1307 263 429 1308 329 429 1309 264 429 1310 266 430 1311 330 430 1312 267 430 1313 260 431 1314 280 431 1315 269 431 1316 271 432 1317 275 432 1318 272 432 1319 271 433 1320 286 433 1321 274 433 1322 264 434 1323 286 434 1324 271 434 1325 268 435 1326 272 435 1327 275 435 1328 276 436 1329 271 436 1330 273 436 1331 277 437 1332 331 437 1333 278 437 1334 280 438 1335 283 438 1336 281 438 1337 280 223 1338 285 223 1339 282 223 1340 278 439 1341 287 439 1342 284 439 1343 273 440 1344 272 440 1345 282 440 1346 264 441 1347 279 441 1348 284 441 1349 286 224 1350 284 224 1351 287 224 1352 268 442 1353 283 442 1354 282 442 1355 264 443 1356 329 443 1357 277 443 1358 268 444 1359 267 444 1360 281 444 1361 273 445 1362 285 445 1363 280 445 1364 288 446 1365 332 446 1366 289 446 1367 291 447 1368 301 447 1369 292 447 1370 294 447 1371 300 447 1372 295 447 1373 295 448 1374 291 448 1375 293 448 1376 297 449 1377 333 450 1378 298 451 1379 298 452 1380 288 453 1381 290 454 1382 300 455 1383 297 455 1384 299 455 1385 290 456 1386 289 456 1387 301 456 1388 295 457 1389 299 457 1390 290 457 1391 302 458 1392 334 458 1393 303 458 1394 305 459 1395 335 459 1396 306 459 1397 303 460 1398 336 460 1399 305 460 1400 304 461 1401 306 461 1402 307 461 1403 308 462 1404 312 462 1405 309 462 1406 311 463 1407 309 463 1408 312 463 1409 314 464 1410 317 464 1411 315 464 1412 317 465 1413 314 465 1414 318 465 1415 313 466 1416 319 466 1417 318 466 1418 310 467 1419 316 467 1420 315 467 1421 313 468 1422 312 468 1423 317 468 1424 311 469 1425 318 469 1426 314 469 1427 310 470 1428 309 470 1429 314 470 1430 308 471 1431 315 471 1432 317 471 1433</p>
        </triangles>
      </mesh>
    </geometry>
  </library_geometries>
  <library_visual_scenes>
    <visual_scene id="Scene" name="Scene">
      <node id="Spot_2" name="Spot.2" type="NODE">
        <matrix sid="transform">1 0 0 -2.56 0 -4.37114e-8 -1 -14.15 0 1 -4.37114e-8 2.39 0 0 0 1</matrix>
        <instance_light url="#Spot_2-light"/>
      </node>
      <node id="Cottage_Cube_002" name="Cottage_Cube.002" type="NODE">
        <matrix sid="transform">0.5 0 0 0 0 3.7749e-8 0.5 0 0 -0.5 3.7749e-8 0 0 0 0 1</matrix>
        <instance_geometry url="#Cottage_Cube_002-mesh" name="Cottage_Cube.002">
          <bind_material>
            <technique_common>
              <instance_material symbol="CottageTexture-material" target="#CottageTexture-material">
                <bind_vertex_input semantic="Cottage_Cube_002-mesh-map-0" input_semantic="TEXCOORD" input_set="0"/>
              </instance_material>
            </technique_common>
          </bind_material>
        </instance_geometry>
      </node>
      <node id="Spot" name="Spot" type="NODE">
        <matrix sid="transform">1 0 0 0 0 -4.37114e-8 1 11.1344 0 -1 -4.37114e-8 5.6228 0 0 0 1</matrix>
        <instance_light url="#Spot-light"/>
      </node>
    </visual_scene>
  </library_visual_scenes>
  <scene>
    <instance_visual_scene url="#Scene"/>
  </scene>
</COLLADA>